<svg xmlns="http://www.w3.org/2000/svg" viewBox="0 0 3000 3000" width="3000" height="3000"><g transform="translate(90.0 2331.0) rotate(0.0 1410.0 97.5) scale(3.1042533775267467 3.152432222707212)"><svg width="908.431" height="61.857" viewBox="0 0 908.431 61.857"><path d="M879.215 15.948h-850v22.778s420.601-3.004 560.763 0c155.44 3.331 250.887 5.277 289.237 23.131z" fill="#006"/><path d="M0 0h908.431v18.926H0z" fill="#fff"/></svg></g><g transform="translate(549.0 2115.0) rotate(0.0 448.5 129.0) scale(3.0367456378520017 3.0578865026312045)"><svg width="295.382" height="84.372" viewBox="0 0 295.382 84.372"><path d="M32.382 38.128c1.333 19-3.335 16.933 15.333 30 13.975 9.782 27.255 3.891 44 2 20.667-2.333 35.544-3.017 53.778-10.274 16.959-6.75 34.736-11.703 53.222-10.726 13.574.718 28.75-10.811 42-7.667 7.751 1.839 41.622-1.575 44.333 4.667 2.036 4.688 21 34 1 36-26.333.667-66.31-2.089-80.333-4.023-21.274-2.934-44.938-3.675-65.667 2.023-28.235 7.762-97.892 4.75-105.667-8L20.614 52.635s-3.29-16.153 11.767-14.507z" fill="#006"/><path d="M244.715 49.128c-15.667-2.333-41.267-6.497-52.945-10.278-21.483-6.955-43.675-13.092-65.055-19.477-18.867-5.634-37.622-9.687-56-15.023-17.721-5.145-33.947-7.132-51 2.029C6.478 13.49-3.113 23.105.938 37.128c1.444 5 12.508 18.958 27.174 26.958C1.017 26.219 53.848 4.377 84.715 17.906c40.456 17.731 77.673 44.982 122.055 51.445 15.633 2.276 32.757 2.439 48.817 1.626-1.505-7.181-.113-16.004-5.205-21.849.071-1.324-7.28.009-5.667 0z" fill="#006"/><path d="M19.041 52.568a2.425 2.425 0 0 1-.436-.974c-1.759-8.967 1.619-13.249 10.555-19.17 11.983-7.941 30.459 1.653 41.658 7.21 31.265 15.513 47.004 30.87 81.897 16.94 27.693-11.056 50.432-34.655 80-38.491 12.243-1.589 28.498-1.24 40 2.538 10.329 3.392 14.343 7.756 16.411 14.257 1.601 5.034 4.959 28.779 6.255 36.918-1.333-24.667-47.413-18.407-68.667-14.105-23.807 4.82-47.97 14.637-72 18.495-25.006 4.015-42.417-9.811-66-15.947-11.35-2.953-73.853-17.399-54.333 11.89-2.484-3.059-12.039-15.135-15.341-19.56z" fill="#36f"/></svg></g><g transform="translate(711.0 741.0) rotate(0.0 721.5 813.0) scale(3.006581976759934 3.0097790052180606)"><svg width="479.947" height="540.239" viewBox="0 0 479.947 540.239"><path d="M197.604 236.919c-42.487-3.035-82.236-19.486-114.95-47.575-31.806-27.31-55.03-63.829-67.162-105.612-7.7-26.526-13.392-66.318-13.631-68L0 2.617h72.299l2.098 3h5.096v8.5c0 20.97 17.061 38.03 38.031 38.03h6.604c6.351 0 11.5 5.148 11.5 11.5s-5.149 11.5-11.5 11.5h-6.604c-29.723 0-54.551-21.355-59.944-49.53H26.681c2.281 13.814 4.264 35.733 8.9 51.701 5.36 18.462 12.171 32.358 21.776 47.78.443.711 3.755 4.628 4.206 5.332 30.89 48.209 80.839 79.487 137.68 83.547l-1.639 22.941z" fill="#36f"/><path d="M281.512 236.948c-5.979 0-11.026-4.624-11.459-10.681-.453-6.335 4.316-11.838 10.651-12.29 75.672-5.405 139.128-59.048 161.662-136.659 4.545-15.655 10.458-36.995 12.758-50.84.048-.29-1.904-.577-1.857-.861h-30.899c-5.393 28.175-30.221 49.53-59.944 49.53h-6.604c-6.351 0-11.5-5.148-11.5-11.5s5.149-11.5 11.5-11.5h6.604a37.79 37.79 0 0 0 18.454-4.785c11.667-6.502 19.577-18.968 19.577-33.246l2-8.5h6.891l2.184-3h68.418l-1.861 13.115c-.238 1.682-5.93 41.474-13.631 67.999-12.131 41.783-35.355 78.303-67.161 105.612-32.714 28.089-72.463 44.54-114.95 47.575-.279.02-.556.029-.831.029z" fill="#006"/><path d="M239.973 0H100.174s2.929 63.883 4.408 85.147c3.069 44.104 18.606 86.373 42.877 123.221 1.5 2.28 6.04 4.54 7.611 6.78l1.581 2.25c9.881 14.046 19.873 22.244 34.689 29.946 14.816 7.682 31.456 11.867 48.634 11.867s33.818-4.185 48.634-11.867c14.816-7.702 24.808-15.9 34.689-29.946l1.581-2.25c27.018-38.388 44.227-83.166 47.488-130 1.481-21.264 4.408-82.147 4.408-82.147h-16.009L356.184 0z" fill="#36f"/><path d="M299.805 368.912v10.701H180.142v-7.593l-3-6.108 21.687-13.752a46.252 46.252 0 0 0 14.367-14.411c3.136-4.978 4.883-10.693 5.2-16.552.035-.649 3.053-2.301 3.053-2.953V295.02l-3-9.75v-16.919l3-4.081v-50.988h37.05v56.488l3 6.283v23.218l-3 20.013c0 4.198 1.711 7.369 3.161 11.274.707 1.903 3.589 4.742 4.651 6.491l.063.103a46.097 46.097 0 0 0 3.263 4.682c1.254 1.577 2.612 6.078 4.069 7.489a46.114 46.114 0 0 0 7.413 5.838l18.687 13.752z" fill="#36f"/><path d="M337.808 406.935H142.139c0-3.192.547-6.263 1.561-9.111 3.75-10.651 13.894-18.282 25.832-18.282h7.611l4.871-3h115l5.792 3h7.611a27.319 27.319 0 0 1 19.366 8.026c4.956 4.956 8.026 11.806 8.026 19.366z" fill="#36f"/><g fill="#006"><path d="M379.773 0s-2.928 63.883-4.408 85.147c-3.261 46.834-20.471 91.612-47.488 130l-1.581 2.25a105.596 105.596 0 0 1-37.689 32.946c-14.816 7.682-31.456 11.867-48.634 11.867s-33.818-4.185-48.634-11.867a105.596 105.596 0 0 1-37.689-32.946l-1.581-2.25c-1.571-2.24-3.111-4.5-4.611-6.78 1.364 2.073 25.949-4.668 29.465-5.535 9.568-2.361 18.996-5.286 28.24-8.701a281.894 281.894 0 0 0 55.53-27.821C316.659 130.049 363.198 70.003 355.867 0z"/><path d="M261.498 242.104v33.949c-11.948-7.732-34.091-8.29-43.05-7.702v-24.362c14.654-.284 28.71-.618 43.05-1.885zm4.875 95.048c-11.259-9.942-29.916-16.346-47.924-15.951v-12.222c13.407 2.756 29.703 1.216 43.05-.385v10.69c0 6.244 1.572 12.428 4.812 17.765l.063.103zm36.432 28.76v13.701H177.142v-13.701c4.429 2.716 8.728 4.84 12.364 5.432 9.633 1.567 29.308 5.918 44.641 2.25 22.71-5.442 34.811-14.086 35.49-31.76a46.317 46.317 0 0 0 11.482 10.327l21.687 13.752zm35.003 41.023H142.139c0-3.192.547-6.263 1.561-9.111l.395.182c.649-.172 16.661 1.581 24.565 1.966 11.34.557 93.538-1.956 100.844-2.523 6.02-.466 36.483-3.233 45.563-6.324 4.236-1.439 7.824-3.942 11.614-6.232a28.058 28.058 0 0 1 3.101 2.675c4.956 4.956 8.026 11.806 8.026 19.366z"/></g><rect fill="#36f" height="31.308" rx="15.447" width="72.4" x="203.774" y="281.774"/><rect fill="#36f" height="9.12" rx="4.5" width="53.201" x="207.45" y="284.98"/><path d="M56.243 17.367H18.052s8.91 79.835 43.492 113.076c-13.165-20.297-20.081-39.954-26.113-63.844-5.942-23.535-6.884-40.48-6.884-40.48h29.124s-1.177-6.355-1.428-8.752z" fill="#006"/><path d="M453.289 25.617h6.984s-.493 15.403-5.169 33.417c-5.088 19.604-13.213 38.407-19.075 52.236-16.085 37.948-56.5 67-75.553 76.78 26.803-20.53 43.921-40.198 61.153-71.123 11.65-20.907 13.564-27.437 19.791-44.907 8.109-22.75 11.868-46.403 11.868-46.403zm-41.76-22.976c-2.365 16.24-13.012 36.102-31.216 45.119 14.659-9.936 19.87-45.12 19.87-45.12s7.615-.143 11.346 0z" fill="#36f"/><path d="m244.222 62.399 3.219 6.521-.367 6.309 6.947 13.24 3.656 1.191 30.085 4.372-5.524 5.385-2.956 1.881-13.29 13.955 2.968 19.7 3.951 5.458 1.434 5.213-30.123-14.555-16.503 7.202-3.929 3.541-6.477 3.404 5.139-29.963-21.77-21.221 30.086-4.372z" fill="#fff"/><path d="m247.462 68.916 17.377 32.271 9.296-1.117 13.627-6.038-18.468 23.777 3.695 22.584-4.56-2.561-4.062-5.281-8.977-5.04-1.826 1.974-30.066 12.575 10.106-25.007-7.716-16.271 15.141-3.508z" fill="#006"/><path d="m246.825 71.399 10.796 21.875 24.141 3.508-17.468 17.027 4.123 24.044-21.592-11.352-21.592 11.352 4.124-24.044-17.469-17.027 24.141-3.508z" fill="#36f"/><path d="M72.299 2.644c2.171 16.775 12.732 38.19 28.662 45.728C87.501 38.108 82.717 2.644 82.717 2.644s-6.992-.148-10.418 0zm44.038 401.798h247.272v135.797H116.337z" fill="#006"/><path d="M174.612 500.825v-63.841h130.723l-16.101 14.297z" fill="#36f"/><path d="M178.666 441.488h130.723v63.842H178.666z" fill="#006"/></svg></g><g transform="translate(228.0 228.0) rotate(0.0 1258.5 888.0) scale(3.003863132681959 3.0048829347689994)"><svg width="837.921" height="591.038" viewBox="0 0 837.921 591.038"><g fill="#36f"><path d="M259.382 566.583c-3.13-6.731-9.087-16.846-14.211-22.947-10.57 16.688-34.146 25.593-54.5 28.068 1.802 4.609 6.434 14.324 6.826 19.333 11.829-1.132 43.686-4.932 61.885-24.454zm493.362-325.741c-3.565-6.511-10.173-16.213-15.686-21.965-9.453 17.346-32.393 27.778-52.541 31.584 2.101 4.481 7.36 13.871 8.08 18.843 11.729-1.906 43.268-7.788 60.147-28.462zM31.489 202.047c4.304-6.048 12.003-14.909 18.151-19.975 7.355 18.334 28.915 31.383 48.478 37.523-2.611 4.204-8.935 12.913-10.232 17.767-11.425-3.267-42.058-12.804-56.398-35.314z"/></g><path d="M614.085 35.409c10.031-.624 18.726-7.501 26.675-15.877 3.906 19.081 20.075 41.458 39.322 43.791-17.171 1.589-55.802-3.246-65.996-27.914z" fill="#006"/><path d="M624.327 48.953c15.99 5.94 40.795 1.889 56.741-4.912 3.666 12.66 9.237 20.939 15.59 27.216-13.471-1.737-46.082-6.036-63.702-16.054-2.614-1.486-4.093-2.159-8.628-6.249zm190.778 148.7c-.185 19.395-4.569 50.072-13.87 74.554 3.937 1.819 15.808 3.607 20.015 3.225 12.004-21.99 26.037-60.545 8.189-85.883-3.756 4.682-9.643 10.059-14.334 8.104z" fill="#36f"/><path d="M419.22 109.582c4.545-5.869 10.799-15.803 13.87-23.154-19.678-1.736-38.406-18.599-49.943-35.55-3.268 3.716-9.776 12.288-14.047 14.935 6.433 9.992 24.424 36.555 50.12 43.77zm349.888 393.114c4.725-6.103 11.228-16.431 14.421-24.074-20.459-1.805-39.932-19.338-51.927-36.962-3.398 3.863-10.164 12.777-14.605 15.528 6.688 10.389 25.394 38.007 52.111 45.509z" fill="#006"/><path d="M758.272 460.453c7.569-1.512 19.25-5.05 26.67-8.73-14.269-14.773-17.483-40.778-14.991-61.951-5.099.691-16.051 2.988-21.208 2.155-1.758 12.23-5.732 45.349 9.529 68.526z" fill="#36f"/><path d="M571.317 72.23c-5.565 16.05-20.43 34.212-33.934 48.644 8.717 3.326 20.403 5.786 28.573 5.467 9.509-26.54 5.361-31.97 5.361-54.112z" fill="#006"/><path d="M560.41 60.644c4.097 18.008 9.549 34.455 9.37 53.408 4.518-15.39 11.306-37.893 11.178-55.955.046 2.293-8.103 2.14-20.549 2.547z" fill="#36f"/><path d="M33.934 437.262c-5.565 16.05-20.43 34.212-33.934 48.644 8.717 3.326 20.403 5.786 28.573 5.467 9.509-26.54 5.361-31.97 5.361-54.112z" fill="#006"/><path d="M23.026 425.676c4.097 18.008 9.549 34.455 9.37 53.408 4.518-15.39 11.306-37.893 11.178-55.955.046 2.293-8.103 2.14-20.549 2.547z" fill="#36f"/><path d="M271.501 54.369c5.007-16.233 19.237-34.896 32.234-49.787-8.827-3.023-20.59-5.078-28.745-4.478-8.587 26.852-4.254 32.136-3.49 54.264z" fill="#006"/><path d="M282.802 65.571c-4.716-17.856-10.732-34.105-11.208-53.053-3.984 15.537-9.992 38.261-9.24 56.308-.125-2.29 8.025-2.418 20.448-3.254z" fill="#36f"/></svg></g><g transform="translate(441.0 1119.0) rotate(0.0 262.5 313.5) scale(3.002934295797608 3.009850419554907)"><svg width="174.829" height="208.316" viewBox="0 0 174.829 208.316"><g fill="#36f"><path d="M104.718 203.781c-1.954-.876-3.95-2.019-5.389-3.64a2.563 2.563 0 0 1-.487-.854l-.747-2.145-1.787-6.263c-.067-.981-.362-1.959-.041-2.87-.493 1.402 1.803 4.046 1.959 6.032.075.069.151.132.228.194.872.73 1.887 1.324 2.856 1.868 2.986 1.696 6.37 2.713 9.672 3.592 6.017 1.595 11.903 1.978 18.061 1.427 6.784-.619 13.603-1.899 19.96-4.373 2.922-1.144 5.689-2.714 8.014-4.841a11.096 11.096 0 0 0 1.904-2.345c.255-.4.479-.812.694-1.247.414-.825.616-1.753.753-2.659.086-.508-.139 7.381-.139 7.381l-.549 4.407-.065.192c-.016.011-.073.197-.087.201-1.096 1.386-2.616 2.676-4.62 3.864-7.68 4.565-17.554 5.86-26.318 6.499-8.086.589-16.475-1.103-23.872-4.419zM2.122 28.053c-.028-.833-.316-1.738-.122-2.5 1.752-7.176 12.035-11.489 17.968-13.646 7.775-2.832 16.282-4.993 24.595-5.009a48.144 48.144 0 0 1 13.084 1.764c8.137 2.322 15.444 6.982 19.707 14.318a27.358 27.358 0 0 1 2.514 5.685c1.316 4.186-.197-2.521-.534-3.587-.492-1.569-1.111-2.802-1.766-4.24l-.933-1.982-2.148-3.794-.007-.01c-3.664-5.291-8.591-9.285-14.404-11.825a36.34 36.34 0 0 0-4.243-1.549C52.106.565 48.089-.004 43.888 0 34.22.015 24.165 2.281 15.309 6.129 8.091 9.262-.027 13.788 0 22.064c.001.359.07.717.182 1.059l.105.321.605 1.331 1.231 3.278zm79.771 66.473c7.105-1.04 14.855-1.994 21.962-.404 2.446.554 5.092 1.305 7.054 2.942.187.159.374.318.553.483.412.367 2.651 4.833 1.907 1.642l-3.079-6.648-.077-.131-.004-.014-1.198-2.106a1.996 1.996 0 0 0-.564-.638c-4.652-3.32-11.992-3.353-17.213-3.121-10.532.45-20.794 2.786-30.989 5.339-4.779 1.196-9.645 2.634-14.562 3.142-1.155.121-2.532.267-3.856.171-1.757-.106-3.408-.654-4.249-2.304.51 1.013 1.01 3.027 1.496 4.894l1.157 2.984c-.005.026.061.141.089.174 3.427 2.886 11.079.413 14.555-.397 8.976-2.103 17.87-4.659 27.018-6.007zm11.113 69.401c6.61.932 14.37-1.321 20.796-2.744 7.165-1.579 14.286-3.393 21.44-4.964 2.383-.515 5.464-1.203 8.199-.866 1.467.169 2.822.635 3.921 1.568.225.571.347 1.014.267 1.189.11-.096.221-.202.329-.29.23-.2-.209-1.577-.255-1.759-.136-.608-.462-1.083-.617-1.687l-.694-1.971-.647-1.331c-.68-1.4-2.034-2.369-3.585-2.496a5.671 5.671 0 0 0-.19-.013c-7.108-.384-13.999 2.303-20.881 3.737-7.603 1.583-15.189 3.688-22.938 4.443-1.975.195-5.609.783-7.741-.171-.552-.244-.65-.345-1.001-.878-.905-1.368-1.182.187-.578 1.605-.346-.741 2.752 5.434 2.752 5.434.119.183.458.795.797 1.04.219.16.394.117.626.155z"/><path d="M155.424 207.556c7.234-1.001 14.439-7.472 17.531-13.922.604-1.273 1.305-2.469 1.72-3.94.009-.034.041-.27.027-.291l-.003-6.48c-.002-.176-.52-1.485-.427-.148.51 1.527.334 3.963-.137 5.344-.355 1.067-1.001 2.141-1.887 3.276-2.159 2.759-4.708 5.324-7.686 7.205-4.035 2.537-7.986 3.263-12.674 3.29-7.738.048-24.196-1.159-23.388-12.058.018-.324.055-.653.113-.996.041-.256.036-.366.009-.371-.052-.01-.202.333-.34.67l-.191 1.581-.056.426-.853 6.907c-.049.39-.02.796.108 1.167 3.215 9.022 20.075 9.471 28.134 8.341z"/></g><path d="M76.636 18.856c.35 1.369.59 2.743.719 4.124 1.35 13.294-6.726 26.806-14.562 37.372-5.459 7.35-12.045 13.625-18.071 20.482-2.49 2.822-7.26 7.306-8.559 11.752a1.76 1.76 0 0 0 .179 1.317l2.379 4.194 1.506 2.659c-.145-1.765.519-3.672 1.6-5.569 2.485-4.377 7.195-8.692 9.442-11.107 6.19-6.67 12.566-13.131 17.732-20.657 7.153-10.402 14.129-22.863 12.69-35.341a1.846 1.846 0 0 0-.228-.693l-3.855-6.814-.973-1.72zm15.256 144.258c-1.036-1.655-1.197-4.275-1.106-6.265.171-3.795 1.908-7.583 3.752-10.976 3.126-5.798 6.622-11.299 10.247-16.795 3.561-5.413 7.423-11.04 9.873-17.073 1.42-3.5 1.743-6.291 1.265-9.256a2.036 2.036 0 0 0-.241-.675l-1.862-3.279-3.53-6.251-.077-.131c.663 1.833 1.068 3.52 1.249 5.136.498 4.41-.722 8.272-3.239 12.95-3.482 6.471-7.664 12.444-11.598 18.649-4.374 6.882-11.253 16.121-9.942 24.731.046.322.162.631.325.915l2.52 4.452.003.021 2.042 3.589c.424.661.855.959.855.959s-.5-.648-.534-.701zm54.64-11.284c.014.021.021.031.018.049-.009-.047-.009-.092-.009-.138a.289.289 0 0 1-.009.089zm-48.436 45.312c.069-.422-.018-1.714.358-2.907.074-.238.167-.471.286-.693a18.155 18.155 0 0 1 2.918-4.115c2.322-2.427 4.941-4.53 7.744-6.385 3.568-2.353 7.306-4.148 11.099-6.089 6.245-3.184 12.44-6.535 18.403-10.231 2.396-1.485 9.862-4.974 10.219-8.412a63.421 63.421 0 0 1-.093-.464l-1.751-3.613-.888-1.83c-.436 1.079-1.802 2.14-2.949 2.951-.558.381-1.059.712-1.407.957-3.159 2.249-6.465 4.272-9.808 6.212-5.839 3.373-11.771 6.7-17.888 9.548-5.009 2.336-10.025 5.509-13.97 9.403-1.967 1.936-4.285 4.416-4.896 7.271a1.89 1.89 0 0 0 .079 1.007l.381 1.114zm60.847-7.681c.872 1.907 1.153 4.045.885 6.757l1.436-11.411.275-2.237a1.69 1.69 0 0 0-.182-1.025 7.406 7.406 0 0 0-3.032-2.988c-4.708-2.514-10.974-3.069-16.164-1.776-5.643 1.388-10.655 5.125-13.467 10.132a1.856 1.856 0 0 0-.218.672l-.193 1.552-.191 1.581c.107-.27.26-.585.41-.884.175-.338.708-1.062.84-1.181a15.751 15.751 0 0 1 2.791-2.317c1.868-1.134 3.84-2.148 5.978-2.666 3.423-.857 7.078-1.177 10.585-.654 5.082.74 8.64 2.911 10.247 6.445z" fill="#006"/><path d="m77.608 20.574-.972-1.718" fill="none"/><path d="M128.088 190.805c.113-.996.277-1.39.535-2.34a1.09 1.09 0 0 1 .05-.163c2.589-9.267 11.652-16.493 21.058-17.632 5.634-.678 11.952-.531 17.056 2.279 3.432 1.882 5.535 4.231 6.553 7.158.412 1.144.694 1.982.954 3.296.309 1.579.371 3.222.406 5.999.167-2.769.179-5.136-.025-7.434-.04-.444-.145-1.21-.281-1.628-.15-.484-.322-.954-.513-1.419-2.55-6.383-7.779-11.299-15.584-12.392-11.951-1.661-25.436 3.475-30.182 14.688a2.7 2.7 0 0 0-.206 1.088l.08 5.618.043 3.218c.037-.254.059-.407.053-.336z" fill="#006"/></svg></g><g transform="translate(1689.0 2184.0) rotate(0.0 415.5 303.0) scale(3.0011159384175343 3.01221288292632)"><svg width="276.897" height="201.181" viewBox="0 0 276.897 201.181"><path d="M265.147 25.188s-.83 17.13-1.68 35.36c-7.22-13.08-8.26-14.67-13.55-20.7-5.86-6.68-13.94-9.49-22.02-12.19-13.58-4.56-29.5-4.58-44-6.03-35.15-3.53-67.6 11.95-98.62 27.7v-11.76c18.16-8.22 35.93-17.69 54.62-23.94 26.4-8.84 52.17-15.8 80-13 9.06.91 17.68 3.02 26 6.97 8.96 4.26 16.67 9.44 19.25 17.59z" fill="#36f"/><path d="M207.836 23.758c-.308-17.911-68.581.583-78.939 3.339-21.5 5.721-42.061 7.722-64.555 8.525-25.373.905-41.445-3.024-64.342-7.178.147 11.404.647 31.253.647 31.253l57.028.151s45.324-.178 63.084-7.261c17.576-7.011 29.374-11.086 48.177-14.192 7.29-1.204 14.476.221 21.739 2.679 10.534 3.566 13.531 16.652 15.905.545.685-4.651 1.298-15.474 1.257-17.861z" fill="#006"/><path d="M188.897 34.848c-.735-11.57 18.712-5.682 17.653-13.778-.33-2.518-2.843-2.788-4.728-3.596.522-.002 1.429.357 2.41.83a6.94 6.94 0 0 1 3.924 6.125c.175 9.657.35 18.712.756 28.418.455 10.892-4.505 10.739-12.324 11.589-3.827.416-7.123-2.658-6.995-6.505.239-7.143-.032-15.637-.698-23.083z" fill="#36f"/><path d="M216.897 59.848c-16.017-3.721-29.9-18.225-27.398-29.187-1.995 7.648-.946 19.191-.96 29.628-.009 6.614 7.708 6.045 21.697 7.448 4.615.463 4.949-6.242 6.662-7.889z" fill="#006"/><path d="M216.73 75.98h-13.667a3 3 0 0 1-3-3V53.846a3 3 0 0 1 3-3h13.667a3 3 0 0 1 3 3V72.98a3 3 0 0 1-3 3zm-10.667-6h7.667V56.846h-7.667z" fill="#36f"/><path d="M214.747 55.532c3.697-.892 22.242-4.749 35.752-11.626 8.265-4.207 13.205-8.529 14.285-15.32.44-2.767.309-3.653.309-3.653s1.697 18.401 1.703 29.318c.003 4.991-3.487 9.344-8.187 11.024-15.896 5.679-37.759 9.845-51.605 3.074-.59-1.669-.244-9.679.024-11.381 2.603-.18 5.116-.808 7.719-1.436z" fill="#006"/><circle cx="209.897" cy="134.181" fill="#36f" r="67"/><circle cx="209.897" cy="134.181" fill="#006" r="54.722"/><circle cx="213.246" cy="137.53" fill="#36f" r="54.722"/><path d="M198.044 169.252h23.706V96.346h-19.533z" fill="#006"/><path d="m198.044 169.252 4.23-4.243h15.32v-64.228l4-4.435h-23.55z" fill="#fff"/><path d="M201.306 99.718h17.124v66.236h-17.124z" fill="#36f"/><path d="M253.172 100.708a54.45 54.45 0 0 1 8.947 29.973c0 30.222-24.5 54.722-54.722 54.722-17.61 0-33.266-8.327-43.275-21.249 9.777 14.901 26.622 24.749 45.775 24.749 30.222 0 54.722-24.5 54.722-54.722 0-12.612-4.278-24.219-11.447-33.473z" fill="#fff"/></svg></g><g transform="translate(1449.0 1893.0) rotate(-53.87110999858297 457.5 -522.0) scale(2.3276697608987096 -2.330788963133795)"><svg width="393.097" height="447.917" viewBox="0 0 393.097 447.917"><g fill="#36f"><path d="M391.922 414.418c-2.99 13.52-7.901 28.241-22.502 32.845-.761.24-1.521.454-2.282.654l-4.111-.694c7.447-2.496 13.626-7.22 17.35-15.935 3.91-9.196 7.26-20.753 6.473-30.843-1.561-19.779-15.789-38.063-35.674-40.799a37.11 37.11 0 0 0-4.925-.36c-1.268-.013.988-.4 1.161-.427 1.134-.147 2.269-.28 3.403-.32l4.711.988 13.4 2.816c18.339 8.78 27.614 31.242 22.996 52.075z"/><path d="M380.787 328.936c-.724-3.12-1.828-6.378-3.792-8.957a3.793 3.793 0 0 0-1.114-.96l-2.934-1.713-8.679-4.425c-1.42-.38-2.771-1.095-4.201-.885 2.2-.32 5.42 3.81 8.29 4.61.08.13.15.26.22.39.82 1.49 1.4 3.15 1.92 4.73 1.63 4.87 2.15 10.13 2.49 15.23.61 9.29-.52 18.04-3.1 26.92-2.86 9.78-6.7 19.42-12.16 28.04-2.52 3.96-5.62 7.57-9.41 10.37-1.22.89-2.57 1.59-3.99 2.12-.66.26-1.33.47-2.03.66-1.33.37-2.75.4-4.12.34-.77-.02 10.874 1.919 10.874 1.919l6.626.461.3-.04c.02-.02.31-.05.32-.07 2.35-1.21 4.68-3.07 7-5.67 8.91-9.96 13.65-24.08 17.11-36.76 3.19-11.7 3.12-24.5.38-36.31zM152.362 127.798c-1.214-.28-2.46-.964-3.635-.898-11.037.507-20.326 14.361-25.198 22.448-6.393 10.597-12.012 22.462-14.427 34.66a71.98 71.98 0 0 0-1.348 11.518 69.786 69.786 0 0 0 .174 8.195c1.068 12.612 5.806 24.677 15.348 33.045 2.269 2.015 4.805 3.79 7.621 5.325 5.766 3.136-3.643-1.014-5.112-1.815-2.162-1.174-3.793-2.437-5.715-3.812l-2.64-1.94-4.951-4.244-.013-.013c-6.713-6.9-11.157-15.281-13.213-24.544a54.697 54.697 0 0 1-1.054-6.673c-.561-5.792-.24-11.851.974-18.017 2.803-14.187 9.022-28.294 17.217-40.186 6.675-9.693 15.652-20.306 27.793-17.886a5.185 5.185 0 0 1 1.502.571l.441.246 1.779 1.271zm74.625 136.208c-3.57 10.13-7.2 21.23-6.91 32.12.11 3.75.45 7.85 2.29 11.2.18.32.36.64.55.95.42.71 6.332 5.282 1.862 3.272l-8.872-6.432-.17-.15-.02-.01-2.747-2.365a2.972 2.972 0 0 1-.774-1.012c-3.535-7.783-1.473-18.566.37-26.163 3.69-15.33 10.07-29.72 16.75-43.95 3.13-6.67 6.64-13.4 8.8-20.47.51-1.66 1.12-3.64 1.36-5.61.35-2.61.02-5.19-2.16-6.9 1.34 1.04 4.153 2.353 6.753 3.603l4.047 2.557c.04 0 .19.13.23.18 3.25 5.86-2.58 16.38-4.77 21.25-5.669 12.57-11.979 24.89-16.589 37.93zm98.671 36.275c-.534 9.97-6.073 20.713-10.01 29.735-4.378 10.063-9.089 19.993-13.453 30.042-1.441 3.35-3.337 7.674-3.63 11.785-.174 2.202.12 4.324 1.174 6.206.774.494 1.388.801 1.668.734-.173.133-.36.267-.521.4-.36.28-2.255-.761-2.509-.881-.854-.374-1.457-.99-2.298-1.391l-2.693-1.585-1.767-1.332c-1.859-1.401-2.892-3.667-2.632-5.98.01-.093.022-.187.035-.282 1.481-10.543 7.407-19.886 11.491-29.575 4.511-10.704 9.783-21.234 13.119-32.391.854-2.843 2.763-8.008 1.975-11.411-.2-.881-.32-1.054-1.001-1.722-1.748-1.722.614-1.682 2.522-.387-.988-.721 7.185 5.603 7.185 5.603.235.227 1.035.901 1.297 1.469.171.368.059.612.048.963z"/><path d="M371.743 404.448c-3.55 10.33-15.121 19.045-25.478 21.728-2.042.52-3.999 1.205-6.278 1.392-.053.004-.408-.018-.435-.044l-9.51-1.868c-.257-.054-2.03-1.19-.095-.67 2.095 1.188 5.721 1.63 7.883 1.336 1.668-.214 3.43-.854 5.352-1.828 4.671-2.376 9.169-5.379 12.786-9.209 4.885-5.192 7.087-10.784 8.475-17.657 2.296-11.344 5.258-35.848-10.971-37.797-.48-.067-.974-.107-1.495-.12-.387-.013-.547-.053-.547-.093 0-.08.547-.2 1.081-.307l2.376.174.641.04 10.383.734c.587.04 1.174.2 1.682.494 12.318 7.314 8.127 32.191 4.15 43.695z"/></g><path d="M144.977 30.473c-2.763-3.643-5.672-7.22-9.022-10.343-.374-.347-.747-.694-1.134-1.028-5.565-4.885-15.146-9.18-22.166-11.249C88.685.766 67.129 2.94 45.148 15.872 25.034 27.697 10.607 48.691 7.03 71.847c-2.629 17.03-2.696 32.191 4.564 52.01 3.003 8.181 8.889 16.176 14.494 20.847a43.128 43.128 0 0 0 5.459 3.87c5.098 3.056 10.957 5.192 17.363 6.393 15.228 2.843 30.95-.574 42.575-11.211 9.703-8.862 14.814-21.247 16.256-34.206.854-7.634.881-15.588-1.308-23.036-1.508-5.165-4.404-14.641-9.676-17.577-.453-.246-1.435-.7-2.283-1.112-.577-.28.131-.256 2.399.856 1.553.762 3.987 2.175 4.448 2.512.013 0 .027.013.027.027 1.842 1.335 3.457 2.883 4.631 4.685 4.858 7.461 7.674 16.576 7.968 25.465.614 19.032-5.605 39.638-22.528 50.182-18.818 11.731-38.878 8.688-57.829-.934a52.627 52.627 0 0 1-1.935-1.028 61.763 61.763 0 0 1-5.378-3.27c-9.529-6.486-17.831-18.938-21.554-30.75-5.966-18.845-6.526-41.894-.254-59.711C13.663 29.699 34.817 9.64 62.057 3.154c22.035-5.232 43.097-5.648 68.773 12.132.664.46 1.714 1.078 2.829 1.939 1.586 1.226 3.394 2.74 4.863 4.005 1.317 1.133 2.191 2.228 2.559 2.573 3.63 3.764 10.049 14.785 3.896 6.67z" fill="#006"/><path d="M152.594 114.051c-.04.038-.168.061-.168.061s-5.407-3.641-5.557-3.491c11.464-11.184 12.692-34.046 9.783-48.634-1.962-9.796-5.734-19.576-10.592-28.278-2.816-5.031-5.997-10.319-10.228-14.55a21.775 21.775 0 0 0-2.429-2.149c-1.014-.761 3.536 2.595 7.061 5.844 3.846 3.543 7.326 8.143 9.875 12.601 3.977 6.967 7.861 14.427 10.21 22.222a60.536 60.536 0 0 1 1.321 5.272c3.083 15.427 3.043 39.09-9.276 51.102z" fill="#36f"/><path d="M117.43 234.524a39.857 39.857 0 0 0 5.846 2.242c19.125 5.806 41.28-2.162 59.044-10.624 12.359-5.899 23.463-13.76 35.261-20.633 4.858-2.843 12.812-8.555 19.712-9.182.681-.053 1.361.2 1.882.641l5.472 4.698 3.47 2.976c-2.549-.721-5.539-.294-8.635.747-7.14 2.389-14.828 8.061-19.018 10.664-11.571 7.167-22.889 14.668-35.421 20.086-17.326 7.507-37.622 14.162-55.524 8.461a2.748 2.748 0 0 1-.952-.534l-8.893-7.619zm207.354 63.888c-2.131-1.997-5.93-2.986-8.877-3.426-5.62-.84-11.68.62-17.19 2.35-9.41 2.92-18.49 6.47-27.6 10.21-8.97 3.67-18.34 7.72-27.9 9.58-5.546 1.077-9.735.749-13.95-.806a3.037 3.037 0 0 1-.922-.548l-4.278-3.676-8.16-6.98-.17-.15c2.5 1.5 4.86 2.58 7.18 3.31 6.33 2 12.35 1.32 19.94-1.03 10.5-3.25 20.47-7.67 30.71-11.66 11.36-4.44 26.9-11.88 39.16-7.48.46.16.88.42 1.25.74l5.81 4.98.03.01 4.68 4.03c.849.812 1.162 1.531 1.162 1.531s-.807-.92-.875-.985z" fill="#006"/><path d="M101.361 71.246c-.16-.107-.894-.547-1.695-1.001-.574-.334-1.134-.561-1.561-.814-1.014-.587-2.175-1.001-3.417-1.255-5.512-1.201-12.772.387-17.243 1.762-6.219 1.909-12.012 4.658-17.03 8.862-11.224 9.409-20.994 22.315-25.131 36.515-3.056 10.463-4.831 22.101-3.737 33.259.027.334.067.667.107 1.014.44 3.804 1.215 7.554 2.402 11.171 4.898 14.868 17.31 32.231 32.231 38.184 1.842.734 4.164 2.896 5.459 3.417-14.214-5.672-26.586-15.855-35.074-28.574-5.712-8.555-9.089-17.831-10.397-27.466a63.356 63.356 0 0 1-.187-1.615c-.921-8.155-.374-16.549 1.468-24.957C33.468 92.855 61.762 56.06 91.992 66.39a36.92 36.92 0 0 1 4.271 1.762c.334.16.654.334.988.52.174.08.334.16.494.267.667.347 1.321.721 1.989 1.134 1.054.641 1.441.974 1.588 1.121.013 0 .027.013.027.027.012-.001.012.025.012.025z" fill="#36f"/><path d="M292.506 375.367c.027.027.04.04.067.04a1.057 1.057 0 0 0-.2-.053.42.42 0 0 0 .133.013zm80.441-58.061c-.64-.02-2.51-.52-4.37-.31-.37.04-.74.11-1.1.22-2.43.72-4.74 1.74-6.88 3.1-4.23 2.71-8.07 5.95-11.6 9.53-4.48 4.56-8.19 9.53-12.13 14.54-6.47 8.25-13.17 16.38-20.31 24.07-2.869 3.089-10.137 13.045-15.286 12.58a127.78 127.78 0 0 0-.654-.27l-4.8-3.61-2.43-1.83c1.71-.33 3.66-2.03 5.18-3.48.72-.71 1.35-1.35 1.81-1.79 4.21-3.99 8.13-8.26 11.94-12.61 6.63-7.6 13.22-15.35 19.16-23.51 4.87-6.68 10.97-13.13 17.82-17.8 3.407-2.331 7.714-5.019 12.08-5.095.511-.009 1.012.149 1.455.405l1.525.88zm-28.777 87.102c2.549 1.828 5.605 2.856 9.663 3.243l-17.163-1.174-3.363-.24c-.529-.038-1.046-.22-1.452-.562a11.066 11.066 0 0 1-3.513-5.31c-2.336-7.634-1.348-16.99 2.042-24.237 3.661-7.883 10.587-14.166 18.746-16.853a2.74 2.74 0 0 1 1.049-.126l2.333.163 2.376.174c-.427.08-.934.214-1.415.347-.547.16-1.762.734-1.975.894a23.625 23.625 0 0 0-4.204 3.43c-2.202 2.416-4.257 5.018-5.632 8.008-2.242 4.778-3.764 10.05-4.004 15.348-.375 7.673 1.787 13.519 6.512 16.895z" fill="#006"/><path d="m119.672 236.446-2.242-1.922" fill="none"/><path d="M153.158 169.381c-6.927 12.118-17.27 21.514-29.669 27.934-4.885 2.522-10.13 4.778-15.562 6.406a63.217 63.217 0 0 1-8.675 2.002c-4.831.774-9.716.934-14.547.254-10.13-1.415-20.285-5.965-28.453-12.064 1.762 1.321 6.285 3.488 9.818 4.72 9.699 3.381 22.399 3.354 32.128.418a91.114 91.114 0 0 0 2.002-.641c2.549-.854 5.085-1.802 7.554-2.883 7.087-3.03 13.813-6.967 19.766-11.865 8.875-7.314 15.602-16.296 19.899-27.026 3.964-9.903 7.474-20.727 1.308-29.735a21.19 21.19 0 0 0-2.603-3.123c.591.337.925.483 1.708.934l.013.013 4.484 2.482 4.11 2.282c.318.176.605.414.829.7 8.979 11.48 2.48 27.62-4.11 39.192zm201.86 190.125c-1.495-.12-2.12.006-3.588.112-.08 0-.173.013-.254.027-14.347 1.134-27.56 12.359-31.938 25.838-2.616 8.075-4.217 17.39-1.561 25.691 1.775 5.579 4.618 9.342 8.622 11.678 1.561.934 2.709 1.588 4.564 2.349 2.229.908 4.623 1.471 8.688 2.322-4.113-.551-7.59-1.214-10.905-2.175-.641-.186-1.734-.561-2.308-.881a25.39 25.39 0 0 1-1.935-1.161c-8.635-5.579-14.347-14.668-13.707-26.439.999-18.019 12.417-36.336 30.24-40.076a4.052 4.052 0 0 1 1.656.011l8.223 1.734 4.711.988c-.383-.018-.615-.031-.508-.018z" fill="#006"/></svg></g></svg>