<svg xmlns="http://www.w3.org/2000/svg" xmlns:xlink="http://www.w3.org/1999/xlink" viewBox="0,0,256,256" width="48px" height="48px" fill-rule="nonzero"><g fill="#4255ff" fill-rule="nonzero" stroke="none" stroke-width="1" stroke-linecap="butt" stroke-linejoin="miter" stroke-miterlimit="10" stroke-dasharray="" stroke-dashoffset="0" font-family="none" font-weight="none" font-size="none" text-anchor="none" style="mix-blend-mode: normal"><g transform="scale(10.66667,10.66667)"><path d="M7,3c-2.21,0 -4,1.79 -4,4v10c0,2.21 1.79,4 4,4h10c2.21,0 4,-1.79 4,-4v-10c0,-2.21 -1.79,-4 -4,-4zM11.56445,6.01563c0.1452,-0.01104 0.29275,-0.011 0.4375,0c0.909,0.046 1.7417,0.53952 2.2207,1.22852c0.033,0 0.06561,-0.00586 0.09961,-0.00586c1.2,-0.011 2.35933,0.72253 2.86133,1.76953c0.414,0.81 0.40387,1.77906 0.04688,2.53906c0.017,0.029 0.03869,0.05398 0.05469,0.08398c0.609,1.034 0.55344,2.40333 -0.10156,3.36133c-0.495,0.764 -1.33878,1.23955 -2.17578,1.31055c-0.016,0.029 -0.02792,0.05989 -0.04492,0.08789c-0.591,1.045 -1.80684,1.68175 -2.96484,1.59375c-0.909,-0.046 -1.7417,-0.53952 -2.2207,-1.22852c-0.033,0 -0.06561,0.00586 -0.09961,0.00586c-1.2,0.011 -2.35933,-0.72253 -2.86133,-1.76953c-0.414,-0.81 -0.40387,-1.77906 -0.04687,-2.53906c-0.017,-0.029 -0.03869,-0.05398 -0.05469,-0.08398c-0.609,-1.034 -0.55444,-2.40333 0.10156,-3.36133c0.495,-0.764 1.33878,-1.23955 2.17578,-1.31055c0.016,-0.029 0.02792,-0.05889 0.04492,-0.08789c0.51713,-0.91437 1.51094,-1.51649 2.52734,-1.59375zM12,7.26758c-0.715,0.084 -1.34783,0.48889 -1.67383,1.08789c-0.332,0.584 -0.37408,1.33156 -0.08008,1.97656c0.203,0.457 0.57445,0.84995 1.06445,1.12695c0.01,-0.012 0.02125,-0.02316 0.03125,-0.03516c-0.312,-0.74 -0.30925,-1.66169 0.09375,-2.42969c0.342,-0.708 0.98061,-1.25897 1.72461,-1.54297c-0.381,-0.159 -0.77916,-0.22459 -1.16016,-0.18359zM8.64063,8.72266c-0.328,0.25 -0.58328,0.56211 -0.73828,0.91211c-0.285,0.662 -0.25248,1.41019 0.10352,1.99219c0.34,0.58 0.96883,0.98864 1.67383,1.05664c0.497,0.053 1.02086,-0.07147 1.50586,-0.35547c-0.006,-0.016 -0.01744,-0.02988 -0.02344,-0.04687c-0.794,-0.102 -1.58387,-0.56492 -2.04687,-1.29492c-0.442,-0.65 -0.60061,-1.47667 -0.47461,-2.26367zM14.32031,8.72852c-0.673,0.005 -1.34095,0.34292 -1.75195,0.91992c-0.293,0.401 -0.44536,0.91175 -0.44336,1.46875c0.017,0.002 0.03378,0.01358 0.05078,0.01758c0.485,-0.637 1.28053,-1.09095 2.14453,-1.12695c0.784,-0.058 1.58022,0.21966 2.19922,0.72266c-0.053,-0.409 -0.19492,-0.7867 -0.41992,-1.0957c-0.431,-0.577 -1.0963,-0.92325 -1.7793,-0.90625zM13.94336,11.30859c-0.37978,0.02583 -0.76516,0.15028 -1.12891,0.36328c0.007,0.016 0.01744,0.02988 0.02344,0.04688c0.794,0.102 1.58387,0.56492 2.04688,1.29492c0.442,0.65 0.60061,1.47667 0.47461,2.26367c0.328,-0.25 0.58328,-0.56211 0.73828,-0.91211c0.285,-0.662 0.25249,-1.41019 -0.10351,-1.99219c-0.34,-0.58 -0.96883,-0.98864 -1.67383,-1.05664c-0.12425,-0.01325 -0.25036,-0.01642 -0.37695,-0.00781zM12.68945,12.54102c-0.01,0.012 -0.02125,0.02316 -0.03125,0.03516c0.313,0.74 0.30925,1.66169 -0.09375,2.42969c-0.342,0.708 -0.98061,1.25897 -1.72461,1.54297c0.381,0.159 0.7782,0.22459 1.1582,0.18359c0.715,-0.084 1.34978,-0.48889 1.67578,-1.08789c0.332,-0.584 0.37213,-1.33156 0.07813,-1.97656c-0.202,-0.457 -0.5725,-0.84995 -1.0625,-1.12695zM11.82422,12.86523c-0.485,0.637 -1.28053,1.09095 -2.14453,1.12695c-0.784,0.058 -1.58022,-0.21966 -2.19922,-0.72266c0.053,0.409 0.19492,0.7867 0.41992,1.0957c0.431,0.577 1.09534,0.92325 1.77734,0.90625c0.674,-0.005 1.34291,-0.34292 1.75391,-0.91992c0.293,-0.401 0.44536,-0.91175 0.44336,-1.46875c-0.017,-0.002 -0.03378,-0.01358 -0.05078,-0.01758z"></path></g></g></svg>