<svg xmlns="http://www.w3.org/2000/svg" viewBox="0 0 1000 1000" width="1000" height="1000"><g transform="translate(215.0 123.0) rotate(0.0 259.0 343.5) scale(0.9997896195588186 0.999550420553201)"><svg width="518.109" height="687.309" viewBox="0 0 518.109 687.309"><path d="m16.011 643.421 427.669 43.835c5.494.563 10.404-3.434 10.967-8.928l63.408-618.631c.563-5.494-3.434-10.404-8.928-10.968L81.458 4.895c-5.494-.563-10.404 3.434-10.968 8.928L7.083 632.453c-.563 5.495 3.434 10.405 8.928 10.968z" fill="#006"/><path d="m8.981 638.579 427.669 43.835c5.494.563 10.404-3.434 10.967-8.928l63.408-618.63c.563-5.494-3.434-10.404-8.928-10.968L74.429.053C68.934-.51 64.024 3.487 63.461 8.981L.053 627.612c-.563 5.494 3.434 10.404 8.928 10.967z" fill="#36f"/><g fill="#006"><path d="M286.025 99.485a5908.83 5908.83 0 0 1-93.695-10.371c-4.332-.444-7.492-4.61-7.013-9.285.108-11.202-.428-23.897 1.795-37.124.778-7.586 12.887-10.57 19.909-9.85l168.242 15.234c6.73.69 16.121 7.49 15.303 15.47l-3.784 36.92c-.479 4.675-4.419 8.114-8.783 7.666a5570.277 5570.277 0 0 1-91.974-8.66zm-83.188-65.049c-4.827-.495-12.403 3.165-12.741 8.575-.839 13.398-.859 28.61 1.19 37.43-.254 2.48-.685 4.475 1.484 4.698 31.388 3.726 62.789 8.208 93.562 11.362s61.809 5.072 92.043 7.662c2.202.225 4.174-1.612 4.429-4.092l3.784-36.92c.544-5.303-6.819-10.58-11.732-11.083z"/><path d="m216.955 97.985-24.88-2.55c-3.72-.381-7.069-2.188-9.43-5.088s-3.451-6.546-3.069-10.267l2.55-24.879 13.927 1.428-2.55 24.879 24.88 2.55zm160.613 16.389c-.475 0-.954-.024-1.438-.074l-24.88-2.55 1.428-13.927 24.88 2.55 2.55-24.88 13.928 1.428-2.55 24.88c-.738 7.196-6.834 12.573-13.918 12.573z"/></g><path d="M375.098 104.851a8.16 8.16 0 0 1-.823-.042C312.966 95.513 250.101 89.07 187.33 85.645c-4.483-.458-7.688-4.394-7.238-8.782l3.481-33.965a12.842 12.842 0 0 1 12.803-11.57c.44 0 .886.023 1.327.068l177.326 18.176c3.423.351 6.504 2.014 8.677 4.683s3.176 6.023 2.824 9.447l-3.481 33.965a7.975 7.975 0 0 1-7.951 7.184zM196.376 35.329a8.852 8.852 0 0 0-8.823 7.978l-3.481 33.965a4.004 4.004 0 0 0 3.571 4.387c62.804 3.424 125.797 9.88 187.136 19.183.044.002.182.009.319.009a3.986 3.986 0 0 0 3.972-3.593l3.481-33.965a8.823 8.823 0 0 0-1.948-6.513 8.822 8.822 0 0 0-5.982-3.229L197.295 35.376a8.909 8.909 0 0 0-.919-.047z" fill="#fff"/><path d="M373.997 109.987c-.475 0-.954-.024-1.438-.074l-24.88-2.55 1.428-13.927 24.88 2.55 2.55-24.88 13.928 1.428-2.55 24.879c-.739 7.197-6.834 12.574-13.918 12.574z" fill="#36f"/><path d="M379.053 50.602c-2.172.909-.722 3.751.301 4.933-1.112-.509-2.54-1.076-3.404-1.32.086-1.847.57-2.623.86-4.427.739.184 1.926.057 2.416.772-.127.109-.082.08-.173.042z" fill="#006"/><path d="m376.293 58.893-4.055-2.461-174.482-17.838-3.183 1.673 1.457-14.212 181.72 18.626z" fill="#fff"/><path d="M214.715 83.292s-.765.9-.432 2.298c.244 1.026.78 1.379 1.636 1.91-1.608-.19-3.384-.214-4.98-.134-.008-1.405.771-3.118.413-4.514 1.05.051.214.223 1.317.306-.119.032 2.046.134 2.046.134z" fill="#006"/><path d="m212.389 93.496-24.88-2.55c-7.679-.787-13.287-7.675-12.5-15.354l2.55-24.88 13.927 1.428-2.55 24.88 24.88 2.55z" fill="#36f"/><path d="m376.293 58.893-181.72-18.626a6.787 6.787 0 0 1 7.444-6.06l168.216 17.242a6.788 6.788 0 0 1 6.06 7.444z" fill="#006"/></svg></g><g transform="translate(248.0 372.0) rotate(-10.197473069714361 171.0 238.5) scale(0.9304831166287127 0.931922750051285)"><svg width="367.551" height="511.845" viewBox="0 0 367.551 511.845"><path d="m2.934 505.43 359.818 6.415 2.15-431.834 2.649-67.49-349.326-1.493z" fill="#006"/><path d="m0 504.379 353.537.73s-.452-173.248.472-228.82c.942-56.656-5.798-97.494.322-155.988 1.207-11.536.096-46.396.096-46.396 1.056-28.219-1.534-54.128-14.955-73.175L1.041 0z" fill="#fff"/><g fill="#36F"><path d="m26.363 392.38 305.77 1.009-.003 1-305.77-1.01zm-1.088-62.402 305.77 1.01-.004 1-305.77-1.01zm-1.09-62.4 305.77 1.01-.004 1-305.77-1.01zm-1.09-62.401 305.77 1.009-.004 1-305.77-1.01zm-1.089-62.401 305.77 1.009-.004 1-305.77-1.01zm-1.09-62.401 305.77 1.009-.003 1-305.77-1.01z"/></g></svg></g><g transform="translate(295.0 316.0) rotate(0.0 40.0 41.5) scale(1.0186930168593695 1.0180676340353503)"><svg width="78.532" height="81.527" viewBox="0 0 78.532 81.527"><g fill="#006"><path d="m58.733 73.993 17.116-2.489a3.134 3.134 0 0 0-.902-6.202l-17.116 2.489a3.134 3.134 0 0 0 .902 6.202zM7.137 81.494l17.116-2.489a3.134 3.134 0 0 0-.902-6.202l-17.116 2.49a3.134 3.134 0 0 0 .902 6.201z"/><path d="M75.964 67.941 6.26 78.076.033 35.247a3.095 3.095 0 0 1 2.617-3.508l63.579-9.244a3.095 3.095 0 0 1 3.508 2.617z"/></g><path d="m65.229 68.775-5.475.796c-3.219.466-6.334-1.531-7.251-4.648L39.684 21.374a5.385 5.385 0 0 1 1.558-5.497l1.449-1.304a8.34 8.34 0 0 0 2.683-7.417 8.302 8.302 0 0 0-3.272-5.496A8.302 8.302 0 0 0 35.901.088l-8.345 1.213-1.198.174a8.302 8.302 0 0 0-5.496 3.272 8.302 8.302 0 0 0-1.572 6.201 8.341 8.341 0 0 0 4.684 6.347l1.761.836a5.384 5.384 0 0 1 3.058 4.826l.113 45.396c.008 3.25-2.411 6.053-5.627 6.521l-5.475.796.432 2.969 5.475-.796c4.684-.681 8.207-4.764 8.195-9.497l-.113-45.396a8.398 8.398 0 0 0-4.771-7.529l-1.761-.836a5.351 5.351 0 0 1-3.002-4.068c-.206-1.416.152-2.828 1.008-3.975s2.107-1.892 3.523-2.098l8.345-1.213 1.198-.174a5.324 5.324 0 0 1 3.975 1.008 5.325 5.325 0 0 1 2.099 3.523 5.346 5.346 0 0 1-1.72 4.755l-1.449 1.304a8.396 8.396 0 0 0-2.429 8.574L49.626 65.77c1.206 4.099 5.021 6.869 9.198 6.869.451 0 .906-.032 1.362-.099l5.475-.796z" fill="#fff"/><path d="M21.622 75.8c0-1.357.83-2.518 2.009-3.008-.094.005-.186-.001-.28.012L6.235 75.293a3.133 3.133 0 1 0 .902 6.202l17.116-2.489c.011-.001.021-.006.032-.008a3.256 3.256 0 0 1-2.663-3.198zm56.877-7.847a3.133 3.133 0 0 0-3.552-2.65l-16.388 2.383a3.255 3.255 0 0 1 2.662 3.198 3.25 3.25 0 0 1-2.201 3.068l16.829-2.447a3.135 3.135 0 0 0 2.65-3.552z" fill="#006"/></svg></g><g transform="translate(675.0 670.0) rotate(76.62158330141152 9.0 6.5) scale(0.6300756090730888 0.6317119393556538)"><svg width="28.568" height="20.579" viewBox="0 0 28.568 20.579"><path d="M0 20.579h28.568l-.563-.118c-4.035-.844-4.526-6.652-4.522-9.916C23.488 7.169 23.817 0 28.568 0H0z" fill="#006"/></svg></g><g transform="translate(404.0 454.0) rotate(21.998732986668735 22.5 170.5) scale(0.8122743682310469 0.7976608187134503)"><svg width="55.4" height="427.5" viewBox="0 0 55.4 427.5"><path d="m4.2 49.6 19.4-1.4c2.4-.2 4.5 1.6 4.7 4l27.1 373.1-6.2.3-17.1-4.2L5 54.5c-.1-2.5-3.3-4.7-.8-4.9z" fill="#006"/><path d="m4.2 49.6 10.8-.7 27.3 375.8.1 1.5-15.3 1.3L0 54.4c-.1-2.4 1.7-4.6 4.2-4.8z" fill="#fff"/><path d="m5.692 49.478 16.258-1.174L49.206 425.72l-16.258 1.174z" fill="#36f"/><path d="M28.3 51.9c-1.6-1.3-3.6-3.3-5-3.2-2.4.2-1.9 6.2-4.3 6.3s-2.8-5.8-5.2-5.6-1.9 6.2-4.3 6.3-2.7-5.9-5-5.7c-1.4.1-3 2.4-4.5 3.9l5.4-32.5L8.9.2l1.5-.1 1.5-.1 6.5 20.5z" fill="#fff"/><path d="m18.3 20.5-12.9.9L8.9.2l1.5-.1 1.5-.1z" fill="#006"/></svg></g><g transform="translate(636.0 422.0) rotate(0.0 147.0 148.5) scale(0.9980717525325222 0.9992429977289932)"><svg width="294.568" height="297.225" viewBox="0 0 294.568 297.225"><circle cx="151.311" cy="153.969" fill="#006" r="143.257"/><path d="M286.507 143.254c0 22.452-5.164 43.695-14.369 62.605a141.178 141.178 0 0 1-9.46 16.534c-25.651 38.642-69.567 64.115-119.425 64.115C64.137 286.507 0 222.37 0 143.254S64.137 0 143.253 0s143.254 64.137 143.254 143.254z" fill="#fff"/><circle cx="165.549" cy="169.063" fill="#36f" r="88.852"/><path d="M226.547 143.251c0 .511 0 1.01-.011 1.521-.811 45.304-37.787 81.77-83.281 81.77-42.962 0-78.317-32.513-82.803-74.275a83.502 83.502 0 0 1-.489-9.017c0-46.004 37.288-83.292 83.292-83.292s83.292 37.289 83.292 83.293z" fill="#006"/><path d="M147.529 129.096c20.05 0 38.063 6.938 50.494 17.97 6.757 5.996 17.42 1.412 17.447-7.622a69.27 69.27 0 0 0-.171-5.073c-2.355-33.444-29.254-60.462-62.692-62.891-39.817-2.893-73.018 28.554-73.018 67.756l.001.323c.042 8.98 10.73 13.467 17.447 7.506 12.429-11.031 30.442-17.969 50.492-17.969z" fill="#36f"/><path d="M145.588 232.711c-49.475 0-89.726-36.251-89.726-85.726s40.251-89.727 89.726-89.727c49.476 0 87.727 40.252 87.727 89.727s-38.251 85.726-87.727 85.726zm3.485-154.342c-39.757 0-72.101 31.726-72.101 70.723 0 38.996 32.344 70.722 72.101 70.722s72.102-31.726 72.102-70.722c0-38.997-32.345-70.723-72.102-70.723z" fill="#006"/><path d="m269.541 129.012-39.499 14.974a7.197 7.197 0 0 1-9.281-4.178l-3.166-8.352a7.197 7.197 0 0 1 4.178-9.281l39.499-14.974a7.197 7.197 0 0 1 9.281 4.178l3.166 8.352a7.197 7.197 0 0 1-4.178 9.281z" fill="#36f"/><g fill="#fff"><path d="m267.713 110.555-39.499 14.974a7.197 7.197 0 0 1-9.281-4.178l-3.166-8.352a7.197 7.197 0 0 1 4.178-9.281l39.499-14.974a7.197 7.197 0 0 1 9.281 4.178l3.166 8.352a7.197 7.197 0 0 1-4.178 9.281z"/><path d="M143.255 237.644c-52.048 0-94.393-42.344-94.393-94.392s42.345-94.393 94.393-94.393c52.049 0 94.393 42.345 94.393 94.393s-42.344 94.392-94.393 94.392zm0-166.577c-39.803 0-72.185 32.382-72.185 72.185 0 39.802 32.382 72.184 72.185 72.184s72.185-32.382 72.185-72.184c0-39.803-32.382-72.185-72.185-72.185z"/></g></svg></g><g transform="translate(617.0 803.0) rotate(37.107297192477596 5.5 4.0) scale(0.38504620554466534 0.3887458088342485)"><svg width="28.568" height="20.579" viewBox="0 0 28.568 20.579"><path d="M0 20.579h28.568l-.563-.118c-4.035-.844-4.526-6.652-4.522-9.916C23.488 7.169 23.817 0 28.568 0H0z" fill="#006"/></svg></g><g transform="translate(408.0 315.0) rotate(11.888304672614591 11.0 167.0) scale(0.3311607183177035 0.334)"><svg width="66.433" height="1000" viewBox="0 0 66.433 1000"><path d="M10.526 114.62H56.14c5.614 0 10.292 4.678 10.292 10.292V1000H14.035L4.678 125.146c0-5.848 0-10.526 5.848-10.526z" fill="#006"/><path d="M10.526 114.62h25.263V1000H0V125.146a10.482 10.482 0 0 1 10.526-10.526z" fill="#36f"/><path d="M14.035 114.62h38.129V1000H14.035z" fill="#006"/><path d="M66.433 123.743c-3.509-3.275-7.953-8.421-10.994-8.421-5.614 0-5.614 14.035-10.994 14.035s-5.614-14.035-10.994-14.035-5.614 14.035-10.994 14.035-5.614-14.035-10.994-14.035c-3.275 0-7.953 5.146-11.462 8.421l18.48-74.854L30.175 43h7.018l11.696 5.889z" fill="#fff"/><path d="M48.697 48.889H18.369L30.065 0h6.936z" fill="#36f"/></svg></g></svg>