<svg xmlns="http://www.w3.org/2000/svg"  viewBox="0 0 50 50" width="50px" height="50px"><path d="M 11.300781 5 C 10.800781 5 10.402344 5.300781 10.300781 5.800781 L 1 42.800781 C 0.898438 43.101563 1 43.398438 1.199219 43.699219 C 1.398438 44 1.699219 44 2 44 L 7.199219 44 C 7.699219 44 8.097656 43.699219 8.199219 43.199219 L 10.097656 34 L 19.902344 34 L 21.800781 43.199219 C 21.902344 43.699219 22.300781 44 22.800781 44 L 28 44 C 28.300781 44 28.601563 43.898438 28.800781 43.597656 C 29 43.300781 29.101563 43 29 42.699219 L 19.597656 5.699219 C 19.5 5.300781 19.097656 5 18.597656 5 Z M 15 11.5 L 18.699219 28 L 11.300781 28 Z M 40.902344 20 C 37.699219 20 34.101563 21.199219 31.402344 23.199219 C 31.199219 23.398438 31 23.601563 31 23.902344 C 31 24.199219 31.101563 24.5 31.300781 24.699219 L 33.300781 26.699219 C 33.5 26.898438 33.699219 27 34 27 C 34.199219 27 34.300781 27 34.402344 26.902344 C 35.5 26.402344 38.5 25 40 25 C 41.398438 25 42.398438 25.300781 43 25.902344 C 43.601563 26.5 43.898438 27.5 44 29.097656 L 43 29.097656 C 38.101563 29.097656 32.800781 29.5 31.097656 32.597656 C 29.800781 34.898438 29.800781 37.699219 31.199219 40.097656 C 32.699219 42.597656 35.398438 44.097656 38.699219 44.097656 C 40.398438 44.097656 42.199219 43.699219 44 43 C 44 43.300781 44.101563 43.5 44.300781 43.699219 C 44.5 43.898438 44.699219 44 45 44 L 48 44 C 48.5 44 49 43.5 49 43 L 49 30.902344 C 49 27.902344 49 23.398438 45.597656 21.199219 C 44.398438 20.398438 42.800781 20 40.902344 20 Z M 34.152344 22.671875 C 34.109375 22.695313 34.066406 22.71875 34.023438 22.738281 C 34.066406 22.71875 34.109375 22.695313 34.152344 22.671875 Z M 33.410156 23.074219 C 32.964844 23.335938 32.53125 23.613281 32.117188 23.917969 C 32.113281 23.914063 32.101563 23.902344 32.097656 23.902344 C 32.511719 23.601563 32.957031 23.332031 33.410156 23.074219 Z M 43.097656 29.902344 L 44.996094 29.902344 C 44.996094 29.933594 45 29.964844 45 30 C 44.296875 30.03125 42.996094 29.949219 41.5 29.921875 C 42.066406 29.90625 42.609375 29.902344 43.097656 29.902344 Z M 41 34 L 44 34 C 44 39 35 40.902344 35 36.800781 C 35 34.800781 36.898438 34 41 34 Z"/></svg>