<svg xmlns="http://www.w3.org/2000/svg"  viewBox="0 0 100 100" width="100px" height="100px"><path fill="#ee3e54" d="M13,27c-1.105,0-2,0.895-2,2s0.895,2,2,2s2-0.895,2-2S14.105,27,13,27z"/><path fill="#f1bc19" d="M77,12c-0.552,0-1,0.448-1,1s0.448,1,1,1s1-0.448,1-1S77.552,12,77,12z"/><path fill="#fce0a2" d="M50,13c-20.435,0-37,16.565-37,37s16.565,37,37,37s37-16.565,37-37S70.435,13,50,13z"/><path fill="#f1bc19" d="M83,11c-2.209,0-4,1.791-4,4s1.791,4,4,4s4-1.791,4-4S85.209,11,83,11z"/><path fill="#ee3e54" d="M87,22c-1.105,0-2,0.895-2,2s0.895,2,2,2s2-0.895,2-2S88.105,22,87,22z"/><path fill="#fbcd59" d="M81,74c-1.105,0-2,0.895-2,2s0.895,2,2,2s2-0.895,2-2S82.105,74,81,74z M15,59c-2.209,0-4,1.791-4,4	s1.791,4,4,4s4-1.791,4-4S17.209,59,15,59z"/><path fill="#ee3e54" d="M25,85c-1.105,0-2,0.895-2,2s0.895,2,2,2s2-0.895,2-2S26.105,85,25,85z"/><path fill="#fff" d="M18.5,51c-1.381,0-2.5,1.119-2.5,2.5s1.119,2.5,2.5,2.5s2.5-1.119,2.5-2.5S19.881,51,18.5,51z"/><path fill="#f1bc19" d="M21,66c-0.552,0-1,0.448-1,1s0.448,1,1,1s1-0.448,1-1S21.552,66,21,66z"/><path fill="#fff" d="M80,33c-0.552,0-1,0.448-1,1s0.448,1,1,1s1-0.448,1-1S80.552,33,80,33z"/><circle cx="50" cy="50" r="23.958" fill="#cdcdcd"/><path fill="#472b29" d="M50,26.4c13.013,0,23.6,10.587,23.6,23.6S63.013,73.6,50,73.6S26.4,63.013,26.4,50	S36.987,26.4,50,26.4 M50,25c-13.807,0-25,11.193-25,25s11.193,25,25,25s25-11.193,25-25S63.807,25,50,25L50,25z"/><circle cx="50" cy="50" r="20.5" fill="#b5b5b5"/><path fill="#472b29" d="M69.623,44.5c-0.215,0-0.414-0.14-0.481-0.357c-0.089-0.29-0.184-0.576-0.286-0.861 c-0.394-1.104-0.891-2.178-1.479-3.198c-0.14-0.24-0.057-0.55,0.183-0.689c0.24-0.142,0.548-0.058,0.687,0.185 c0.618,1.071,1.141,2.202,1.555,3.361c0.107,0.3,0.207,0.6,0.3,0.905c0.081,0.266-0.067,0.549-0.334,0.631 C69.72,44.493,69.671,44.5,69.623,44.5z"/><path fill="#472b29" d="M49.999,71c-11.58,0-21.001-9.421-21.001-21.001S38.419,29,49.999,29 c6.011,0,11.744,2.583,15.73,7.086c0.301,0.34,0.592,0.691,0.87,1.05c0.17,0.22,0.131,0.536-0.088,0.707 c-0.219,0.174-0.535,0.132-0.706-0.089c-0.266-0.342-0.543-0.675-0.829-0.999c-3.795-4.288-9.254-6.748-14.978-6.748 c-11.025,0-19.995,8.968-19.995,19.991s8.97,19.991,19.995,19.991s19.995-8.968,19.995-19.991c0-1.004-0.075-2.014-0.223-3 c-0.041-0.274,0.148-0.532,0.423-0.573c0.282-0.041,0.531,0.148,0.572,0.424C70.921,47.885,71,48.945,71,49.999 C71,61.579,61.58,71,49.999,71z"/><path fill="#97aec7" stroke="#472b29" stroke-linecap="round" stroke-linejoin="round" stroke-miterlimit="10" stroke-width=".5" d="M34.929,45.663L50,38.781l15.071,6.881L50,52.545L34.929,45.663z"/><path fill="#b0c1d4" stroke="#472b29" stroke-linecap="round" stroke-linejoin="round" stroke-miterlimit="10" stroke-width=".5" d="M41.548,54.214v-7.566l0.029-0.072c0.37-0.911,3.686-1.894,8.4-1.894s8.03,0.982,8.4,1.894l0.029,0.072v7.566L41.548,54.214z"/><line x1="38.163" x2="38.163" y1="47.042" y2="57.459" fill="none" stroke="#472b29" stroke-miterlimit="10" stroke-width=".5"/><path fill="#66798f" stroke="#472b29" stroke-linecap="round" stroke-linejoin="round" stroke-miterlimit="10" stroke-width=".5" d="M49.977,51.845c-4.655,0-8.429,1.061-8.429,2.369c0,1.308,3.774,2.369,8.429,2.369s8.429-1.061,8.429-2.369	C58.407,52.906,54.633,51.845,49.977,51.845z"/><path fill="#ecad6f" stroke="#472b29" stroke-linecap="round" stroke-linejoin="round" stroke-miterlimit="10" stroke-width=".5" d="M36.973,58.396l-0.226-0.491c-0.111-0.226-0.167-0.459-0.167-0.693c0-0.873,0.71-1.583,1.583-1.583s1.583,0.71,1.583,1.583	c0,0.323-0.302,0.927-0.302,0.927l-1.299,2.632L36.973,58.396z"/><path fill="none" stroke="#472b29" stroke-linecap="round" stroke-linejoin="round" stroke-miterlimit="10" stroke-width=".5" d="M53.218,50.206c-0.465-0.061-0.944-0.109-1.436-0.144"/><path fill="none" stroke="#472b29" stroke-linecap="round" stroke-linejoin="round" stroke-miterlimit="10" stroke-width=".5" d="M57.114,51.138c-0.758-0.288-1.626-0.531-2.577-0.717"/><path fill="none" stroke="#472b29" stroke-linecap="round" stroke-linejoin="round" stroke-miterlimit="10" stroke-width=".5" d="M50.234,50.001C50.149,50,50.063,50,49.977,50c-2.705,0-5.166,0.413-7.006,1.09"/></svg>