<svg xmlns="http://www.w3.org/2000/svg" xmlns:xlink="http://www.w3.org/1999/xlink" viewBox="0,0,256,256" width="50px" height="50px" fill-rule="nonzero"><g transform="translate(38.4,38.4) scale(0.7,0.7)"><g fill="#4255ff" fill-rule="nonzero" stroke="none" stroke-width="1" stroke-linecap="butt" stroke-linejoin="miter" stroke-miterlimit="10" stroke-dasharray="" stroke-dashoffset="0" font-family="none" font-weight="none" font-size="none" text-anchor="none" style="mix-blend-mode: normal"><g transform="scale(2.56,2.56)"><path d="M73.89258,5.00195c-17.97839,0.96692 -32.00306,5.13933 -46.34961,9.72656c-0.39271,-0.47713 -0.98385,-0.74603 -1.60156,-0.72852c0,0 -2.35602,0.05816 -4.86719,1.28906c-2.51117,1.23091 -5.34473,3.87533 -6.05078,8.40234c-0.23785,1.52501 -0.02683,3.30829 0.33789,5.79492c0.18324,1.24928 0.42029,2.64419 0.70313,4.1582c-0.13628,0.35895 -0.05507,0.76423 0.20898,1.04297c0.23449,1.21473 0.4743,2.44282 0.75781,3.78516c1.45351,6.8819 3.49663,15.28136 5.57617,23.43555c4.15909,16.30838 8.4668,31.63281 8.4668,31.63281c0.27114,0.96589 1.21586,1.58151 2.20898,1.43945l49,-7c0.63654,-0.09097 1.19054,-0.48241 1.48889,-1.05202c0.29835,-0.56961 0.30466,-1.24792 0.01697,-1.82298l-1.62109,-3.24219c1.24565,0.01932 2.48511,0.05644 3.70703,0.13281c0.62615,0.03894 1.23429,-0.21816 1.64263,-0.69443c0.40834,-0.47627 0.56957,-1.11654 0.43549,-1.7294c-4.831,-22.02759 -8.8961,-46.09234 -11.9668,-72.80078c-0.12045,-1.05056 -1.03781,-1.82587 -2.09375,-1.76953zM72.28711,9.18164c2.94794,25.09905 6.77817,47.8709 11.29688,68.83789c-1.51955,-0.04832 -3.05052,-0.04883 -4.58398,-0.02539v-2.99414c0.0037,-0.2703 -0.10218,-0.53059 -0.29351,-0.72155c-0.19133,-0.19097 -0.45182,-0.29634 -0.72212,-0.29212c-0.55152,0.00862 -0.99193,0.46214 -0.98437,1.01367v3.03906c-1.66905,0.0558 -3.33842,0.14546 -5,0.26758v-3.30664c0.0037,-0.2703 -0.10218,-0.53059 -0.29351,-0.72155c-0.19133,-0.19097 -0.45182,-0.29634 -0.72212,-0.29212c-0.55152,0.00862 -0.99193,0.46214 -0.98437,1.01367v3.47266c-1.25771,0.11027 -2.50966,0.23256 -3.75,0.37109l0.73047,-3.64844c0.06377,-0.29836 -0.01213,-0.60952 -0.20614,-0.84499c-0.19401,-0.23547 -0.4849,-0.36951 -0.78995,-0.36399c-0.47522,0.00886 -0.87855,0.35096 -0.96484,0.81836l-0.85937,4.29883c-1.00882,0.12494 -2.01262,0.25257 -3.00195,0.39063l0.8125,-3.25195c0.07821,-0.29512 0.01733,-0.6098 -0.16531,-0.85445c-0.18263,-0.24465 -0.46702,-0.39249 -0.77219,-0.40141c-0.47554,-0.01436 -0.89537,0.30827 -1.00391,0.77148l-1,4c-0.00292,0.01426 -0.00552,0.02859 -0.00781,0.04297c-1.24583,0.18643 -2.47709,0.37647 -3.67773,0.57422l0.63672,-3.17969c0.06377,-0.29836 -0.01213,-0.60952 -0.20614,-0.84499c-0.19401,-0.23547 -0.4849,-0.36951 -0.78995,-0.36399c-0.47522,0.00886 -0.87855,0.35096 -0.96484,0.81836l-0.78516,3.92773c-0.75769,0.13037 -1.50107,0.25968 -2.23437,0.39063v-3.12305c0.0037,-0.2703 -0.10218,-0.53059 -0.29351,-0.72155c-0.19133,-0.19097 -0.45182,-0.29634 -0.72212,-0.29212c-0.55152,0.00862 -0.99193,0.46214 -0.98437,1.01367v3.48047c-1.28274,0.23497 -2.31802,0.42812 -3.50195,0.65039l1.47266,-5.88867c0.07821,-0.29512 0.01733,-0.6098 -0.16531,-0.85445c-0.18263,-0.24465 -0.46702,-0.39249 -0.77219,-0.40141c-0.47554,-0.01436 -0.89537,0.30827 -1.00391,0.77148l-1.69336,6.77539c-0.85802,0.16057 -1.90677,0.35698 -2.69336,0.5c-0.14988,0.023 -0.29665,0.06297 -0.4375,0.11914c-0.22687,-0.76848 -0.45705,-1.53799 -0.67578,-2.30469c0.15627,-0.09731 0.28266,-0.23586 0.36523,-0.40039l4,-8c0.16492,-0.3182 0.14697,-0.70032 -0.04706,-1.00165c-0.19403,-0.30133 -0.53447,-0.4758 -0.89239,-0.45733c-0.36508,0.01873 -0.69085,0.23517 -0.84961,0.56445l-3.31836,6.63867c-0.33109,-1.20619 -0.6589,-2.4109 -0.97266,-3.61328c0.01957,-0.02643 0.03782,-0.05381 0.05469,-0.08203l4,-7c0.18181,-0.30855 0.18476,-0.69077 0.00773,-1.00209c-0.17703,-0.31132 -0.50702,-0.50421 -0.86515,-0.50572c-0.36583,-0.00217 -0.70365,0.19558 -0.88086,0.51563l-3.02539,5.29297c-0.31978,-1.27179 -0.63925,-2.54418 -0.94336,-3.8125l3.70703,-6.48828c0.18181,-0.30855 0.18476,-0.69077 0.00773,-1.00209c-0.17703,-0.31132 -0.50702,-0.50421 -0.86515,-0.50572c-0.36583,-0.00217 -0.70365,0.19558 -0.88086,0.51563l-2.63672,4.61523c-0.26337,-1.13504 -0.53328,-2.27139 -0.78711,-3.4043c0.09643,-0.09818 0.17157,-0.2152 0.2207,-0.34375l2,-5c0.1508,-0.33505 0.10574,-0.72582 -0.11736,-1.01775c-0.22311,-0.29193 -0.58833,-0.43802 -0.95122,-0.38049c-0.36289,0.05753 -0.66502,0.30942 -0.78688,0.65605l-1.08984,2.72461c-1.41545,-6.66575 -2.60796,-13.28315 -3.54492,-19.84375l4.24219,1.4375c0.34029,0.12153 0.71968,0.05005 0.99241,-0.18698c0.27273,-0.23703 0.3964,-0.60275 0.32349,-0.95666c-0.07291,-0.35391 -0.33106,-0.64097 -0.67528,-0.7509l-5.22656,-1.77148c-0.09452,-0.70027 -0.17877,-1.39822 -0.26953,-2.09766l3.98047,0.79688c0.3547,0.0807 0.72524,-0.03755 0.96762,-0.30879c0.24238,-0.27125 0.31837,-0.65271 0.19843,-0.99613c-0.11994,-0.34342 -0.41688,-0.59464 -0.77543,-0.65602l-4.63867,-0.92773c-0.55602,-4.48141 -1.01608,-8.94185 -1.35156,-13.375c10.22282,-3.27208 20.09871,-6.2491 31.23242,-8.05664l-2.29492,3.82617c-0.19842,0.3069 -0.21364,0.69759 -0.0397,1.019c0.17394,0.32141 0.50935,0.52235 0.8748,0.52408c0.36545,0.00174 0.70275,-0.196 0.87975,-0.51574l3,-5c0.04524,-0.07388 0.0807,-0.15332 0.10547,-0.23633c0.63258,-0.09084 1.26865,-0.17873 1.91016,-0.26172l-2.76758,5.53711c-0.15987,0.31959 -0.13706,0.7002 0.05981,0.99842c0.19688,0.29822 0.53791,0.46874 0.89462,0.44731c0.3567,-0.02143 0.67487,-0.23155 0.83463,-0.5512l3.36133,-6.72266c1.96387,-0.21921 3.97028,-0.40364 6.03125,-0.54297zM43.53711,17c-0.25588,-0.0095 -0.51675,0.07958 -0.71875,0.26758c-0.404,0.375 -0.42678,1.00811 -0.05078,1.41211c0.376,0.405 1.00911,0.42873 1.41211,0.05273c0.405,-0.375 0.42773,-1.00906 0.05273,-1.41406c-0.1875,-0.202 -0.43944,-0.30886 -0.69531,-0.31836zM25.29883,18.09766c0.21949,0.33664 0.53529,0.59935 0.90625,0.75391c0.26768,3.30732 0.62767,6.63408 0.98633,9.96094c-2.86273,-0.63124 -5.51717,0.29739 -7.42383,1.50586c-0.06588,0.04175 -0.12311,0.08665 -0.1875,0.12891c-0.08283,-0.50189 -0.19498,-1.08601 -0.26172,-1.54102c-0.34457,-2.34925 -0.40695,-4.17992 -0.3418,-4.59766c0.50595,-3.24399 2.17159,-4.60139 3.85742,-5.42773c0.97333,-0.4771 1.8574,-0.68262 2.46484,-0.7832zM34.03711,23.79102c-0.25588,-0.0095 -0.51675,0.07763 -0.71875,0.26563c-0.404,0.375 -0.42678,1.01006 -0.05078,1.41406c0.376,0.404 1.00911,0.42678 1.41211,0.05078c0.405,-0.375 0.42773,-1.00811 0.05273,-1.41211c-0.1875,-0.202 -0.43944,-0.30886 -0.69531,-0.31836zM39.16211,26c-0.25588,-0.0095 -0.5148,0.07958 -0.7168,0.26758c-0.405,0.375 -0.42773,1.00811 -0.05273,1.41211c0.376,0.405 1.00906,0.42873 1.41406,0.05273c0.404,-0.375 0.42678,-1.00906 0.05078,-1.41406c-0.1875,-0.202 -0.43944,-0.30886 -0.69531,-0.31836zM25.58008,30.54883c0.58737,0.02157 1.19059,0.12425 1.80273,0.32813c0.22245,1.93272 0.48695,3.87491 0.75,5.81641c-0.09365,0.29675 -0.04384,0.62018 0.13477,0.875c0.52586,3.79562 1.1221,7.6068 1.79297,11.43359c-0.02016,-0.00126 -0.04035,-0.00191 -0.06055,-0.00195c-2.56801,0 -4.43493,1.55007 -5.67969,3.19336c-1.26316,-5.16405 -2.45719,-10.20134 -3.375,-14.54687c-0.37985,-1.79847 -0.70946,-3.46275 -0.99414,-5.00195c0.28303,-0.21398 0.55971,-0.42946 0.88672,-0.63672c1.3535,-0.85786 2.98007,-1.52369 4.74219,-1.45898zM62.00977,34.99609c-0.11331,0.00083 -0.22635,0.01128 -0.33789,0.03125l-18,3c-0.71713,0.10387 -1.322,0.58746 -1.58117,1.26414c-0.25917,0.67668 -0.1321,1.44061 0.33217,1.99695c0.46427,0.55634 1.19312,0.81809 1.90526,0.68422l18,-3c1.03442,-0.16105 1.76966,-1.09247 1.68612,-2.13601c-0.08354,-1.04354 -0.95761,-1.84613 -2.00448,-1.84055zM66.99609,43.99805c-0.0463,0.001 -0.09255,0.0036 -0.13867,0.00781l-14,1c-0.72886,0.02936 -1.38394,0.45316 -1.70947,1.10595c-0.32553,0.65278 -0.26989,1.43102 0.1452,2.03084c0.41509,0.59983 1.12381,0.92613 1.84943,0.85149l14,-1c1.08021,-0.07044 1.90835,-0.98746 1.8687,-2.06923c-0.03965,-1.08177 -0.93272,-1.9357 -2.01518,-1.92686zM30.4082,50.91797c1.02153,5.61869 2.21113,11.27321 3.59766,16.9707c-0.02579,0.23176 0.03017,0.46526 0.1582,0.66016c0.05641,0.22941 0.10897,0.45795 0.16602,0.6875c-2.34729,0.93925 -3.88432,2.11936 -4.83398,3.24805c-0.95142,-3.58944 -1.96452,-7.45823 -3.01172,-11.56445c-0.51507,-2.01965 -0.99435,-4.01377 -1.49609,-6.03516c0.14905,-0.27839 0.2943,-0.55719 0.47852,-0.84375c1.0339,-1.60829 2.49987,-3.04102 4.5332,-3.04102c0.14032,0.0016 0.2794,-0.02635 0.4082,-0.08203zM34.87109,71.19336c1.20979,4.74025 2.49165,9.49549 3.94922,14.28906c-2.07602,0.94033 -3.60381,2.41906 -4.62891,4.26758c-0.14468,-0.51616 -0.67928,-2.47424 -1.0293,-3.73633c0.24968,-1.16048 0.80457,-2.15838 2.37891,-3.17187c0.38225,-0.23733 0.55897,-0.7007 0.43181,-1.13229c-0.12715,-0.43159 -0.52687,-0.72514 -0.97673,-0.71732c-0.19123,0.00284 -0.37763,0.06046 -0.53711,0.16602c-0.91613,0.58977 -1.59249,1.25434 -2.09766,1.95313c-0.33937,-1.23758 -0.45153,-1.63923 -0.85937,-3.14453c0.69552,-1.40552 1.65237,-2.41743 2.94922,-3.07422c0.42011,-0.20547 0.64174,-0.67465 0.53361,-1.12964c-0.10813,-0.455 -0.51714,-0.7743 -0.98478,-0.76879c-0.1572,0.00177 -0.31178,0.04058 -0.45117,0.11328c-1.08975,0.55191 -2.0017,1.3181 -2.74609,2.25391c-0.19616,-0.72915 -0.39141,-1.4608 -0.59766,-2.23242c0.08662,-0.22054 0.20073,-0.46869 0.38086,-0.76367c0.57646,-0.94401 1.85434,-2.15204 4.28516,-3.17187zM78.00391,81.89453c-0.01868,0.34563 0.05266,0.69019 0.20703,1l0.75781,1.51758l-43,6.14258c0.90643,-1.67635 2.28,-2.88555 4.35938,-3.60938c0.01247,-0.00496 0.02485,-0.01017 0.03711,-0.01562c0.32235,0.09556 0.6636,0.10833 0.99219,0.03711c9.2519,-1.68216 23.22215,-4.68752 36.64648,-5.07227z"></path></g></g><g fill="#4255ff" fill-rule="nonzero" stroke="none" stroke-width="1" stroke-linecap="butt" stroke-linejoin="miter" stroke-miterlimit="10" stroke-dasharray="" stroke-dashoffset="0" font-family="none" font-weight="none" font-size="none" text-anchor="none" style="mix-blend-mode: normal"><g><path d="M23.93,281.375v18.16c-1.68667,2.02 -4.07,3.58667 -7.15,4.7c-3.08667,1.12 -6.50333,1.68 -10.25,1.68v0c-3.94,0 -7.39333,-0.86 -10.36,-2.58c-2.97333,-1.72 -5.26667,-4.21667 -6.88,-7.49c-1.61333,-3.26667 -2.44,-7.11 -2.48,-11.53v0v-3.09c0,-4.54 0.76333,-8.47333 2.29,-11.8c1.53333,-3.32 3.74333,-5.86 6.63,-7.62c2.88667,-1.76 6.26667,-2.64 10.14,-2.64v0c5.39333,0 9.61333,1.28333 12.66,3.85c3.04,2.57333 4.84,6.32 5.4,11.24v0h-9.12c-0.42,-2.60667 -1.34333,-4.51333 -2.77,-5.72c-1.42667,-1.20667 -3.39,-1.81 -5.89,-1.81v0c-3.18667,0 -5.61333,1.19667 -7.28,3.59c-1.66667,2.4 -2.51,5.96333 -2.53,10.69v0v2.91c0,4.76667 0.90667,8.37 2.72,10.81c1.81333,2.43333 4.47,3.65 7.97,3.65v0c3.52,0 6.03,-0.75 7.53,-2.25v0v-7.84h-8.53v-6.91zM29.53,288.475v-0.41c0,-3.35333 0.64333,-6.34333 1.93,-8.97c1.29333,-2.62 3.15333,-4.65 5.58,-6.09c2.42667,-1.44 5.24667,-2.16 8.46,-2.16v0c4.56,0 8.28333,1.39667 11.17,4.19c2.88667,2.79333 4.49667,6.58667 4.83,11.38v0l0.06,2.31c0,5.18667 -1.45,9.34667 -4.35,12.48c-2.89333,3.14 -6.77667,4.71 -11.65,4.71c-4.87333,0 -8.76333,-1.56333 -11.67,-4.69c-2.90667,-3.12667 -4.36,-7.37667 -4.36,-12.75zM38.56,288.725v0c0,3.20667 0.60333,5.66 1.81,7.36c1.20667,1.69333 2.93667,2.54 5.19,2.54v0c2.18667,0 3.89333,-0.83667 5.12,-2.51c1.23333,-1.68 1.85,-4.36333 1.85,-8.05v0c0,-3.14667 -0.61667,-5.58333 -1.85,-7.31c-1.22667,-1.72667 -2.95333,-2.59 -5.18,-2.59v0c-2.21333,0 -3.92333,0.85667 -5.13,2.57c-1.20667,1.72 -1.81,4.38333 -1.81,7.99zM95.84,305.285h-9.13c-0.41333,-0.81333 -0.71333,-1.82333 -0.9,-3.03v0c-2.18667,2.44 -5.03,3.66 -8.53,3.66v0c-3.31333,0 -6.06,-0.96 -8.24,-2.88c-2.17333,-1.91333 -3.26,-4.33 -3.26,-7.25v0c0,-3.58 1.32667,-6.33 3.98,-8.25c2.66,-1.91333 6.5,-2.88333 11.52,-2.91v0h4.15v-1.93c0,-1.56667 -0.4,-2.81667 -1.2,-3.75c-0.8,-0.94 -2.06667,-1.41 -3.8,-1.41v0c-1.52,0 -2.71333,0.36333 -3.58,1.09c-0.86,0.73333 -1.29,1.73333 -1.29,3v0h-9.03c0,-1.95333 0.60333,-3.76333 1.81,-5.43c1.20667,-1.66667 2.91333,-2.97667 5.12,-3.93c2.21333,-0.94667 4.69333,-1.42 7.44,-1.42v0c4.16667,0 7.47333,1.04667 9.92,3.14c2.45333,2.09333 3.68,5.03667 3.68,8.83v0v14.66c0.02,3.20667 0.46667,5.63333 1.34,7.28v0zM79.25,299.005v0c1.33333,0 2.56,-0.29667 3.68,-0.89c1.12667,-0.59333 1.96,-1.39 2.5,-2.39v0v-5.81h-3.37c-4.52,0 -6.92667,1.56 -7.22,4.68v0l-0.03,0.53c0,1.12667 0.39667,2.05667 1.19,2.79c0.78667,0.72667 1.87,1.09 3.25,1.09zM110.96,257.285v48h-9.06v-48zM128.37,259.785v37.97h19.91v7.53h-29.28v-45.5zM168.62,305.915v0c-4.96,0 -8.99667,-1.52333 -12.11,-4.57c-3.11333,-3.04 -4.67,-7.09 -4.67,-12.15v0v-0.88c0,-3.39333 0.65667,-6.43 1.97,-9.11c1.31333,-2.67333 3.17333,-4.73667 5.58,-6.19c2.40667,-1.44667 5.15,-2.17 8.23,-2.17v0c4.62667,0 8.26667,1.46 10.92,4.38c2.66,2.91333 3.99,7.04667 3.99,12.4v0v3.69h-21.53c0.28667,2.20667 1.16667,3.97667 2.64,5.31c1.46667,1.33333 3.32333,2 5.57,2v0c3.48,0 6.2,-1.26 8.16,-3.78v0l4.44,4.97c-1.35333,1.92 -3.18667,3.41667 -5.5,4.49c-2.31333,1.07333 -4.87667,1.61 -7.69,1.61zM167.59,278.165v0c-1.79333,0 -3.24667,0.60333 -4.36,1.81c-1.11333,1.20667 -1.82667,2.93667 -2.14,5.19v0h12.56v-0.72c-0.04,-2 -0.58,-3.54667 -1.62,-4.64c-1.04667,-1.09333 -2.52667,-1.64 -4.44,-1.64zM216.37,305.285h-9.12c-0.42,-0.81333 -0.72333,-1.82333 -0.91,-3.03v0c-2.18667,2.44 -5.03,3.66 -8.53,3.66v0c-3.31333,0 -6.06,-0.96 -8.24,-2.88c-2.17333,-1.91333 -3.26,-4.33 -3.26,-7.25v0c0,-3.58 1.32667,-6.33 3.98,-8.25c2.66,-1.91333 6.5,-2.88333 11.52,-2.91v0h4.15v-1.93c0,-1.56667 -0.4,-2.81667 -1.2,-3.75c-0.8,-0.94 -2.06667,-1.41 -3.8,-1.41v0c-1.52,0 -2.71,0.36333 -3.57,1.09c-0.86667,0.73333 -1.3,1.73333 -1.3,3v0h-9.03c0,-1.95333 0.60333,-3.76333 1.81,-5.43c1.20667,-1.66667 2.91667,-2.97667 5.13,-3.93c2.20667,-0.94667 4.68333,-1.42 7.43,-1.42v0c4.16667,0 7.47333,1.04667 9.92,3.14c2.45333,2.09333 3.68,5.03667 3.68,8.83v0v14.66c0.02,3.20667 0.46667,5.63333 1.34,7.28v0zM199.78,299.005v0c1.33333,0 2.56,-0.29667 3.68,-0.89c1.12667,-0.59333 1.96,-1.39 2.5,-2.39v0v-5.81h-3.37c-4.52,0 -6.92667,1.56 -7.22,4.68v0l-0.03,0.53c0,1.12667 0.39667,2.05667 1.19,2.79c0.78667,0.72667 1.87,1.09 3.25,1.09zM241.09,271.255l-0.13,8.69c-1.22667,-0.16667 -2.31,-0.25 -3.25,-0.25v0c-3.41333,0 -5.65,1.15667 -6.71,3.47v0v22.12h-9.04v-33.81h8.54l0.25,4.03c1.80667,-3.10667 4.31667,-4.66 7.53,-4.66v0c1,0 1.93667,0.13667 2.81,0.41zM245.12,271.475h8.5l0.28,3.9c2.42,-3.02 5.66,-4.53 9.72,-4.53v0c3.58667,0 6.25333,1.05333 8,3.16c1.75333,2.10667 2.65,5.25333 2.69,9.44v0v21.84h-9.03v-21.62c0,-1.92 -0.41667,-3.31333 -1.25,-4.18c-0.83333,-0.86 -2.22,-1.29 -4.16,-1.29v0c-2.54,0 -4.44667,1.08333 -5.72,3.25v0v23.84h-9.03z"></path></g></g></g></svg>