<svg enable-background="new 0 0 2773.249 2545.392" height="2546" viewBox="0 0 2773.249 2545.392" width="2774" xmlns="http://www.w3.org/2000/svg" xmlns:xlink="http://www.w3.org/1999/xlink"><clipPath id="a"><path d="m-2798.684 2269.768c-273.003-164.075-215.552-591.715 118.468-1028.168 459.574-600.511 1236.214-1046.017 1685.106-888.511 523.915 183.83 124.854 890.557 235.915 1038.638 45.957 61.277 231.28 114.326 346.213 196.906 220.596 158.498 238.346 543.603-330.894 768.2 569.872 557.617-1780.085 689.362-1590.127 238.311-430.258 100.88-456.511-118.822-323.223-184.694-194.322 15.839-246.167-100.664-141.458-140.682z"/></clipPath><linearGradient id="b"><stop offset="0" stop-color="#fff"/><stop offset=".5764" stop-color="#fff" stop-opacity=".5"/><stop offset=".9305" stop-color="#fff" stop-opacity="0"/></linearGradient><linearGradient id="c" gradientUnits="userSpaceOnUse" x1="-1429.4066" x2="-1429.4066" xlink:href="#b" y1="2883.3079" y2="1337.8167"/><linearGradient id="d"><stop offset="0" stop-color="#fff" stop-opacity="0"/><stop offset=".5139" stop-color="#fff" stop-opacity=".5"/><stop offset="1" stop-color="#fff" stop-opacity="0"/></linearGradient><linearGradient id="e" gradientUnits="userSpaceOnUse" x1="-1500.6416" x2="-1500.6416" xlink:href="#d" y1="2685.6104" y2="1649.9513"/><clipPath id="f"><path d="m244.762 1948.311c-273.003-164.076-210.807-585.812 123.213-1022.265 459.575-600.511 1231.469-1051.92 1680.361-894.414 523.915 183.83 124.854 890.557 235.915 1038.638 45.958 61.277 231.28 114.326 346.213 196.906 220.596 158.498 238.346 543.603-330.894 768.2 569.872 557.617-1780.085 689.362-1590.127 238.311-430.258 100.88-456.511-118.822-323.223-184.694-194.322 15.838-246.167-100.664-141.458-140.682z"/></clipPath><linearGradient id="g" gradientTransform="matrix(.9787 0 0 .9791 347.5147 13608.2744)" gradientUnits="userSpaceOnUse" x1="1111.3398" x2="1082.2397" y1="-14081.2168" y2="-11042.5273"><stop offset=".0214" stop-color="#94cbff"/><stop offset=".1579" stop-color="#a8d4ff"/><stop offset=".3141" stop-color="#b9dcff"/><stop offset=".4321" stop-color="#bfdfff"/><stop offset=".742" stop-color="#dbdade"/><stop offset=".8404" stop-color="#e5d9d9"/></linearGradient><linearGradient id="h"><stop offset="0" stop-color="#ffca7f" stop-opacity=".3"/><stop offset=".5764" stop-color="#ffca7f" stop-opacity=".1"/><stop offset=".9876" stop-color="#ffca7f" stop-opacity="0"/></linearGradient><linearGradient id="i" gradientUnits="userSpaceOnUse" x1="1336.7865" x2="1850.4391" xlink:href="#h" y1="1376.4985" y2="2140.4763"/><linearGradient id="j" gradientUnits="userSpaceOnUse" x1="1570.7094" x2="1570.7094" xlink:href="#b" y1="2561.8503" y2="1016.3592"/><linearGradient id="k"><stop offset=".0883" stop-color="#94cbff" stop-opacity="0"/><stop offset=".2526" stop-color="#baddff" stop-opacity=".2081"/><stop offset=".4169" stop-color="#d8ecff" stop-opacity=".4162"/><stop offset=".5782" stop-color="#eef7ff" stop-opacity=".6203"/><stop offset=".7339" stop-color="#fbfdff" stop-opacity=".8175"/><stop offset=".8781" stop-color="#fff"/></linearGradient><linearGradient id="l" gradientUnits="userSpaceOnUse" x1="2078.4766" x2="2078.4766" xlink:href="#k" y1="273.0678" y2="56.1507"/><linearGradient id="m" gradientUnits="userSpaceOnUse" x1="1000.08" x2="1000.08" xlink:href="#k" y1="549.0305" y2="370.0323"/><linearGradient id="n" gradientUnits="userSpaceOnUse" x1="1542.8044" x2="1542.8044" xlink:href="#d" y1="2364.1528" y2="1328.4938"/><linearGradient id="o" gradientUnits="userSpaceOnUse" x1="1208.2369" x2="1435.1471" y1="2193.8552" y2="2193.8552"><stop offset=".1313" stop-color="#442a27"/><stop offset=".7734" stop-color="#442a27" stop-opacity=".0203"/><stop offset=".7867" stop-color="#442a27" stop-opacity="0"/></linearGradient><linearGradient id="p" gradientUnits="userSpaceOnUse" x1="1377.3574" x2="1657.1874" y1="2128.2407" y2="2128.2407"><stop offset="0" stop-color="#442a27"/><stop offset=".6482" stop-color="#442a27" stop-opacity="0"/></linearGradient><linearGradient id="q"><stop offset="0" stop-color="#fff"/><stop offset="1" stop-color="#fff" stop-opacity="0"/></linearGradient><radialGradient id="r" cx="1983.996" cy="1188.1005" gradientTransform="matrix(1 0 0 .4301 0 1774.7429)" gradientUnits="userSpaceOnUse" r="679.6719" xlink:href="#q"/><radialGradient id="s" cx="1811.3804" cy="924.2618" gradientTransform="matrix(1 0 0 .411 0 1590.7511)" gradientUnits="userSpaceOnUse" r="679.6719" xlink:href="#q"/><linearGradient id="t" gradientUnits="userSpaceOnUse" x1="1752.6438" x2="194.9563" y1="1707.5306" y2="2777.3328"><stop offset=".00000013319" stop-color="#b0c688"/><stop offset=".144" stop-color="#acc285"/><stop offset=".298" stop-color="#a1b57b"/><stop offset=".4367" stop-color="#8ea06b"/><stop offset=".6587" stop-color="#7d8d5c"/></linearGradient><linearGradient id="u" gradientUnits="userSpaceOnUse" x1="107.8032" x2="796.2619" y1="1985.4463" y2="1698.0409"><stop offset=".00000013852" stop-color="#2a351c"/><stop offset="1" stop-color="#b0c688" stop-opacity=".3"/></linearGradient><linearGradient id="v"><stop offset="0" stop-color="#b0c688"/><stop offset=".4271" stop-color="#bad090"/><stop offset="1" stop-color="#cfe5a1"/></linearGradient><linearGradient id="w" gradientTransform="matrix(.965 .2623 -.2623 .965 -249.7145 651.315)" gradientUnits="userSpaceOnUse" x1="1176.8828" x2="1610.3353" xlink:href="#v" y1="1550.4183" y2="1180.9839"/><linearGradient id="x" gradientUnits="userSpaceOnUse" x1="538.4984" x2="1925.0698" xlink:href="#v" y1="2182.3567" y2="2182.3567"/><linearGradient id="y" gradientUnits="userSpaceOnUse" x1="880.4062" x2="906.0468" xlink:href="#v" y1="2281.5288" y2="2281.5288"/><linearGradient id="z" gradientUnits="userSpaceOnUse" x1="855.0678" x2="869.0743" xlink:href="#v" y1="2293.9998" y2="2293.9998"/><linearGradient id="A" gradientUnits="userSpaceOnUse" x1="932.1227" x2="941.4044" xlink:href="#v" y1="2324.5249" y2="2324.5249"/><linearGradient id="B" gradientUnits="userSpaceOnUse" x1="596.1085" x2="610.1151" xlink:href="#v" y1="2032.1783" y2="2032.1783"/><linearGradient id="C" gradientUnits="userSpaceOnUse" x1="982.8445" x2="992.1261" xlink:href="#v" y1="2065.3921" y2="2065.3921"/><linearGradient id="D" gradientUnits="userSpaceOnUse" x1="711.9416" x2="737.5822" xlink:href="#v" y1="1995.9972" y2="1995.9972"/><linearGradient id="E" gradientTransform="matrix(-1 0 0 1 -1394.2677 0)" gradientUnits="userSpaceOnUse" x1="-3761.6321" x2="-3761.6321" xlink:href="#k" y1="938.1353" y2="667.0753"/><linearGradient id="F"><stop offset=".1766" stop-color="#fff"/><stop offset=".6706" stop-color="#fff" stop-opacity="0"/></linearGradient><linearGradient id="G" gradientTransform="matrix(1.5329 -.2667 -.1884 1.2868 300.6888 64.9365)" gradientUnits="userSpaceOnUse" x1="685.1324" x2="1628.1095" xlink:href="#F" y1="91.6043" y2="1785.6361"/><linearGradient id="H" gradientTransform="matrix(.8756 .1933 .1087 1.068 -110.937 323.0498)" gradientUnits="userSpaceOnUse" x1="1447.8121" x2="2390.7893" xlink:href="#F" y1="-347.4616" y2="1346.5702"/><linearGradient id="I" gradientTransform="matrix(.5772 .3028 .418 .9226 428.5068 1.0605)" gradientUnits="userSpaceOnUse" x1="2626.209" x2="3569.186" xlink:href="#F" y1="-1033.8873" y2="660.1445"/><linearGradient id="J" gradientUnits="userSpaceOnUse" x1="316.7538" x2="957.0374" xlink:href="#h" y1="624.9653" y2="1577.287"/><linearGradient id="K" gradientUnits="userSpaceOnUse" x1="71.7016" x2="573.7142" xlink:href="#h" y1="1091.4008" y2="1838.0659"/><linearGradient id="L" gradientUnits="userSpaceOnUse" x1="254.8942" x2="624.6285" y1="858.8891" y2="1523.1063"><stop offset=".2088" stop-color="#fff"/><stop offset=".6706" stop-color="#fff" stop-opacity="0"/></linearGradient><linearGradient id="M" gradientUnits="userSpaceOnUse" x1="528.3842" x2="787.1933" xlink:href="#F" y1="415.8748" y2="880.8181"/><path clip-path="url(#a)" d="m-2936.811 1210.962h3014.809v1672.346h-3014.809z" fill="url(#c)"/><path clip-path="url(#a)" d="m-3008.046 1621.855h3014.809v1063.755h-3014.809z" fill="url(#e)"/><g clip-path="url(#f)"><path d="m416.975 2039.046c-471-143-453.172-596.985-53.745-1118.903 459.574-600.511 1236.214-1046.017 1685.106-888.511 523.915 183.83 124.854 890.557 235.915 1038.638 45.958 61.277 231.28 114.326 346.213 196.906 220.596 158.498 238.346 543.603-330.894 768.2 569.872 557.617-1780.085 689.362-1590.127 238.311-483.468 90.359-440.468-127.641-292.468-234.641z" fill="url(#g)"/></g><g clip-path="url(#f)"><path d="m2570.21 1684.566s-15.26 48.57-79.08 105.84c-98.73 88.59-313.66 198-768.05 180.63-45.99-1.76-89.52-4.72-130.74-8.73-63.85-6.22-122.14-14.95-175.3-25.64-.36-.07-.71-.14-1.07-.21-.14-.03-.29-.06-.43-.09-76.03-15.35-141.59-34.68-198.07-56.31-292.17-111.82-341.51-284.85-341.51-284.85s281.82-317.62 293.06-317.62c10.21 0 71.49 60.26 71.49 60.26.01-.01.01-.01.01-.01.69-.74 56.56-82.25 68.41-92.93 8.53-7.68 54.62-29.1 57.69-30.63.01-.01.01-.01.01-.01 4.11-2.06 37.28 27.58 37.28 27.58s47.12-77.19 95.42-155.6c49.19-79.86 99.62-160.979 102.71-163.04 2.21-1.47 28.59-16.34 28.59-16.34s22.47-40.85 30.64-46.98 59.03-40.85 61.81-40.85c2.79 0 40.32 74.3 40.32 74.3s59.35 15.19 64.82 23.221c30.62 45 122.77 188.95 126.67 188.95 4.6 0 42.89 12.25 49.02 15.32 6.13 3.06 170.04 186.89 170.04 186.89s71.53-55.99 85.79-53.62c2.47.42 134.4 88.19 153.19 102.64 19.92 15.319 157.28 327.829 157.28 327.829z" fill="#d6d6d6"/><path d="m2055.23 1391.206c-3.113-1.282-404.037 373.977-434.06 366.101-2.431-.638 239.386-258.814 252.528-275.463 23.853-33.65 61.673-97.897 59.915-99.404-2.383-2.042-21.613.336-23.153 4.935-1.53 4.6-21.44 29.11-26.04 29.11-4.59 0 10.72-21.45 12.26-27.58 1.53-6.13 27.57-41.36 24.51-45.95-3.07-4.6-36.77-24.52-44.43-22.98-7.66 1.53-36.76 29.1-36.76 29.1s-21.962 32.684-26.91 31.131c-3.592-1.127 1.867-16.932-.669-23.469-.651-1.678-52.873 68.562-58.201 61.268-4.097-5.608 29.1-76.59 29.1-76.59s44.42-107.23 35.23-111.83c-9.19-4.59-24.51-67.4-29.11-68.93-4.59-1.53-59.74 52.08-59.74 52.08s6.13-21.44 1.53-19.91-113.36 107.23-104.17 87.32c9.19-19.92 124.08-148.6 124.08-148.6l-15.31-88.85-19.92 32.17-40.27 21.44c.53-.61 17.39-20.05 23.71-29.1 6.43-9.189 5.84-113.359 0-121.02-5.83-7.66-18.67 10.72-23.27 12.25-4.59 1.54 27.58-70.46 21.45-70.46s25.55-68.94 25.55-68.94c2.79 0 40.32 74.3 40.32 74.3s59.35 15.19 64.82 23.221c30.62 45 122.77 188.95 126.67 188.95 4.6 0 42.89 12.25 49.02 15.32 6.13 3.06 170.04 186.89 170.04 186.89s-110.044 87.064-118.72 83.49z" fill="#aaa"/><path d="m2672.336 1662.611s-31.779 20.715-95.599 77.985l-38.884-40.716s-46.837 102.242-47.814 92.944c-.48-4.565 35.231-104.184 35.231-104.184l-52.593-53.093s-4.41 28.906-11.186 23.907c-3.528-2.603-.561-21.863-2.601-36.162-2.04-14.3-94.98-79.145-101.11-83.236-6.03-4.02-25.188 18.895-28.58 16.33-3.535-2.674 21.233-31.937 15.23-38.8-7.178-8.207-29.54-56.71-29.54-56.71s-49.02 36.29-57.02 38.33 73.594-73.199 79.49-77.62c10.21-7.656 11.232-29.869 0-36.76-10.595-6.5-26.56-49.02-36.77-49.02s-30.64 20.42-40.85 24.51c-10.21 4.08 24.51-38.81 28.6-46.98 4.08-8.17-19.91-53.92-28.6-59.24 2.47.42 134.4 88.19 153.19 102.64 19.92 15.32 259.406 305.875 259.406 305.875z" fill="#a0a0a0"/><path d="m1240.51 1337.846c-.76 1.24-62.33 100.85-66.9 100.85-4.59 0 40.6-75.83 38.3-77.36s-13.79 16.08-18.38 17.62c-4.6 1.53 9.19-26.81 9.19-30.64s-7.66-26.05-9.96-26.05-11.49 13.03-15.57 13.03 8.17-17.88 8.17-24c0-6.13-16.34-18.39-16.34-33.71 10.21 0 71.49 60.26 71.49 60.26z" fill="#aaa"/><path d="m1403.91 1241.846s-70.47 77.62-75.57 80.68c-5.11 3.06 28.59-55.15 23.13-55.15s17.72-26.55 15.16-27.57c-2.56-1.03-11.74 2.04-14.8 0-3.03-2.02 14.29-24.87 14.79-25.53.01-.01.01-.01.01-.01 4.11-2.06 37.28 27.58 37.28 27.58z" fill="#aaa"/><path d="m875.96 1595.206s160.291-157.276 170.504-145.021-126.638 196.085-118.468 198.128 169.532-131.613 175.66-126.062-16.34 23.277-8.17 26.669c8.17 3.393 140.943-106.224 145.025-99.416s-128.685 155.915-132.77 176.34 132.862-77.077 132.862-77.077-163.5 226.455-141.032 241.638 181.787-103.285 185.872-95.115-12.255 24.511-12.255 24.511 73.532-57.191 83.745-57.191c9.401 0-65.532 176.622-7.277 194.042 37.567 11.234 135.799-71.924 142.086-65.703 14.029 13.883-251.23 566.129-251.23 566.129l-727.153-384.207z" fill="#e2e2e2"/><path d="m2662.94 2268.226-405.62 261.77-143.95.67-425.68 1.99-637.85 2.98 303.55-470.66 76.39-118.45s173.67-170.99 306.78-304.12c0 0 .01-.01.03-.03 79.2-79.2 144.03-145 149.36-153.38 14.3-22.47 83.75-124.86 96-130.86 12.26-5.99 53.11-16.21 61.28-14.16 8.17 2.04 73.53 107.16 79.66 116.9 6.13 9.73 28.6 77.14 34.72 79.18 6.13 2.04 208.34 128.68 216.51 138.9 8.17 10.21 151.15 140.93 151.15 140.93z" fill="#d6d6d6"/><path d="m2662.94 1953.183-121.03 90.97s-188.988-188.28-194.158-187.688c-9.241 1.059-69.622 61.403-76.673 54.391-5.211-5.182 36.771-84.602 35.064-94.455-.845-4.881-60.19-58.811-65.411-66.51-6.23-9.186-18.268-26.003-26.952-22.424-5.224 2.153-16.85 29.1-19.91 26.04-3.07-3.07 1.087-38.578 0-42.47-2.044-7.319-44.43-89.28-50.55-90.81-6.13-1.53-65.88 49.02-72 45.96-6.13-3.06 47.524-58.921 39.82-68.94-5.102-6.635-48.166-59.912-57.26-52.716-2.683 2.123-89.886 88.337-97.461 86.426-5.403-1.364 87.382-102.073 71.61-101.11-23.273 1.421 29.5-56.68 29.5-61.28 0-4.59-21.45-15.32-22.98-19.37s13.79-64.88 8.68-69.48c-5.11-4.59-36.26 27.58-43.91 24.51-7.66-3.06 43.91-60.25 43.91-60.25 8.17 2.04 73.53 107.16 79.66 116.9 6.13 9.73 28.6 77.14 34.72 79.18 6.13 2.04 208.34 128.68 216.51 138.9 8.171 10.209 288.821 274.226 288.821 274.226z" fill="#a0a0a0"/><path d="m2866.38 1711.036-18.35 39.03-34.76 73.91-150.33 129.207-171.81-162.777c50.43-93.05 140.36-283.03 144.44-293.06 4.09-10.03 34.72-36.95 36.77-36.47 0 0 0 .01.01.021.88.82 114.39 107.78 120.5 111.84 6.12 4.089 73.53 138.299 73.53 138.299z" fill="#c7c7c7"/><path d="m2866.38 1711.036-18.35 39.03-28.37-40.99s-18.39 3.07-19.88 3.83c-1.5.77-27.61 27.58-30.68 27.69-3.06.11 20.68-36.88 19.92-41.35-.77-4.48 11.49-19.27 10.72-24.64-.77-5.36-41.36-64.34-43.66-65.1-2.3-.77-25.28 17.62-27.57 18.19-2.3.58 12.25-31.98 12.25-35.04 0-3.07-19.15-1.53-18.38-4.59.76-3.05-22.21-32.18-23.75-34.48-1.53-2.29-30.63 35.24-35.23 34.47-4.6-.76 26.81-44.42 27.57-49.79.77-5.36-3.83-35.23-5.36-37.53s-13.27 6.9-13.27 6.9 7.15-12.26 6.41-16.86c-.72-4.52-6.23-29.11-6.4-29.88.88.82 114.39 107.78 120.5 111.84 6.12 4.09 73.53 138.3 73.53 138.3z" fill="#a0a0a0"/><path d="m1630.63 906.866s-13.272 37.277-15.825 35.745 2.102-27.98 2.102-27.98z" fill="#aaa"/><path d="m2113.37 2530.666c-87.61 44.52-173.8 80.71-173.8 80.71l-251.88-78.72-257.91-80.6-76.39-387.08 76.39-118.45s173.67-170.99 306.78-304.12c0 0 .01-.01.03-.03 1.42-1.1 46.83-36.33 52.85-36.89 6.13-.58-134.81 142.08-125.61 151.94 9.19 9.87 85.78-53.98 90.38-50.4 4.59 3.58-145.53 186.43-140.17 196.11 5.36 9.69 146.3-92.95 153.96-89.89 7.66 3.07-12.26 19.92-9.2 26.05 3.07 6.12 79.66-70.47 85.79-64.34 6.13 6.12-163.35 225.19-121.51 275.74 41.85 50.55 188.92-86.71 195.04-77.82 6.13 8.88-35.23 45.65-33.7 50.25 1.53 4.59 28.82-18.39 34.32-13.79 5.51 4.59-60.82 150.13 37.45 185.36s216.23-151.66 226.95-137.87c10.73 13.78-7.65 36.76 0 41.36 7.66 4.59 85.79-102.64 94.98-101.11 9.2 1.53-82.72 151.66-73.53 163.92 9.19 12.25 42.9-35.24 59.75-29.11s-21.45 196.6 27.57 253.79c26.3 30.69-77.07 93.43-178.54 144.99z" fill="#e2e2e2"/><path d="m2504.31 1460.896c-119.59 482.229-555.32 839.66-1074.53 839.66-341.3 0-646.53-154.45-849.6-397.28l295.78-308.07s281.82-317.62 293.06-317.62c10.21 0 71.49 60.26 71.49 60.26.01-.01.01-.01.01-.01.69-.74 56.56-82.25 68.41-92.93 8.53-7.68 54.62-29.1 57.69-30.63.01-.01.01-.01.01-.01 4.11-2.06 37.28 27.58 37.28 27.58s47.12-77.19 95.42-155.6c49.19-79.86 99.62-160.979 102.71-163.04.55-.359 2.57-1.54 5.3-3.12 2.73-1.569 6.17-3.529 9.57-5.46h.01c6.96-3.95 13.71-7.76 13.71-7.76s22.47-40.85 30.64-46.98 59.03-40.85 61.81-40.85c2.79 0 40.32 74.3 40.32 74.3s59.35 15.19 64.82 23.221c30.62 45 122.77 188.95 126.67 188.95 4.6 0 42.89 12.25 49.02 15.32 6.13 3.06 170.04 186.89 170.04 186.89s71.53-55.99 85.79-53.62c2.47.42 134.4 88.19 153.19 102.64 7.5 5.769 46.13 50.549 91.38 104.159z" fill="url(#i)"/></g><g clip-path="url(#f)"><path d="m19.975 889.504h3101.469v1672.346h-3101.469z" fill="url(#j)"/></g><g clip-path="url(#f)"><path d="m2297.399 182.058s155.306 99.66-272.042 90.402c-212.135-4.596-198.756-68.724-188.554-88.814 15.837-31.186 110.427-71.016 230.298-46.525 0 0-9.573-86.789 121.15-80.662 149.967 7.031 109.148 125.599 109.148 125.599z" fill="url(#l)" opacity=".4"/></g><g clip-path="url(#f)"><path d="m634.336 516.117s231.249 28.731 375.291 25.71c364.676-7.648 356.469-74.608 356.964-83.923 1.575-29.599-82.137-76.831-188.426-33.702 44.804-78.128-64.34-129.622-124.596-62.809-25.532-51.064-136.851-41.872-170.553 41.872-84.255-38.297-262.774 58.877-248.68 112.852z" fill="url(#m)" opacity=".4"/></g><g clip-path="url(#f)"><path d="m35.4 1300.398h3014.809v1063.755h-3014.809z" fill="url(#n)"/></g><g clip-path="url(#f)"><path d="m1657.187 1915.887s-117.845 237.759-128.057 437.929c-.536 10.506-443.86-219.38-443.86-219.38l83.979-227.72z" fill="#70443a"/><path d="m1530.55 2385.676-197.61-29.47-178.22-87.64 100.084-70.807s47.237 16.225 99.574 55.915c91.915 69.702 153.895 81.571 174.751 100.142.071 10.52.531 21.15 1.421 31.86z" fill="#633b35"/><path d="m1250.209 2048.412s48.087-32.555 184.938-27.448c-17.96 184.966-15.917 307.519-15.917 307.519l-123.953 38.807s-102.895-21.911-84.936-221.685c-8.751-12.277 39.868-97.193 39.868-97.193z" fill="url(#o)"/><path d="m1377.357 2003.717s142.979-92.936 279.83-87.83c-120.511 245.106-127.244 424.91-127.244 424.91l-107.517-18.203s-5.238-101.856 12.721-301.63c-8.752-12.277-57.79-17.247-57.79-17.247z" fill="url(#p)"/><path d="m1495.57 1938.611c39.83 199.915 14.635 255.592 6.894 242.042-6.29-11.009-16.085-17.617-15.319 3.83s13.021 61.277-6.128 147.83l7.66 5.362s14.454-43.659 6.894-144c-2.092-27.76 4.722 5.059 11.49 6.128 12.119 1.915 31.404-91.149 3.487-271.857z" fill="#5b3631"/><path d="m1555.826 1937.334s0 127.149 12.255 129.447 42.894-155.489 42.894-155.489h6.894s-24.511 154.724-48.255 160.851c-23.745 6.127-38.298-176.17-38.298-176.17z" fill="#5b3631" opacity=".6"/><path d="m1445.102 1958.44s30.298 78.979 24.17 146.383c-3.976 43.732-29.446 95.631-46.846 126.692.123-7.202.378-19.458.799-27.183 14.755-26.82 37.914-65.292 41.622-98.488 6.128-54.857-35.067-159.318-35.067-159.318z" fill="#4f3131"/><g fill="#5b3631"><path d="m1358.311 2056.64s12.919 62.226 10.621 102.055c-2.298 39.83-22.213 147.83-22.213 147.83l-11.489-14.553s25.787-97.277 26.043-132.51c.485-66.892-26.043-108-26.043-108z"/><path d="m1384.507 2280.993s14.298-34.213 15.83-60.255c1.532-26.043-.511-182.809 2.043-186.894s6.128 184.34 5.617 191.234-11.705 60-11.705 60z" opacity=".6"/></g></g><g clip-path="url(#f)"><ellipse cx="1983.996" cy="2285.775" fill="url(#r)" rx="940.596" ry="337.464"/><ellipse cx="1811.38" cy="1970.668" fill="url(#s)" rx="940.596" ry="322.498"/></g><g clip-path="url(#f)"><path d="m1861.937 2547.947c13.756-6.63 13.381-11.001-5.547-12.311-5.045-.349-10.13-.994-15.248-1.894-4.298-3.469-8.94-7.546-14.139-12.523 64.128-7.964 98.07-29.831 98.07-29.831-95.801 9.691-156.611-35.081-156.611-35.081 14.455 2.965 44.848 0 44.848 0-60.415-7.042-121.571-44.848-121.571-44.848 19.644 7.413 90.066 13.529 90.066 13.529-146.775-35.026-239.065-105.448-239.065-105.448 18.903 5.189 48.925 5.93 48.925 5.93-55.597-13.343-121.2-61.439-121.2-61.439 55.041 15.839 90.066-.272 90.066-.272s-52.816 3.336-84.506-13.343-89.51-31.134-89.51-31.134c6.115 0 30.578-5.004 30.578-5.004-18.903 1.668-62.269-14.455-62.269-14.455 35.026 0 80.059-11.675 80.059-11.675-70.051 13.343-131.764-25.019-131.764-25.019 23.351-3.335 53.373-15.416 53.373-15.416-31.407 7.863-53.01-3.064-131.313.313 221.401-127.906 260.035-126.831 152.178-144.308 57.709-18.99 194.96-53.09 271.912-84.515l.002.001c45.565-9.277 52.614.414 88.668 5.6-15.737-2.758-28.619-19.891-60.327-21.853 0 0 22.809-4.766 36.085-13.617-18.724 3.063-32 6.127-76.426-8.681 0 0 26.042 2.553 37.277-3.574 0 0-55.915-.255-108.255-21.958 0 0 10.468 2.553 18.638 1.021 0 0-16.596-2.808-28.851-9.702 0 0 32.425.255 55.149-16.851 0 0-52.13 17.097-108.511 3.063-58.468-14.553-92.129-20.226-92.129-20.226l.016.007c-96.08-17.918-220.37-28.424-373.336-20.159 10.896-2.865 29.516-19.118 28.938-23.112-23.654 14.089-43.788 20.519-57.957 23.55 1.757-3.302 5.999-11.346 5.787-14.699-15.575 15.319-41.378 18.806-49.035 19.515-52.65 4.874-106.461 12.281-160.584 23.376-399.828-95.231-661.786 45.96-661.786 45.96l-35.999 81.445-71.233 320.937 160.81 79.22 332.71 163.9 474.65 233.82s682.955-136.482 837.232-189.892c17.654 2.132 33.457 3.955 45.917 5.557-9.479-5.669-17.145-9.499-24.782-13.904z" fill="url(#t)"/><path d="m244.762 1948.311s79.079-35.301 296.008-3.99c0 0 40.758-65.199 263.651-123.415-121.786-27.572-373.786-80.423-443.488-76.593s-302.553 199.149-302.553 199.149z" fill="url(#u)"/><path d="m984.166 2516.398s-188.122-69.969-226.723-154.213c-23.398-51.064 16.787-105.464-12-141.447-27.574-34.468-219.83 32.17-237.661-5.802-7.537-16.051 70.128-44.26 46.017-50.309-29.902-7.502-179.442 40.234-243.89 73.37-105.202 54.088 59.395 173.346 59.395 173.346z" fill="url(#w)" opacity=".2"/><path d="m1925.07 2491.386s-12.35 2.58-27.12 5.86c-4.02.8-9.05 5.93-14.83 12.02-8.86 9.36-19.49 20.98-30.87 22.62-3.86.55-7.65 1.11-11.35 1.66-190.09 28.44-170.96 54.99-243.04 60.04-428.84 30.05-116.33-293.189-421.69-412.17-50.84-19.8-45.28-36.97 39.49-62.98 94.29-28.93 101.16-48.8 98.38-55.14-8.51-19.41-140.48 16.26-136.2-11.67 3.43-22.38 86.67-64.25 89.22-89.78 6.62-66.17-215.49-91.92-489.69-50.76-167.59 25.16-226.23 51.78-236.96 43.61-17.01-12.94 80.18-87.83 264.01-133.79 54.12-11.1 107.93-18.5 160.58-23.38 7.66-.7 33.46-4.19 49.04-19.51.21 3.35-4.03 11.4-5.79 14.7 14.17-3.03 34.3-9.46 57.96-23.55.58 3.99-18.04 20.25-28.94 23.11 152.97-8.26 277.26 2.24 373.34 20.16 1.04.17 34.55 5.89 92.11 20.22 55.76 13.87 107.35-2.69 108.49-3.06-22.72 17.1-55.13 16.84-55.13 16.84 12.26 6.9 28.85 9.71 28.85 9.71-7.93 1.49-18.04-.88-18.61-1.01 52.33 21.69 108.23 21.94 108.23 21.94-11.24 6.13-37.28 3.58-37.28 3.58 44.43 14.81 57.7 11.74 76.43 8.68-13.28 8.85-36.09 13.61-36.09 13.61 31.71 1.97 44.59 19.1 60.33 21.86-25.22-3.63-36.25-9.46-56.2-9.46-8.57 0-18.78 1.07-32.47 3.86-76.95 31.42-214.2 65.52-271.91 84.51 23.2 2.37 39 5.82 48.79 10.13 3.08 1.35 5.57 2.79 7.5 4.3 12.36 13.2-48.15 38-192.98 120.96-5.97 3.15-11.21 6.14-15.49 8.92 78.28-3.38 99.9 7.55 131.29-.3-.92.37-30.36 12.12-53.35 15.4 0 0 61.63 38.31 131.63 25.05-2.67.69-45.99 11.65-79.93 11.65 0 0 43.26 16.08 62.2 14.46-1.44.3-24.58 4.99-30.5 4.99 0 0 57.82 14.46 89.51 31.14s84.5 13.34 84.5 13.34-35.02 16.11-90.06.27c0 0 65.6 48.1 121.2 61.44 0 0-30.01-.74-48.91-5.92 1.43 1.09 93.42 70.69 239.05 105.44 0 0-70.41-6.11-90.06-13.52.95.58 61.62 37.86 121.56 44.84 0 0-30.39 2.97-44.85 0 0 0 60.81 44.77 156.61 35.08z" fill="url(#x)" opacity=".5"/><path d="m906.047 2280.876c0 3.835-1.704 8.25-8.784 8.25s-16.856-4.415-16.856-8.25 5.74-6.944 12.82-6.944 12.82 3.109 12.82 6.944z" fill="url(#y)" opacity=".5"/><path d="m868.827 2294.172c0 2.779 1.633 6.235-3.497 6.235-5.129 0-10.263-2.854-10.263-5.633 0-2.778 1.148-7.181 6.278-7.181s7.482 3.8 7.482 6.579z" fill="url(#z)" opacity=".5"/><path d="m941.241 2324.639c0 1.841 1.082 4.132-2.317 4.132s-6.801-1.891-6.801-3.733c0-1.841.761-4.758 4.16-4.758s4.958 2.518 4.958 4.359z" fill="url(#A)" opacity=".5"/><path d="m609.868 2032.35c0 2.778 1.633 6.235-3.497 6.235-5.129 0-10.263-2.854-10.263-5.633s1.148-7.181 6.278-7.181c5.13.001 7.482 3.801 7.482 6.579z" fill="url(#B)" opacity=".5"/><path d="m991.962 2065.506c0 1.841 1.082 4.132-2.317 4.132s-6.801-1.892-6.801-3.733.761-4.759 4.16-4.759c3.4 0 4.958 2.519 4.958 4.36z" fill="url(#C)" opacity=".5"/><path d="m737.582 1995.344c0 3.835-1.704 8.25-8.784 8.25s-16.856-4.415-16.856-8.25 5.74-6.944 12.82-6.944 12.82 3.109 12.82 6.944z" fill="url(#D)" opacity=".5"/></g><g clip-path="url(#f)"><path d="m2797.483 835.286s-237.509 97.295-381.488 92.074c-497.617-18.044-488.17-121.436-475.915-146.968 19.491-40.607 87.83-57.192 148.085-42.713-1.021-58.393 87.041-90.053 130.723-36.946 41.872-129.702 290.042-128.681 329.913 21.702 84.257-38.298 262.776 58.877 248.682 112.851z" fill="url(#E)" opacity=".4"/></g><g clip-path="url(#f)"><path d="m2379.486 2016.805-1221.093-1985.618 239.582-147.336 1221.093 1985.619z" fill="url(#G)" opacity=".1"/><path d="m2095.53 2277.818-1076.594-2067.533 118.619-61.767 1076.594 2067.534z" fill="url(#H)" opacity=".1"/><path d="m2763.074 1731.715-1316.665-1923.576 49.016-33.551 1316.665 1923.576z" fill="url(#I)" opacity=".1"/></g><path d="m791.125 1788.251c-51.064-.511-77.086-13.3-99.6-23.584 0 0 14.854 27.901 35.535 55.8-35.234 0-80.426-17.175-96.496-28.058-28.355 13.181-81.972 23.787-142.299 27.678-.474.031-.92.25-1.39.38.3-.18.59-.36.89-.54 27.25-16.45 52.68-34.23 67.99-59.45-44.17 23.54-86.87 39.39-126.65 39.99 7.1-7.26 14.07-14.55 20.77-21.89 27.06-29.6 49.92-60.03 60.53-92.92.31-.98.62-1.95.91-2.93l-2.16 1.6-57.83 42.83c13.61-20.04 26.34-41.4 38.05-64.31 1.78-3.49 3.55-7.02 5.28-10.58 8.35-17.12 16.15-35.08 23.33-53.96-14.93 4.52-28.82 11.62-41.69 21.28-4.89 3.67-9.62 7.71-14.21 12.11-2.91 2.79-5.75 5.73-8.54 8.82 2.19-3.73 4.36-7.47 6.48-11.23 3.79-6.67 7.48-13.37 11.06-20.12 6.61-12.4 12.86-24.95 18.72-37.66 3.34-7.21 6.55-14.479 9.61-21.81 6.11-14.5 11.69-29.22 16.7-44.18 8.67-25.87 15.64-52.47 20.61-79.92.43-2.41.86-4.82 1.26-7.24l-5.76 5.19-55.89 50.29-5.01 4.51c.84-1.99 1.66-4 2.47-6.03 8.23-20.36 15.62-42.71 22.26-66.84 3.36-12.23 6.53-24.92 9.52-38.05 2.86-12.56 5.56-25.51 8.09-38.84 3.7-19.41 7.05-39.61 10.1-60.55 1.2-8.21 2.35-16.54 3.45-24.97 5.47-41.76 9.81-86.19 13.25-132.8l-33.79 67.61c10.73-68.88 43.77-235.66 66.86-383.78-13.12 38.36-29.99 67.78-52.11 84.73 53.52-99 89.21-815.48 89.65-824.43 0 0 .01-.011.01-.021 0 .08.01.15.02.23 34.99 501.64 42.007 1167.98 114.168 1693.28-0 .031 66.058 40.367 65.852 40.365z" fill="#546d41"/><path d="m780.03 1746.217c9.39 12.83 16.732 27.202 41.243 47.117-55.149-2.553-87.197-12.217-87.228-12.257-42.58-44.67-58.89-146.73-58.89-146.73-.99 13.62-34.15 40.93-42.75 50.94 2.28-48.76 4.907-81.771 6.797-103.38-8.908 2.577-31.376 3.087-38.525 3.598 5.08-9.49 16.208-56.038 22.038-82.458 6.91-31.36 13.01-75.69 15.15-135.52-15.13 29.89-40.3 43.92-67.59 54.59 56.31-145.63 73.6-341.72 61.56-444.96-8.9 37.89-24.27 61.34-41.7 80.19 25.27-135.05 46.64-299.49 31.37-390.03-6.73 22.38-17.65 43.55-30.99 64.029 29.93-181 33.48-413.05 20.56-676.949v-.07c0 .02 0 .03.01.05 0 .08.01.15.02.23 28.78 269.13 60.51 514.27 102.4 676.88-15.67-21.05-29.44-50.74-42.76-82.51 29.59 206.25 72.94 394.229 139.21 551.76-33.78-25-61.09-56.79-81.54-95.44 3.2 33.07 8.41 63.86 16.59 91.26l-29-27.18c11.97 148.93 57.35 274.08 115.29 386.72-37.07-21.14-58.52-38.11-73.33-53.31 18.45 87.28 69.39 179.03 139.85 244.39-53.61 9.19-74.533 7.677-117.785-.96z" fill="#4a5e38"/><path d="m780.03 1746.216c9.39 12.83 16.73 27.2 41.24 47.12-27.58-1.27-49.37-4.33-64.28-7.07s-22.93-5.17-22.95-5.19c-17.38-4.67-30.45-10.9-42.52-16.41 0 0 14.86 27.9 35.54 55.8-35.23 0-80.43-17.17-96.5-28.06-28.35 13.18-81.97 23.79-142.3 27.68-.47.03-.92.25-1.38.38.29-.18.58-.36.88-.54 27.25-16.45 52.68-34.23 67.99-59.45-44.17 23.54-86.87 39.39-126.64 39.99 7.1-7.26 14.06-14.55 20.77-21.89 27.05-29.6 49.91-60.03 60.52-92.92.31-.98.62-1.95.91-2.93l-2.16 1.6-57.83 42.83c13.61-20.04 26.35-41.4 38.06-64.31 1.77-3.49 3.54-7.02 5.27-10.58 8.35-17.12 16.15-35.08 23.33-53.96-14.93 4.52-28.81 11.62-41.69 21.28-4.89 3.67-9.62 7.71-14.21 12.11-2.91 2.79-5.75 5.73-8.54 8.82 2.19-3.73 4.36-7.47 6.48-11.23 3.79-6.67 7.48-13.37 11.06-20.12 6.61-12.4 12.86-24.95 18.72-37.66 3.35-7.21 6.55-14.48 9.62-21.81 6.1-14.5 11.69-29.22 16.69-44.18 8.67-25.87 15.64-52.47 20.61-79.92.43-2.41.86-4.82 1.26-7.24l-5.76 5.19-55.89 50.29-5.01 4.51c.85-1.99 1.66-4 2.47-6.03 8.23-20.36 15.63-42.71 22.26-66.84 3.37-12.23 6.53-24.92 9.52-38.05 2.86-12.56 5.56-25.51 8.1-38.84 3.69-19.41 7.04-39.61 10.09-60.55 1.2-8.21 2.35-16.54 3.45-24.97 5.47-41.76 9.81-86.19 13.25-132.8l-33.79 67.61c10.73-68.88 43.77-235.66 66.86-383.779-13.11 38.359-29.99 67.779-52.11 84.729 53.52-99 89.21-815.479 89.65-824.43v-.07c0 .021 0 .03.01.05 0 .08.01.15.03.23 28.77 269.13 60.5 514.27 102.39 676.88-15.67-21.05-29.44-50.74-42.76-82.51 29.59 206.25 72.94 394.229 139.22 551.76-33.79-25-61.1-56.79-81.54-95.44 3.19 33.07 8.4 63.86 16.58 91.26l-29-27.18c11.97 148.93 57.35 274.08 115.29 386.72-37.07-21.14-58.52-38.11-73.33-53.31 18.46 87.28 69.39 179.03 139.85 244.39-53.6 9.19-74.53 7.68-117.78-.96z" fill="url(#J)"/><path d="m291.02 1941.506c.78-5.16 2.96-26.92 3.96-34.79 2.4-18.87 5.28-44.1 8.01-68.83.8-7.26 1.58-14.47 2.34-21.46 3.96-36.63 7.1-67.36 7.1-67.36 4.61-42.57 68.99-20.95 69.69 16.41.01 0 1.64 23.88 4.06 53.55.01.16.03.31.04.47 1.45 17.9 3.2 41.5 5.05 63.36 1.98 23.63 4.1 45.24 6.09 55.46 2.65 13.57-107.68 11.99-106.34 3.19z" fill="#5b3631"/><path d="m386.22 1819.496-43.05 41.15-48.19 46.07c2.4-18.87 5.28-44.1 8.01-68.83.8-7.26 1.58-14.47 2.34-21.46 3.96-36.63 7.1-67.36 7.1-67.36 4.61-42.57 68.99-20.95 69.69 16.41.01 0 1.64 23.88 4.06 53.55.01.16.03.31.04.47z" fill="#4c2d2c"/><path d="m663.46 1611.056c-11.53-2.71-23.15-5.97-34.85-9.76-6.14-1.99-12.31-4.13-18.5-6.41-5.45-2.01-10.91-4.13-16.4-6.36-25.6-10.39-51.59-23.16-77.92-38.11 3.75 11.63 7 22.78 9.77 33.46.01.04.02.09.04.13 18.98 72.96 15.89 124.21-.83 159.82-.07.14-.13.27-.2.4-17.37 36.68-49.26 56.69-86.39 66.72-16.57 4.48-34.17 6.98-52 8.08-27.44 1.71-55.39.12-80.85-2.6-49.96-5.32-90.34-14.98-98.44-12.6-6.37 2.79-12.65 5.4-18.85 7.86-.89.35-1.78.7-2.66 1.04-.04.01-.08.03-.12.05-16.63 6.48-32.75 11.83-48.88 16.33-42.46 11.87-84.9 17.89-136.38 23.29 71.15-72.16 120.17-148.42 158.56-226.67-42.14 30.82-89.48 38.32-137.23 43.99 72.37-50.99 133.96-110.44 184.96-178.21-59.17 40.05-119.41 59.66-180.48 63.38 64.15-42.82 113.79-90.76 152.89-142.42 114.7-75.27 220.26-83.17 315.18-12.67 26.28 19.51 51.74 45.03 76.36 76.8l40.78 58.82z" fill="#384928"/><path d="m673.44 1872.996c-85.53 3.64-141.28-3.29-196.87-20.54-.17-.05-.33-.1-.5-.16-14.43-4.49-28.86-9.68-43.81-15.56-1.9 3.65 1.6 52.57 3.479 59.75-7.63-1.14-24.79-6.08-44.47-13.63-15.61-5.97-32.8-13.58-48.1-22.21-14-7.9-26.42-16.66-34.58-25.811-1.86 1.021-3.72 2.04-5.6 3.05-59.65 31.96-149.263 56.885-195.36 51.448 44.196-29.362 71.07-59.832 80.41-77.648.01-.04.01-.09.02-.13-.91.4-1.8.79-2.68 1.17-.04.01-.08.03-.12.05-19.1 8.2-32.12 12.22-48.88 16.33-8.28 2.03-17.47 4.08-28.75 6.66 86.2-78.46 218.46-286.31 207.54-239.1-7.31 31.65-11.84 78.64-11.84 78.64s41.92-108.33 52.96-122.13c3.69-4.6 9.9 6.66 11.84 9.17 13.58 17.62 44.56 57.5 80.2 99.31.68.8 1.37 1.6 2.06 2.41 8.89 10.39 18.05 20.88 27.29 31.15 6.57 7.31 13.19 14.5 19.78 21.48.41.44.83.89 1.25 1.33 8.74 9.23 17.41 18.05 25.86 26.2 1.06 1.02 2.11 2.03 3.16 3.03-.99-1.12-1.97-2.27-2.96-3.43-14.36-16.88-29.01-38.05-41.81-59.19-6.74-11.11-12.96-22.21-18.36-32.68-1.83-3.55-3.57-7.03-5.21-10.42-14.61-30.29-20.63-52.67-9.23-49.37 10.94 3.17 18.26 7.44 27.95 11.71 4.78 2.11 10.15 4.22 16.8 6.19 6.13 1.82 1.13-10.82-7.19-28-14.54-30.02-39.2-73.93-32.39-79.03 1.25-.93 3.38-.29 6.77 1.65.78.44 1.62.95 2.54 1.52 2.02 1.27 4.38 2.84 7.15 4.69 11.79 7.86 22.73 16.9 32.63 26.99 3.97 4.01 7.76 8.19 11.37 12.53 2.15 7.56 5.36 19.04 9.77 33.46.01.04.02.09.04.13 16.29 53.29 48.88 146.66 104.53 231.25 13.131 19.951 27.531 39.411 43.311 57.741z" fill="#2a351c"/><path d="m570.24 1476.596c-15.43-5.84-30.62-12.07-45.21-18.63-1.51-.68-3.01-1.36-4.5-2.05-12.63-5.78-24.76-11.82-36.17-18.07-38.43-21.07-68.57-44.61-81.18-69.37-34.5 44.54-80.71 77.1-134.99 101.41 10.68-15.67 17.75-33.26 20.88-52.94-19.98 17.95-42.33 27.6-66.37 31.32 22.52-14.21 43.66-41.89 64.14-76.06-33.93 25.37-70.57 35.48-108.14 40.26 31.19-38.85 55.86-77.22 87-146.38 0-.01.01-.01.01-.01 65.03-31.37 157.11-35.34 215.78 52.2 6.32 14.32 13.26 28.66 20.48 42.68 23.45 45.54 49.94 87.8 68.27 115.64z" fill="#2a351c"/><path d="m540.41 1314.796c-10.01-3.41-19.42-8.32-28.34-14.39-22.3-15.17-41.52-37.63-59.42-62.16 3.4 25.82 12.03 52.37 28.84 80.03-33.4-14.8-64.24-35.97-93.47-61.15-26.1 32.5-50.96 59.89-71.1 67.61 7.9-11.76 12.86-23.8 12.92-36.29-18.65 23.59-39.97 43.38-64.13 59.15 2.85-30.36 3.77-58.57 0-81.52 0 0-.01 0-.01.01-37.25 21.46-72.12 38.76-96.95 38.271 23.34-23.85 32.23-46 40.77-68.1-39.29 30.5-189.19 74.85-140.21 55.67 59.95-23.48 150.9-145.84 160.6-170.5 0 0 107.64-128.75 242.63 54.18 16.12 42.69 30.38 75.62 42.98 99.83 9.15 17.569 17.42 30.549 24.89 39.359z" fill="#384928"/><path d="m409.89 1143.296c3.75 16.01 8.89 29.26 16.41 37.78-33.05-16.49-60.51-41.18-82.04-74.56 0 0-5.14 64.71 8.45 86.99-17.95-18.49-29.39-45.21-34.8-79.54-17.77 22.76-36.45 40.75-56.68 50.71 7.54-23.45 11.19-46.66 9.94-69.6-13.55 14.07-27.29 23.34-41.26 26.35 14.62-24.55 26.69-48.7 38.16-77.13l.08-.22c5.05-12.52 9.98-25.88 14.96-40.46 46.92-23.9 92.27-26.8 134.74 8.95 5.75 51.35 25.92 106.17 54.69 163.04-20.18-5.71-41.21-17.5-62.65-32.31z" fill="#2a351c"/><path d="m495.41 1071.216c-30-18.16-57.44-37.18-77.56-58.65-13.92 5.46-12.93 23.859-9.45 41.75-21.38-9.44-40.54-34.07-48.72-53.19-17.5 27-37.22 48.91-61.16 61.15 6.41-15.78 11.61-31.78 11.93-48.72-10.62 13.8-26.59 23.069-42.38 30.739l.08-.22 14.96-40.46c-40.55 21.25-79.53 39.38-111.7 44.04 106.28-86.41 153.45-238.26 166.71-427.64 16.75 175.481 79.29 307.541 157.29 451.201z" fill="#384928"/><path d="m673.44 1872.996c-85.53 3.64-141.28-3.29-196.87-20.54-.17-.05-.33-.1-.5-.16-14.43-4.49-28.86-9.68-43.81-15.56-1.9 3.65 1.6 52.57 3.479 59.75-7.63-1.14-24.79-6.08-44.47-13.63-15.61-5.97-32.8-13.58-48.1-22.21-14-7.9-26.42-16.66-34.58-25.811-1.86 1.021-3.72 2.04-5.6 3.05-59.65 31.96-149.26 56.89-195.36 51.45 44.2-29.36 71.07-59.83 80.41-77.65-.89.35-1.78.7-2.66 1.04-.04.01-.08.03-.12.05-19.1 8.2-32.12 12.22-48.88 16.33-42.46 11.87-84.9 17.89-136.38 23.29 71.15-72.16 120.17-148.42 158.56-226.67-42.14 30.82-89.48 38.32-137.23 43.99 72.37-50.99 133.96-110.44 184.96-178.21-59.17 40.05-119.41 59.66-180.48 63.38 64.15-42.82 113.79-90.76 152.89-142.42 31.19-38.85 55.86-77.22 87-146.38-37.25 21.46-72.12 38.76-96.95 38.271 23.34-23.85 32.23-46 40.77-68.1-39.29 30.5-189.19 74.85-140.21 55.67 59.95-23.48 150.9-145.84 160.6-170.5 14.62-24.55 26.69-48.7 38.16-77.13l.08-.22 14.96-40.46c-40.55 21.25-79.53 39.38-111.7 44.04 106.28-86.41 153.45-238.26 166.71-427.64 16.75 175.479 79.29 307.54 157.29 451.2-30-18.16-57.44-37.18-77.56-58.65 5.75 51.35 25.92 106.17 54.69 163.04 16.12 42.69 30.38 75.62 42.98 99.83 9.15 17.57 17.42 30.55 24.89 39.36-10.01-3.41-19.42-8.32-28.34-14.39-22.3-15.17-41.52-37.63-59.42-62.16 3.4 25.82 12.03 52.37 28.84 80.03 6.32 14.32 13.26 28.66 20.48 42.68 23.45 45.54 49.94 87.8 68.27 115.64l40.78 58.82 52.44 75.64c-11.53-2.71-23.15-5.97-34.85-9.76-6.14-1.99-12.31-4.13-18.5-6.41-5.45-2.01-10.91-4.13-16.4-6.36-25.6-10.39-51.59-23.16-77.92-38.11 3.75 11.63 7 22.78 9.77 33.46.01.04.02.09.04.13 16.29 53.29 48.88 146.66 104.53 231.25 13.131 19.95 27.531 39.41 43.311 57.74z" fill="url(#K)"/><path d="m707.205 1487.446-92.45 53.37-53.49 30.88-42.65-73.87-23.57-40.83-9.57-16.57-222.13-384.74c1.59-3.73 3.16-7.52 4.72-11.39l.08-.22 14.96-40.46c-13.12 6.88-26.07 13.43-38.68 19.29l-18.36-31.8c39.21-51.18 66.76-115.28 85.15-189.52l137.74 238.55 62.57 108.39 5.26 9.1 16.95 29.36z" fill="url(#L)" opacity=".1"/><path d="m722.475 926.166-157.54-272.85c10.52-90.37 19.51-194.76 26.69-290.81l74.64 129.29c14.35 91.24 29.93 172.51 47.23 239.69-15.67-21.05-29.44-50.74-42.76-82.51 13.9 96.85 30.82 189.66 51.74 277.19z" fill="url(#M)" opacity=".1"/><path d="m491.873 2118.646c-1.255 8.157-79.178 6.902-84.197 0-5.02-6.921 7.53-26.393 7.53-26.393s9.634-8.471 18.714-14.045c.333-.203.646-.406.979-.59 4.281-2.529 8.342-4.319 11.111-4.153 4.799.314 18.419 11.332 29.604 22.627h.018c9.246 9.339 16.812 18.843 16.241 22.554z" fill="#494949"/><path d="m491.873 2118.646c-1.255 8.157-79.178 6.902-84.197 0-5.02-6.921 7.53-26.393 7.53-26.393s9.634-8.471 18.714-14.045c0 0 3.285 34.772 57.953 40.438z" fill="#303030"/><path d="m475.613 2096.092c-21.816 4.854-40.714-18.474-40.714-18.474 4.281-2.529 8.342-4.319 11.111-4.153 4.798.314 18.418 11.331 29.603 22.627z" fill="#565656"/><path d="m420.244 2126.822c-5.02 3.764-129.488 12.938-147.207-9.616-8.822-11.24 11.221-72.587 26.706-102.136 0-.019 0-.019 0-.019 3.894-7.455 7.511-12.9 10.299-14.949.535-.406 1.052-.683 1.513-.831 11.056-3.322 46.841 16.371 72.053 32.28 13.676 8.619 24.233 16.13 26.078 18.271 8.176 9.468 12.458 40.271 12.735 60 .13 9.082-.59 15.8-2.177 17z" fill="#3f3f3f"/><path d="m420.239 2126.813c-5.02 3.765-129.488 12.938-147.207-9.615-8.822-11.24 11.221-72.588 26.706-102.137-.129 1.422-5.463 62.825 0 71.536 5.518 8.786 122.678 23.218 122.678 23.218.13 9.08-.59 15.798-2.177 16.998z" fill="#2d2d2d"/><path d="m383.609 2031.551c-7.955 8.323-16.739 15.503-24.307 16.72-13.085 2.104-35.787-28.108-49.259-48.17.535-.406 1.052-.683 1.513-.831 11.056-3.321 46.841 16.372 72.053 32.281z" fill="#565656"/><path d="m408.094 1931.144c8.282-7.561 12.327-19.682 12.327-19.682-23.489 14.638-47.319 13.958-47.319 13.958 1.702-1.362 5.106-8.851 5.106-8.851-6.128 5.787-20.426 9.191-20.426 9.191 4.766-3.745 6.809-21.787 6.809-21.787-11.234 20.766-43.234 23.149-43.234 23.149 4.085-9.192-5.399-40.461-5.399-40.461 2.09 23.879-8.899 41.482-8.899 41.482-16.341-1.021-37.106-12.255-37.106-12.255 5.447 11.915 13.277 17.021 13.277 17.021-9.191 3.235-35.745 0-35.745 0 6.985 4.298 13.806 6.843 19.511 8.354-15.385 3.752-22.234 7.047-22.234 7.047l70.468 28.699 225.54-32.689c-51.912-7.878-95.842-11.788-132.676-13.176z" fill="#7d8d5c"/></svg>