<svg xmlns="http://www.w3.org/2000/svg" viewBox="0 0 3000 3000" width="3000" height="3000"><g transform="translate(830.4 559.1999999999999) rotate(0.0 389.99999999999994 484.8) scale(1.1991845545029378 1.1997698461310022)"><svg width="650.442" height="808.155" viewBox="0 0 650.442 808.155"><path d="M187.395 740.968c0 36.554 51.535 66.187 115.107 66.187s115.107-29.633 115.107-66.187c0-3.625.975-17.922 0-21.389-8.858-31.491-57.84-32.276-115.107-32.276-57.872 0-115.107 35.827-115.107 35.827z" fill="#adc4cb"/><path d="M302.502 808.155c-64.021 0-116.107-30.14-116.107-67.187V723.13c0-.344.178-.665.47-.848.574-.36 58.144-35.98 115.638-35.98 54.916 0 106.786 0 116.069 33.005.701 2.493.489 9.446.188 16.963-.081 2.015-.15 3.755-.15 4.697 0 37.047-52.085 67.187-116.106 67.187zm-114.107-84.464v17.277c0 35.944 51.188 65.187 114.107 65.187s114.106-29.243 114.106-65.187c0-.982.067-2.657.152-4.777.209-5.216.559-13.947-.115-16.341-8.873-31.547-60.007-31.547-114.144-31.547s-108.51 31.998-114.107 35.388z"/><path d="M336.179 804.277c47.141-8.281 81.43-33.492 81.43-63.309 0-3.625.975-17.922 0-21.389-7.267-25.835-41.539-31.003-85.237-32.027z"/><path d="M336.179 805.277a1.001 1.001 0 0 1-.999-.967l-3.807-116.725a.992.992 0 0 1 .289-.736c.193-.195.466-.304.733-.296 46.502 1.089 78.953 7.076 86.176 32.756.701 2.493.489 9.446.188 16.963-.081 2.015-.15 3.755-.15 4.697 0 14.786-8.102 28.8-23.429 40.525-14.703 11.247-35.595 19.688-58.828 23.769a1.01 1.01 0 0 1-.173.015zm-2.772-116.699 3.734 114.511c22.467-4.099 42.61-12.312 56.823-23.185 14.814-11.332 22.645-24.796 22.645-38.936 0-.982.067-2.657.152-4.777.209-5.216.559-13.947-.115-16.341-6.837-24.309-38.191-30.14-83.239-31.272z"/><ellipse cx="302.502" cy="723.13" fill="#fff" rx="115.107" ry="66.187"/><path d="M302.502 790.317c-64.021 0-116.107-30.14-116.107-67.187s52.086-67.187 116.107-67.187 116.106 30.14 116.106 67.187-52.085 67.187-116.106 67.187zm0-132.373c-62.919 0-114.107 29.243-114.107 65.187s51.188 65.187 114.107 65.187 114.106-29.243 114.106-65.187-51.188-65.187-114.106-65.187z"/><path d="M302.719 275.593a5.18 5.18 0 0 0-5.181 5.181v446.094a5.18 5.18 0 1 0 10.362 0V280.774a5.18 5.18 0 0 0-5.181-5.181z" fill="#adc4cb"/><path d="M302.718 733.049a6.188 6.188 0 0 1-6.181-6.181V280.774c0-3.408 2.772-6.181 6.181-6.181s6.182 2.773 6.182 6.181v446.094a6.188 6.188 0 0 1-6.182 6.181zm0-456.456a4.186 4.186 0 0 0-4.181 4.181v446.094c0 2.305 1.875 4.181 4.181 4.181s4.182-1.875 4.182-4.181V280.774a4.186 4.186 0 0 0-4.182-4.181z"/><path d="M427.487 595.25c-28.002 0-59.054-6.969-91.932-20.935-68.592-29.135-136.979-85.265-192.567-158.05C82.32 336.829 44.449 246.494 39.085 168.423a1.001 1.001 0 0 1 .93-1.066 1.005 1.005 0 0 1 1.066.929c5.337 77.69 43.061 167.633 103.497 246.765 55.381 72.513 123.481 128.42 191.759 157.423 68.09 28.922 128.166 27.606 169.164-3.705 40.999-31.312 58.08-88.924 48.099-162.225-10.01-73.503-46.022-153.918-101.403-226.432-55.381-72.513-123.481-128.421-191.759-157.423C192.345-6.233 132.269-4.917 91.273 26.395 75.084 38.76 62.512 55.361 53.908 75.737a1 1 0 1 1-1.842-.778c8.74-20.7 21.523-37.574 37.993-50.153 41.594-31.768 102.382-33.172 171.159-3.957 68.592 29.135 136.979 85.265 192.567 158.05s91.739 153.535 101.795 227.376c10.083 74.044-7.271 132.317-48.865 164.084-21.712 16.582-48.652 24.891-79.229 24.891z"/><circle cx="52.998" cy="73.58" fill="#adc4cb" r="51.998"/><path d="M52.998 126.579C23.775 126.579 0 102.804 0 73.581s23.775-52.999 52.998-52.999 52.998 23.775 52.998 52.998-23.774 52.998-52.998 52.998zm0-103.996C24.878 22.582 2 45.46 2 73.581s22.878 50.998 50.998 50.998 50.998-22.878 50.998-50.998-22.878-50.998-50.998-50.998z"/><path d="M40.081 169.355c-.521 0-.96-.404-.997-.932-2.459-35.795 1.909-67.241 12.981-93.465a1 1 0 1 1 1.842.778c-10.949 25.933-15.265 57.071-12.827 92.55a1.001 1.001 0 0 1-.93 1.066c-.023.002-.046.002-.069.002zm128.964 425.76c-13.409 0-26.14-1.578-37.999-4.774a1 1 0 1 1 .52-1.931c43.634 11.756 99.346 1.328 156.884-29.364 58.512-31.21 116.665-82.348 163.746-143.995 55.381-72.513 91.394-152.929 101.403-226.432 9.981-73.3-7.1-130.913-48.099-162.224C464.503-4.917 404.425-6.232 336.336 22.69c-68.277 29.002-136.378 84.91-191.759 157.423-47.698 62.454-81.915 132.85-96.348 198.221-14.207 64.347-8.782 121.059 15.274 159.688a1 1 0 0 1-1.697 1.057c-24.335-39.075-29.851-96.316-15.53-161.177 14.494-65.649 48.84-136.323 96.711-199.003 55.588-72.784 123.976-128.914 192.567-158.05 68.776-29.215 129.564-27.811 171.16 3.957 41.594 31.767 58.948 90.04 48.865 164.084-10.056 73.841-46.207 154.592-101.795 227.376-47.252 61.87-105.635 113.204-164.395 144.545-42.401 22.617-83.87 34.304-120.346 34.304z"/><circle cx="63.551" cy="532.333" fill="#fff" r="51.998"/><path d="M63.551 585.331c-29.224 0-52.998-23.775-52.998-52.998s23.774-52.998 52.998-52.998 52.998 23.775 52.998 52.998-23.774 52.998-52.998 52.998zm0-103.996c-28.12 0-50.998 22.878-50.998 50.998s22.878 50.998 50.998 50.998 50.998-22.878 50.998-50.998-22.878-50.998-50.998-50.998z"/><path d="M131.307 590.376a.976.976 0 0 1-.261-.035c-15.198-4.095-28.988-10.818-40.988-19.982-11.1-8.477-20.604-19.001-28.251-31.28a1 1 0 0 1 1.697-1.057c7.519 12.072 16.861 22.417 27.769 30.747 11.792 9.006 25.349 15.614 40.293 19.641a1 1 0 0 1-.259 1.966zm168.765-123.958c-80.057 0-155.337-17.913-211.974-50.438C31.287 383.354 0 339.916 0 293.665s31.287-89.689 88.098-122.315c56.637-32.525 131.917-50.438 211.974-50.438s155.338 17.913 211.974 50.438c56.812 32.626 88.099 76.065 88.099 122.315 0 3.825-.22 7.693-.653 11.495a1 1 0 0 1-1.986-.227c.424-3.727.64-7.518.64-11.268 0-94.153-133.715-170.753-298.072-170.753S2 199.512 2 293.665s133.714 170.753 298.071 170.753c57.031 0 112.463-9.266 160.304-26.795a1 1 0 0 1 .687 1.878c-48.058 17.61-103.728 26.917-160.991 26.917z"/><circle cx="597.444" cy="303.454" fill="#87c159" r="51.998"/><path d="M597.445 356.452c-29.224 0-52.999-23.775-52.999-52.998s23.775-52.998 52.999-52.998 52.998 23.775 52.998 52.998-23.774 52.998-52.998 52.998zm0-103.996c-28.121 0-50.999 22.878-50.999 50.998s22.878 50.998 50.999 50.998 50.998-22.878 50.998-50.998-22.878-50.998-50.998-50.998z"/><path d="M460.719 439.562a1 1 0 0 1-.343-1.939c79.729-29.214 130.991-78.817 137.129-132.689a1 1 0 0 1 1.986.227c-3.12 27.396-17.762 54.266-42.34 77.705-23.87 22.764-57.097 42.348-96.088 56.635a.983.983 0 0 1-.344.061z"/><circle cx="302.719" cy="319.473" fill="#dbf301" r="63.44"/><path d="M302.718 383.914c-35.532 0-64.439-28.908-64.439-64.44s28.907-64.44 64.439-64.44 64.44 28.908 64.44 64.44-28.908 64.44-64.44 64.44zm0-126.881c-34.43 0-62.439 28.011-62.439 62.44s28.01 62.44 62.439 62.44 62.44-28.011 62.44-62.44-28.011-62.44-62.44-62.44z"/></svg></g><g transform="translate(1081.2 2048.4) rotate(0.0 659.9999999999999 198.0) scale(1.1990091824119884 1.1991496938534494)"><svg width="1100.909" height="330.234" viewBox="0 0 1100.909 330.234"><path d="M432.745 330.213a364.34 364.34 0 0 1-20.556-.583c-28.466-1.613-50.478-7.947-67.291-19.363a77.36 77.36 0 0 1-13.127-11.227c-6.394 3.279-13.807 6.208-22.173 8.731-31.104 9.381-71.847 12.022-108.989 7.065-41.447-5.532-73.401-19.641-89.978-39.729-34.452-41.753 9.029-79.087 47.392-112.025 23.462-20.145 45.622-39.172 45.453-55.94-.064-6.417-3.334-12.205-9.994-17.694-15.752-12.982-32.642-18.002-48.839-14.523-12.269 2.636-19.949 9.249-20.025 9.316a1.068 1.068 0 0 1-.193.133l-49.854 26.204a1 1 0 1 1-.93-1.771l49.758-26.154c1.983-1.646 33.049-26.318 71.354 5.251 7.145 5.887 10.651 12.174 10.723 19.217.179 17.699-22.325 37.021-46.15 57.478-37.665 32.34-80.355 68.995-47.151 109.235 16.253 19.697 47.754 33.554 88.699 39.019 36.876 4.922 77.304 2.305 108.147-6.998 8.051-2.428 15.192-5.227 21.364-8.345-12.203-13.833-18.416-31.223-16.367-47.72 1.294-10.414 6.264-18.57 13.296-21.818 5.993-2.769 12.134-2.103 17.762 1.923 9.718 6.952 16.221 23.024 14.805 36.589-1.271 12.176-10.406 23.015-26.275 31.589a75.464 75.464 0 0 0 12.416 10.538c16.506 11.207 38.187 17.429 66.281 19.021 43.781 2.481 124.678-.953 174.452-51.839 35.424-36.217 81.424-52.642 113.776-60.044 41.762-9.555 80.038-8.712 101.932-4.737 18.686 3.393 36.219 11.726 54.78 20.549 28.587 13.588 60.986 28.987 104.876 28.987h.079c55.694-.024 102.653-21.571 125.612-57.638 9.654-15.166 16.762-52.494 4.997-83.135-8.568-22.316-25.275-37.063-49.657-43.83a1 1 0 0 1 .535-1.927c25.026 6.946 42.182 22.1 50.989 45.04 12.001 31.256 4.704 69.404-5.177 84.926-23.328 36.647-70.917 58.541-127.3 58.564h-.08c-44.344.002-76.954-15.502-105.734-29.181-18.438-8.764-35.854-17.042-54.278-20.387-49.613-9.009-151.564.459-213.921 64.211-43.276 44.244-109.638 53.021-155.439 53.021zm-98.143-101.904c-2.148 0-4.311.492-6.45 1.48-6.399 2.956-10.941 10.526-12.149 20.249-1.996 16.078 4.162 33.059 16.212 46.525 15.536-8.271 24.464-18.665 25.678-30.285 1.348-12.917-4.793-28.183-13.979-34.755-2.988-2.138-6.134-3.214-9.311-3.214z"/><path d="M1005.686 54.823c-22.444 0-40.638 10.016-40.638 22.371s18.194 22.371 40.638 22.371 40.638-10.016 40.638-22.371-18.194-22.371-40.638-22.371zm0 38.594c-18.665 0-33.795-7.463-33.795-16.67s15.131-16.67 33.795-16.67 33.795 7.463 33.795 16.67-15.131 16.67-33.795 16.67z" fill="#87c159"/><path d="M1005.686 100.564c-22.959 0-41.638-10.484-41.638-23.371s18.679-23.371 41.638-23.371 41.639 10.484 41.639 23.371-18.679 23.371-41.639 23.371zm0-44.742c-21.856 0-39.638 9.587-39.638 21.371s17.781 21.371 39.638 21.371 39.639-9.587 39.639-21.371-17.782-21.371-39.639-21.371zm0 38.594c-19.511 0-34.795-7.761-34.795-17.67s15.284-17.67 34.795-17.67 34.796 7.761 34.796 17.67-15.284 17.67-34.796 17.67zm0-33.34c-18.083 0-32.795 7.03-32.795 15.67s14.712 15.67 32.795 15.67 32.796-7.03 32.796-15.67-14.712-15.67-32.796-15.67z"/><path d="M2.978 112.26c5.08 21.955 37.772 38.893 77.344 38.893 38.213 0 70.01-14.409 76.724-34.949.858-2.624 2.123-8.555 2.204-16.564.045-4.488-.77-8.971-.77-8.971l.11-12.647s1.059-6.5 1.048-13.699c-.012-8.164-1.274-16.898-1.456-17.546-6.005-21.347-39.039-22.165-77.859-22.165-39.23 0-78.029 24.287-78.029 24.287s-1.292 6.735-1.292 16.6c0 8.557 1.292 13.59 1.292 13.59v11.879s-.533 3.689-.549 7.471c-.025 5.944.782 11.867 1.234 13.822z" fill="#fff"/><path d="M80.322 152.153c-39.416 0-73.085-17.053-78.318-39.667-.522-2.26-1.284-8.288-1.26-14.051.015-3.562.472-6.985.549-7.538V79.21C1.087 78.354 0 73.442 0 65.499c0-9.847 1.257-16.51 1.31-16.789a1 1 0 0 1 .452-.659c.39-.244 39.494-24.439 78.56-24.439 35.585 0 72.382 0 78.822 22.894.231.822 1.481 9.774 1.493 17.816.01 6.775-.93 13.019-1.049 13.783l-.108 12.48c.121.693.811 4.839.769 9.064-.076 7.583-1.213 13.684-2.253 16.864-6.858 20.984-38.799 35.639-77.674 35.639zm-76.37-40.118c5.028 21.731 37.859 38.118 76.369 38.118 38.021 0 69.18-14.088 75.773-34.26.343-1.05 2.059-6.767 2.153-16.263.043-4.336-.745-8.738-.754-8.782a.988.988 0 0 1-.016-.188l.11-12.647c0-.051.005-.102.013-.152.011-.064 1.046-6.509 1.035-13.537-.012-8.031-1.258-16.649-1.42-17.282-5.596-19.893-35.4-21.431-76.896-21.431-36.46.001-73.029 21.435-77.12 23.906-.273 1.626-1.198 7.727-1.198 15.982 0 8.307 1.248 13.292 1.261 13.342a.991.991 0 0 1 .031.248v11.878a.973.973 0 0 1-.011.143c-.005.036-.523 3.669-.538 7.333-.024 5.805.775 11.717 1.209 13.592z"/><path d="M123.303 144.28s28.018-8.255 33.742-28.077c.766-2.652 2.123-8.555 2.204-16.564.045-4.488-.77-8.971-.77-8.971l.11-12.647s1.059-6.5 1.048-13.699c-.012-8.164-1.274-16.898-1.456-17.546-3.775-13.419-38.087-20.817-38.087-20.817l3.209 118.32z" fill="#adc4cb"/><path d="M123.303 145.28a.997.997 0 0 1-1-.973l-3.209-118.32a1.002 1.002 0 0 1 1.211-1.005c1.425.307 34.946 7.684 38.839 21.523.231.822 1.481 9.774 1.493 17.816.01 6.775-.93 13.019-1.049 13.783l-.108 12.48c.121.693.811 4.839.769 9.064-.085 8.473-1.597 14.593-2.242 16.831-5.81 20.117-33.255 28.415-34.421 28.758a1.013 1.013 0 0 1-.282.041zm-2.174-118.053 3.137 115.684c5.438-1.876 26.995-10.282 31.818-26.985.623-2.159 2.082-8.069 2.164-16.296.043-4.336-.745-8.738-.754-8.782a.988.988 0 0 1-.016-.188l.11-12.647c0-.051.005-.102.013-.152.011-.064 1.046-6.509 1.035-13.537-.012-8.031-1.258-16.649-1.42-17.282-3.173-11.281-29.954-18.338-36.088-19.815z"/><path d="M80.321 118.046c-40.513 0-74.185-16.243-78.029-38.958v2.888c0 24.779 34.935 44.867 78.029 44.867s78.303-19.969 78.303-44.748c0-1.484-.063-2.901.008-4.517-3.844 22.715-37.798 40.469-78.311 40.469z" fill="#1d1d1b"/><path d="M80.322 127.843c-43.578 0-79.03-20.576-79.03-45.867v-2.888a1 1 0 0 1 .916-.997c.507-.039.983.317 1.07.83 3.678 21.734 36.799 38.125 77.043 38.125 39.599 0 73.563-17.41 77.324-39.635a.99.99 0 0 1 1.092-.828 1 1 0 0 1 .894 1.038c-.047 1.072-.033 2.079-.02 3.052.006.473.013.944.013 1.421 0 25.226-35.575 45.748-79.303 45.748zM3.782 86.938c4.341 21.861 37.011 38.906 76.54 38.906 41.087 0 74.791-18.237 77.169-41.158-3.862 8.622-12.077 16.452-23.803 22.533-14.708 7.628-33.66 11.828-53.366 11.828-37.069 0-67.361-13.11-76.54-32.109z"/><path d="M2.292 48.899c0 24.779 34.935 44.867 78.029 44.867s78.029-20.088 78.029-44.867S123.415 1 80.321 1 2.292 24.119 2.292 48.899z" fill="#fff"/><path d="M80.322 94.765c-43.578 0-79.03-20.576-79.03-45.867 0-12.346 8.501-24.77 23.322-34.088C39.806 5.26 59.59 0 80.322 0s40.516 5.26 55.707 14.81c14.821 9.318 23.322 21.742 23.322 34.088 0 25.291-35.452 45.867-79.029 45.867zm0-92.765C39.287 2 3.292 23.915 3.292 48.898c0 24.188 34.556 43.867 77.029 43.867s77.029-19.679 77.029-43.867C157.35 23.915 121.355 2 80.321 2z"/><path d="m50.581 11.364.624 26.173-36.922 15.422 43.309 8.725 13.553 24.925L97.94 65.266l45.49.156-26.951-21.81 14.488-24.458-43.308 8.1z" fill="#87c159"/><path d="M71.145 87.609a1.006 1.006 0 0 1-.879-.522L56.937 62.572 14.086 53.94a1 1 0 0 1-.189-1.903l36.291-15.159-.607-25.489a1 1 0 0 1 1.393-.943l36.798 15.771 43.011-8.044a.999.999 0 0 1 1.044 1.493L117.779 43.38l26.279 21.267a1 1 0 0 1-.629 1.778h-.004l-45.138-.155-26.521 21.124a1.001 1.001 0 0 1-.623.218zM17.681 52.624l40.108 8.08c.29.058.54.242.682.502l12.983 23.879 25.863-20.6a.999.999 0 0 1 .623-.218h.003l42.649.146-24.743-20.023a1 1 0 0 1-.231-1.287l13.364-22.56-41.141 7.695a.993.993 0 0 1-.577-.064L51.618 12.897l.586 24.616a1 1 0 0 1-.614.947L17.681 52.624z"/></svg></g><g transform="translate(1384.8 630.0) rotate(0.0 677.4 790.8) scale(1.2013290167776398 1.2013061241850964)"><svg width="1127.751" height="1316.567" viewBox="0 0 1127.751 1316.567"><path d="m570.186 67.794 70.294 22.73s58.704 40.003 116.333 108.993c52.914 63.346 100.473 153.934 135.675 242.138 39.645 99.334 42.344 177.29 25.57 273.722-40.182 231.005-253.546 270.369-253.546 270.369l-18.024-91.325S817.121 863.179 838.75 644.48c18.63-188.374-87.531-348.148-108.978-377.574-55.886-76.677-159.586-199.112-159.586-199.112z"/><path d="M664.512 986.746a1 1 0 0 1-.98-.807l-18.024-91.325a1.001 1.001 0 0 1 .8-1.177c.425-.078 43.012-8.197 87.667-42.827 41.199-31.949 92.647-93.663 103.78-206.229 19.267-194.801-95.627-358.825-108.792-376.887-55.225-75.77-158.504-197.831-159.54-199.055a1 1 0 0 1 1.071-1.598l70.294 22.73a.98.98 0 0 1 .256.125c.588.401 59.479 40.871 116.537 109.179 48.27 57.786 96.511 143.875 135.837 242.408 42.388 106.207 40.9 186.453 25.627 274.264-9.191 52.839-28.281 99.978-56.738 140.107-22.768 32.106-51.547 59.818-85.536 82.366-57.864 38.386-111.54 48.609-112.075 48.708a1.039 1.039 0 0 1-.183.017zm-16.851-91.545 17.639 89.367c7.49-1.564 57.164-12.903 110.433-48.258 53.06-35.216 120.651-102.162 141.341-221.104 15.216-87.477 16.7-167.41-25.514-273.18-39.25-98.342-87.376-184.239-135.515-241.867C700.39 133.531 643.008 93.486 640.033 91.431l-66.826-21.608c15.491 18.374 106.662 126.919 157.373 196.495 13.21 18.125 128.505 182.723 109.165 378.262-4.947 50.024-18.167 94.338-39.291 131.711-16.909 29.917-38.891 55.475-65.334 75.964-41.234 31.95-80.756 41.503-87.459 42.947z"/><path d="M555.97 131.638s6.304-39.526 49.639-46.277c25.599-3.989 105.697 78.587 105.697 78.587l9.104-4.473s-40.956-41.812-48.995-50.318c-28.44-30.093-75.322-62.014-106.617-57.24-42.976 6.556-55.955 23.828-55.955 23.828l47.126 55.893z" fill="#fff"/><path d="M711.306 164.948a.998.998 0 0 1-.718-.304c-.798-.822-80.031-82.163-104.825-78.295-42.083 6.556-48.743 45.059-48.806 45.447a.999.999 0 0 1-1.752.486l-47.126-55.893a1.001 1.001 0 0 1-.035-1.245c.54-.719 13.717-17.674 56.604-24.216 30.467-4.648 77.146 25.428 107.494 57.542 7.941 8.402 48.573 49.887 48.983 50.305a1 1 0 0 1-.273 1.597l-9.104 4.473a1.002 1.002 0 0 1-.441.102zm-103.85-80.723c26.717 0 96.773 71.04 104.06 78.505l7.213-3.544c-6.247-6.38-40.776-41.658-48.04-49.343-29.991-31.735-75.941-61.483-105.74-56.938-37.465 5.715-52.011 19.771-54.793 22.843l45.271 53.694c2.053-8.276 12.195-39.176 50.027-45.07a13.046 13.046 0 0 1 2.002-.148zM806.37 194.613l25.907-20.258S1020.546 361.2 1094 545.246c39.645 99.334 38.509 180.303 21.735 276.735-40.182 231.005-259.893 270.369-259.893 270.369l-18.024-91.325s176.98-31.242 198.609-249.941c18.63-188.374-87.531-348.148-108.978-377.574-55.886-76.677-121.079-178.898-121.079-178.898z"/><path d="M855.842 1093.351a1 1 0 0 1-.98-.807l-18.024-91.325a1.004 1.004 0 0 1 .807-1.179c.44-.078 44.619-8.197 90.845-42.831 42.643-31.949 95.811-93.661 106.943-206.223 19.266-194.802-95.627-358.825-108.792-376.887-55.266-75.825-120.462-177.927-121.113-178.949a1 1 0 0 1 .227-1.325l25.906-20.258a1 1 0 0 1 1.32.078c.472.468 47.75 47.548 103.391 116.51 51.364 63.663 120.567 159.532 158.558 254.72 40.476 101.413 37.984 184.19 21.792 277.277-9.191 52.843-28.617 99.985-57.735 140.116-23.296 32.106-52.81 59.817-87.722 82.364-59.432 38.381-114.693 48.603-115.244 48.702a.982.982 0 0 1-.178.016zm-16.849-91.538 17.638 89.365c7.599-1.538 58.812-12.859 113.614-48.268 54.503-35.216 123.816-102.161 144.505-221.1 16.135-92.753 18.622-175.217-21.679-276.193-37.896-94.95-106.969-190.636-158.241-254.187-52.11-64.589-96.871-109.954-102.635-115.742l-24.493 19.152c6.116 9.557 67.858 105.781 120.556 178.081 13.21 18.125 128.504 182.722 109.165 378.262-4.948 50.028-18.503 94.346-40.289 131.722-17.438 29.917-40.156 55.475-67.522 75.963-42.729 31.989-83.755 41.521-90.618 42.944z"/><path d="M785.073 187.646s10.26-6.678 21.297-8.374c11.434-1.757 21.175 1.75 21.175 1.75s179.645 170.497 253.1 354.544c39.645 99.334 42.344 177.29 25.57 273.722-40.182 231.005-253.546 270.369-253.546 270.369l-18.024-91.325s170.633-31.242 192.262-249.941c18.63-188.374-87.531-348.148-108.978-377.574-55.886-76.677-132.856-173.171-132.856-173.171z" fill="#adc4cb"/><path d="M852.668 1080.657a1 1 0 0 1-.98-.807l-18.024-91.325a1 1 0 0 1 .8-1.177c.426-.078 43.012-8.197 87.668-42.827 41.199-31.949 92.647-93.663 103.78-206.229 19.266-194.802-95.627-358.825-108.792-376.887-55.233-75.782-132.06-172.172-132.829-173.137a.999.999 0 0 1 .236-1.462c.427-.277 10.569-6.815 21.69-8.524 11.557-1.775 21.258 1.651 21.666 1.797.13.047.249.12.35.216.449.427 45.575 43.417 99.088 108.344 49.399 59.935 116.261 151.362 154.253 246.555 42.388 106.208 40.9 186.453 25.626 274.264-9.191 52.839-28.28 99.978-56.738 140.107-22.768 32.106-51.546 59.818-85.535 82.366-57.865 38.385-111.541 48.609-112.076 48.708a1.048 1.048 0 0 1-.183.017zm-16.851-91.545 17.639 89.367c7.49-1.564 57.164-12.903 110.433-48.258 53.06-35.216 120.651-102.162 141.341-221.104 15.217-87.476 16.701-167.409-25.513-273.18-37.894-94.944-104.618-186.182-153.921-246.002-51.847-62.907-95.799-105.185-98.781-108.037-1.408-.464-10.327-3.2-20.492-1.638-8.797 1.352-17.207 6.006-19.963 7.647 7.88 9.903 79.747 100.386 132.177 172.321 13.211 18.125 128.505 182.722 109.166 378.262-4.947 50.024-18.167 94.337-39.291 131.711-16.909 29.917-38.892 55.475-65.334 75.964-41.235 31.95-80.757 41.503-87.46 42.947z"/><path d="M752.202 235.218s12.448-40.693 49.088-52.395c22.375-7.146 35.452 7.214 35.452 7.214l15.341 6.009-26.55-25.412c-18.891-17.154-48.638-11.464-67.566-5.981l-62.504 3.271 56.739 67.295z"/><path d="M752.202 236.218c-.291 0-.572-.127-.765-.355l-56.739-67.295a1 1 0 0 1 .712-1.643l62.39-3.265c30.975-8.951 53.993-6.855 68.405 6.233l26.569 25.43a1 1 0 0 1-1.056 1.654l-15.342-6.009a.999.999 0 0 1-.374-.257c-.128-.139-12.954-13.79-34.408-6.935-35.702 11.402-48.313 51.333-48.437 51.735a1 1 0 0 1-.956.707zm-54.678-67.401 54.309 64.411c2.884-7.891 16.734-41.005 49.152-51.358 21.346-6.816 34.67 5.651 36.322 7.314l10.429 4.084-22.895-21.913c-13.862-12.588-36.274-14.526-66.597-5.743a1.008 1.008 0 0 1-.226.038l-60.495 3.166z"/><path d="M742.281 229s11.503-40.398 52.984-54.644c26.571-9.125 48.743 12.021 48.743 12.021l-11.731-12.021s-58.032-47.742-111.867-21.383c-13.62 6.669-28.223 21.383-28.223 21.383L742.28 229z" fill="#fff"/><path d="M742.281 230a.999.999 0 0 1-.737-.324l-50.093-54.644a1 1 0 0 1 .027-1.38c.602-.606 14.878-14.911 28.493-21.577 28.142-13.779 57.372-7.182 76.938.779 21.134 8.599 35.857 20.61 36.004 20.73.027.023.055.048.08.074l11.731 12.021a.999.999 0 0 1-1.405 1.422c-.219-.207-22.065-20.615-47.729-11.799-40.483 13.903-52.234 53.573-52.348 53.973a1.004 1.004 0 0 1-.961.726zm-48.703-55.608 48.288 52.676c2.748-7.815 16.387-41.057 53.074-53.657 16.38-5.626 31.216.098 40.344 5.459l-3.683-3.774c-.865-.701-15.176-12.151-35.497-20.41-19.174-7.793-47.795-14.259-75.254-.815-11.666 5.712-24.248 17.581-27.272 20.521z"/><path d="M856.621 1148.604a23.014 23.014 0 0 0 11.263-19.824l-.848-546.517s.869-361.589-317.313-501.338c-52.348-22.992-93.008-23.707-125.038-11.124-42.477 16.687-277.63 160.841-277.63 160.841l188.997 595.522 275.826 459.351 244.743-136.91z" fill="#adc4cb"/><path d="M611.878 1286.514a1 1 0 0 1-.858-.485L335.194 826.678a1.037 1.037 0 0 1-.096-.212L146.101 230.943a.999.999 0 0 1 .431-1.155c2.352-1.442 235.714-144.391 277.787-160.919 35.178-13.821 77.507-10.074 125.806 11.139 72.719 31.939 134.686 78.223 184.179 137.566 39.589 47.467 71.327 103.345 94.333 166.08 39.164 106.798 39.401 197.704 39.399 198.61l.849 546.513c.012 8.447-4.491 16.373-11.753 20.686l-.022.013-244.743 136.91a.999.999 0 0 1-.487.128zM336.969 825.748l275.267 458.419 243.884-136.43c6.651-3.955 10.775-11.218 10.765-18.957l-.849-546.517c.002-.907-.243-91.513-39.302-197.986-36.027-98.21-113.4-230.401-277.414-302.438-47.79-20.99-89.6-24.729-124.271-11.109-40.798 16.027-262.873 151.825-276.805 160.354zm519.651 322.855h.01z"/><path d="M602.158 1285.319c6.522 3.775 14.683-.939 14.672-8.475l-.851-548.358s-13.466-361.25-317.313-501.338c-120.778-55.684-182.923 19.412-208.848 76.545-13.775 30.357-20.301 63.503-20.228 96.839l1.269 577.261 531.299 307.527z" fill="#fff"/><path d="M607.055 1287.651c-1.854 0-3.708-.489-5.397-1.467l-531.3-307.526a.998.998 0 0 1-.499-.863L68.59 400.534c-.076-34.656 6.76-67.377 20.316-97.254 11.583-25.526 38.207-71.026 86.377-88.961 35.958-13.386 77.608-9.376 123.801 11.92 69.444 32.017 129.373 78.349 178.12 137.707 38.988 47.476 70.949 103.341 94.994 166.045 40.934 106.744 44.746 197.552 44.779 198.457l.852 548.394c.006 3.901-2.007 7.396-5.385 9.347a10.752 10.752 0 0 1-5.39 1.462zM71.858 977.215l530.802 307.238c2.749 1.592 6.033 1.593 8.784.004s4.391-4.435 4.386-7.612l-.851-548.358c-.033-.866-3.841-91.397-44.671-197.841-37.661-98.182-115.433-230.377-272.062-302.59-45.689-21.065-86.827-25.057-122.265-11.862-47.492 17.682-73.799 62.67-85.254 87.913-13.438 29.614-20.213 62.055-20.138 96.423l1.268 576.686z"/><path d="M726.235 934.86a13.456 13.456 0 0 0 6.712-11.654l1.293-257.794s-7.485-367.607-325.667-507.356c-52.348-22.992-95.359-25.117-95.359-25.117l-57.659 33.389s50.277-.797 102.625 22.194c318.182 139.749 314.172 508.863 314.172 508.863l.175 253.798c.004 5.824 6.313 9.458 11.353 6.539l42.355-22.864z" fill="#fff"/><path d="M680.097 959.758a8.56 8.56 0 0 1-4.281-1.158c-2.684-1.546-4.287-4.317-4.289-7.414l-.175-253.798c.01-.933.551-93.424-37.733-201.758-35.313-99.923-111.832-234.156-275.842-306.191-51.551-22.641-101.707-22.121-102.206-22.11h-.016a1 1 0 0 1-.501-1.865l57.659-33.389a.983.983 0 0 1 .551-.133c.432.021 43.795 2.398 95.711 25.2 72.718 31.938 135.123 78.538 185.481 138.503 40.28 47.964 72.983 104.534 97.202 168.14 41.229 108.28 43.563 200.687 43.581 201.608l-1.292 257.819a14.496 14.496 0 0 1-7.238 12.529l-42.355 22.864a8.468 8.468 0 0 1-4.257 1.154zM259.196 165.377c12.548.341 55.482 2.949 99.386 22.231 72.722 31.94 134.525 78.622 183.694 138.749 39.327 48.092 70.702 104.842 93.251 168.671 38.385 108.657 37.835 201.445 37.825 202.37l.175 253.786a6.495 6.495 0 0 0 3.287 5.682 6.495 6.495 0 0 0 6.564-.008l42.368-22.871a12.495 12.495 0 0 0 6.201-10.781l1.292-257.799c-.019-.892-2.353-93.009-43.475-200.975-37.931-99.587-117.574-233.421-281.595-305.46-49.334-21.668-90.849-24.77-94.715-25.016l-54.26 31.421zM726.235 934.86h.01z"/><path d="M641.325 414.848c13.918 30.461 18.722 51.32 18.722 51.32s23.949 11.151 26.119 18.015c6.817 21.564 21.643 71.36 27.577 106.337 4.527 26.681 6.349 85.913 6.349 85.913l-3.175 227.275-27.367 11.414-.857-59.813 12.642-164.317s-21.882-76.52-26.381-101.427c-3.155-17.469-14.581-60.13-21.038-81.009-2.483-8.031-.622-37.324-.622-37.324s-4.553-20.877-18.212-51.437l6.242-4.947z"/><path d="M689.551 916.122a.999.999 0 0 1-1-.986l-.857-59.813 12.631-164.229c-1.166-4.086-22.001-77.251-26.354-101.352-3.264-18.07-14.814-60.862-21.009-80.892-2.444-7.907-.827-35.052-.673-37.54-.419-1.836-5.227-22.265-18.119-51.109a1 1 0 0 1 .292-1.192l6.242-4.947a.998.998 0 0 1 1.53.368c12.655 27.697 17.858 47.737 18.672 51.035 3.94 1.86 24.073 11.647 26.213 18.415 3.441 10.886 20.944 67.181 27.61 106.471 4.485 26.443 6.345 85.457 6.363 86.05l-3.175 227.32a1.002 1.002 0 0 1-.615.909l-27.366 11.413a.995.995 0 0 1-.385.077zm-53.239-496.026c13.302 29.924 17.915 50.714 17.961 50.922.02.091.026.184.021.276-.019.291-1.821 29.201.578 36.965 6.209 20.077 17.791 62.988 21.067 81.127 4.438 24.574 26.14 100.566 26.358 101.33.032.114.044.233.035.352L689.69 855.385l.839 58.244 25.397-10.592 3.165-226.619c-.018-.547-1.872-59.424-6.336-85.732-6.643-39.16-24.11-95.339-27.544-106.203-1.671-5.285-19.038-14.359-25.588-17.41a1.004 1.004 0 0 1-.553-.682c-.047-.205-4.821-20.586-18.128-49.967l-4.632 3.671z"/><path d="M635.083 419.795c-7.784-17.416-18.525-37.977-33.066-59.611-45.47-67.65-125.58-146.46-223.196-184.502-53.272-20.761-96.443-25.097-96.443-25.097l8.921-4.86s44.209 5.468 97.617 25.876c95.758 36.59 173.159 116.651 218.968 183.943 14.633 21.496 25.515 41.957 33.44 59.304l-6.242 4.947z" fill="#dbf301"/><path d="M635.082 420.795a.998.998 0 0 1-.913-.592c-9.194-20.574-20.291-40.579-32.982-59.461-20.792-30.935-98.304-135.638-222.729-184.128-52.537-20.475-95.75-24.99-96.18-25.033a1 1 0 0 1-.379-1.873l8.921-4.86a1 1 0 0 1 .602-.114c.443.055 44.941 5.717 97.851 25.934 44.146 16.868 87.388 44.001 128.523 80.645 42.719 38.053 73.019 77.379 90.914 103.669 12.836 18.856 24.115 38.858 33.523 59.451a1 1 0 0 1-.288 1.199l-6.242 4.947a1.002 1.002 0 0 1-.621.216zM285.598 149.97c10.882 1.436 48.901 7.365 93.587 24.78 45.475 17.722 89.699 45.084 131.444 81.325 35.526 30.842 67.414 66.649 92.218 103.551 12.514 18.617 23.484 38.321 32.621 58.587l4.621-3.661a403.413 403.413 0 0 0-33.031-58.445c-27.686-40.67-104.397-139.972-218.498-183.571-50.327-19.23-92.986-25.233-97.067-25.776l-5.895 3.211z"/><path d="m688.694 855.31 21.203-57.034 152.25-346.477c3.513-8 2.135-15.253-4.052-21.418l-69.903-71.177c-1.451-1.44-3.44-1.844-5.202-1.368-1.347.373-12.134 6.497-12.217 6.559l-26.309 62.97-26.351 63.074-25.211 60.37-8.455 20.227 3.864 178.382.372 87.22.01 18.672z" fill="#fff"/><path d="M688.695 856.31a1 1 0 0 1-1.001-1l-.011-18.672-.372-87.217-3.863-178.365a.996.996 0 0 1 .077-.407l86.326-206.641c.069-.165.181-.308.323-.415.069-.052 10.97-6.285 12.55-6.722 2.232-.605 4.542.002 6.173 1.622l69.912 71.186c6.433 6.411 7.906 14.202 4.254 22.521l-152.25 346.477-21.182 56.981a1 1 0 0 1-.937.652zm-3.243-285.085 3.859 178.171.372 87.238.008 13.125 19.269-51.832 152.272-346.531c3.34-7.606 2.047-14.438-3.843-20.308l-69.91-71.185c-1.109-1.102-2.691-1.519-4.228-1.103-1.018.285-9.885 5.25-11.684 6.287l-86.116 206.137z"/><path d="M845.25 451.798 688.627 823.387l.056 13.25.011 18.673 21.203-57.035 152.25-346.477z"/><path d="M688.695 856.31a1 1 0 0 1-1.001-1l-.067-31.919c0-.135.026-.268.078-.393l156.623-371.589a1 1 0 0 1 .922-.612h16.897a1.001 1.001 0 0 1 .915 1.402l-152.25 346.477-21.181 56.98a1 1 0 0 1-.937.652zm.933-32.723.063 26.171 19.269-51.832 151.656-345.129h-14.702L689.628 823.586z"/><path d="M852.172 453.746 709.886 779.602l-21.203 57.035s-.607-67.455-.422-89.523c.858-102.318-14.272-162.182-14.272-162.182l8.686-20.021 7.419-17.087 25.885-59.644 27.055-62.318 25.615-59.022c1.818-4.447 8.734-5.86 11.413-2.597l67.788 66.665c6.197 6.155 7.834 14.849 4.321 22.838z" fill="#87c159"/><path d="M688.684 837.637a1 1 0 0 1-1.001-.991c-.006-.675-.604-67.716-.422-89.54.847-100.992-14.09-161.331-14.241-161.929a1 1 0 0 1 .053-.643l94.66-218.093c1.037-2.537 3.607-4.415 6.699-4.881 2.604-.393 4.982.356 6.367 2.005l67.753 66.63c6.47 6.427 8.207 15.604 4.535 23.953L710.802 780.002l-21.182 56.983a1 1 0 0 1-.937.652zM675.04 585.022c1.2 4.983 15.037 64.72 14.221 162.101-.151 18.145.237 67.596.375 84.08l19.313-51.949 142.308-325.908v-.002c3.33-7.574 1.755-15.899-4.111-21.726l-67.784-66.662a1.33 1.33 0 0 1-.072-.078c-.926-1.13-2.628-1.631-4.56-1.34-2.362.356-4.386 1.801-5.154 3.68l-94.535 217.804z"/><path d="M770.032 455.282a.996.996 0 0 1-.725-.311l-26.997-28.423a1 1 0 0 1 1.449-1.378l26.997 28.423a1 1 0 0 1-.724 1.689zm-27.197 62.298a.997.997 0 0 1-.727-.313l-26.851-28.4a1.001 1.001 0 0 1 1.453-1.374l26.851 28.4a1 1 0 0 1-.727 1.687zm-25.936 59.703a.997.997 0 0 1-.728-.314l-26.803-28.458a1 1 0 0 1 1.455-1.372l26.803 28.458a1 1 0 0 1-.728 1.686z"/><path d="m559.794 1270.761-70.925 43.252L80.494 985.257 22.368 643.438s63.522-50.569 72.762-55.919 21.132-6.12 31.7-.01l369.895 213.87c44.213 25.564 71.485 72.722 71.59 123.793l.679 329.162a19.193 19.193 0 0 1-9.201 16.427z" fill="#adc4cb"/><path d="M488.868 1315.014a.996.996 0 0 1-.627-.221L79.867 986.036a1 1 0 0 1-.359-.611L21.382 643.606a1 1 0 0 1 .363-.95c2.597-2.067 63.686-50.676 72.884-56.002 10.236-5.927 22.46-5.931 32.702-.01l369.896 213.87c44.361 25.65 71.984 73.416 72.089 124.657l.679 329.162c.015 7.01-3.694 13.633-9.68 17.283l-70.926 43.252a.997.997 0 0 1-.521.146zM81.416 984.715l407.531 328.079 70.326-42.886c5.392-3.289 8.733-9.255 8.721-15.572l-.679-329.162c-.104-50.532-27.344-97.635-71.091-122.93l-369.896-213.87c-9.611-5.558-21.089-5.554-30.698.009-8.659 5.013-66.394 50.869-72.178 55.468l57.963 340.863zm478.378 286.046h.01z"/><path d="M566.619 903.456a143.411 143.411 0 0 1 1.697 21.715l.679 329.162a19.193 19.193 0 0 1-9.201 16.427l-70.925 43.252-325.543-262.075 326.638-106.715 76.656-41.767z"/><path d="M488.868 1315.014a.996.996 0 0 1-.627-.221l-325.543-262.075a.997.997 0 0 1-.356-.959.998.998 0 0 1 .673-.771l326.551-106.687 76.575-41.723a.998.998 0 0 1 1.467.725 144.962 144.962 0 0 1 1.708 21.867l.679 329.162c.015 7.01-3.694 13.633-9.68 17.283l-70.926 43.252a.997.997 0 0 1-.521.146zm-323.479-262.697 323.559 260.478 70.326-42.886c5.392-3.289 8.733-9.256 8.721-15.572l-.679-329.162a143.11 143.11 0 0 0-1.473-20.155l-75.401 41.083c-.054.029-.11.053-.168.072z"/><path d="M476.65 1313.867 17.844 1047.97c-6.779-3.929-10.235-9.376-10.987-18.997 0 0-5.521-102.42-5.848-188.806-.284-75.006 5.833-168.724 5.833-168.724 1.233-27.573 25.254-39.787 46.391-27.565 0 0 147.601 88.949 197.359 117.647 42.783 24.675 172.536 96.222 172.536 96.222 44.213 25.564 71.485 72.722 71.59 123.793l.663 321.506c.02 9.625-10.404 15.646-18.732 10.82z" fill="#fff"/><path d="M482.906 1316.571a13.44 13.44 0 0 1-6.757-1.839L17.343 1048.835c-7.295-4.228-10.729-10.144-11.482-19.785C5.804 1028.002.333 925.592.01 840.17c-.281-74.182 5.773-167.855 5.834-168.793.601-13.428 6.641-24.26 16.57-29.696 9.474-5.186 20.886-4.702 31.319 1.33 1.491.899 148.178 89.282 197.359 117.647 42.284 24.388 171.221 95.498 172.519 96.213 44.378 25.659 72.002 73.425 72.107 124.667l.662 321.506c.011 4.882-2.507 9.255-6.734 11.697a13.454 13.454 0 0 1-6.741 1.829zM36.424 640.117c-4.563 0-9 1.102-13.049 3.319-9.303 5.093-14.965 15.318-15.534 28.052-.063.957-6.112 94.563-5.831 168.675.322 85.373 5.791 187.732 5.846 188.756.704 9 3.743 14.276 10.489 18.186l458.806 265.897c3.6 2.085 7.896 2.088 11.495.008 3.601-2.08 5.744-5.803 5.735-9.96l-.662-321.506c-.104-50.532-27.345-97.636-71.092-122.93-1.279-.706-130.232-71.825-172.534-96.222-49.197-28.374-195.9-116.767-197.377-117.657-5.311-3.071-10.889-4.617-16.292-4.617z"/><path d="M448.174 1266.71 40.716 1030.571c-6.021-3.489-8.846-8.914-9.757-16.871 0 0-6.415-80.532-5.8-170.58.404-59.103 4.809-141.99 4.809-141.99 1.09-18.433 12.05-30.61 30.821-19.756 0 0 129.009 78.008 172.542 103.108 41.46 23.906 167.31 93.023 167.31 93.023 39.265 22.703 63.485 64.583 63.578 109.939l.589 269.657c.018 8.547-9.24 13.895-16.635 9.609z" fill="#fff"/><path d="M453.729 1269.223a12.05 12.05 0 0 1-6.057-1.648L40.214 1031.436c-6.098-3.534-9.259-8.969-10.249-17.623-.068-.84-6.415-81.64-5.807-170.7.399-58.45 4.767-141.208 4.811-142.037.657-11.091 4.761-19.455 11.262-22.953 5.736-3.089 13.02-2.264 21.06 2.384 1.307.79 129.515 78.299 172.541 103.108 40.977 23.627 166.033 92.322 167.292 93.013 39.45 22.809 64.004 65.266 64.097 110.813l.589 269.657c.009 4.376-2.248 8.296-6.037 10.485a12.059 12.059 0 0 1-6.043 1.64zm-5.055-3.379c3.158 1.831 6.933 1.834 10.097.007 3.162-1.827 5.046-5.097 5.038-8.749l-.589-269.657c-.092-44.837-24.262-86.632-63.079-109.075-1.239-.68-126.314-69.385-167.309-93.023-43.044-24.819-171.271-102.339-172.561-103.119-7.39-4.272-13.997-5.087-19.094-2.344-5.876 3.162-9.598 10.927-10.212 21.304-.044.823-4.408 83.535-4.808 141.938-.607 88.971 5.732 169.689 5.797 170.494.908 7.929 3.766 12.9 9.261 16.085l407.458 236.139z"/><path d="M537.841 948.178c-.027-48.637-28.115-95.146-69.675-120.41-.421-.256-86.722-46.955-173.61-97.199-98.494-56.956-199.002-118.282-199.002-118.282-7.927-4.583-16.775-7.294-24.351-7.157l-9.353 7.237c5.371-.896 15.218.676 23.604 4.805l204.683 121.555 165.213 92.315a143.228 143.228 0 0 1 50.85 49.824c12.269 20.257 21.693 44.497 21.554 68.18l-1.973 307.243h12.062V948.177z" fill="#dbf301"/><path d="M537.841 1257.29h-12.063a.998.998 0 0 1-1-1.006l1.973-307.243c.155-26.445-11.557-51.388-21.409-67.655a142.719 142.719 0 0 0-50.495-49.477l-165.199-92.308L84.942 618.033c-8.358-4.113-18.073-5.49-22.928-4.679a.996.996 0 0 1-1.081-.586.998.998 0 0 1 .304-1.191l9.354-7.237c.171-.132.379-.205.594-.209 7.584-.131 16.619 2.52 24.87 7.291 1.024.625 101.645 61.984 199.003 118.282 71.561 41.382 143.821 80.981 171.567 96.085a344.75 344.75 0 0 1 2.061 1.126c42.592 25.891 70.13 73.489 70.156 121.263v308.113a1 1 0 0 1-1 1zm-11.056-2h10.056V948.178c-.026-47.091-27.188-94.02-69.195-119.556-.067-.038-.749-.409-1.978-1.078-27.753-15.108-100.032-54.717-171.613-96.11-97.379-56.31-198.018-117.681-199.022-118.294-7.804-4.511-16.355-7.069-23.482-7.015l-6.467 5.003c5.57-.044 13.564 1.578 20.811 5.147l204.752 121.592 165.19 92.302c20.969 12.125 38.675 29.474 51.217 50.179 9.985 16.488 21.855 41.791 21.698 68.704l-1.966 306.237zM455.999 96.244l-59.502 30.37V52.54h59.502z"/><path d="M396.496 127.614a1 1 0 0 1-1-1V52.54a1 1 0 0 1 1-1h59.503a1 1 0 0 1 1 1v43.704c0 .376-.211.72-.545.891l-59.503 30.37c-.144.073-.3.109-.455.109zm1-74.074v71.441l57.503-29.349V53.54zm58.503 42.704h.01z"/><path d="m382.609 121.399 13.888 5.215.368-40.801s1.31-19.138 20.943-28.682c17.767-8.637 33.267 1.261 33.267 1.261l47.966 25.856c18.345 11.793 32.268 24.795 46.183 49.764 19.757 35.451 16.836 50.796 16.836 50.796l-.632 35.218 14.488 14.519 44.059-26.965-60.168-155.931-105.036-39.501-44.804 25.285s-11.807 5.829-20.019 17.456c-6.183 8.754-7.34 23.136-7.34 23.136V121.4z" fill="#fff"/><path d="M575.916 235.545a.996.996 0 0 1-.708-.294l-14.488-14.519a1 1 0 0 1-.292-.724l.632-35.218c0-.057.007-.113.018-.169.027-.148 2.544-15.544-16.727-50.122-14.368-25.78-28.721-38.397-45.852-49.409L450.6 59.273c-.214-.133-15.327-9.521-32.355-1.242-18.852 9.164-20.369 27.666-20.382 27.852l-.366 40.741a1 1 0 0 1-1.352.928l-13.888-5.215a1 1 0 0 1-.648-.936V78.026c.052-.679 1.255-14.837 7.523-23.713 8.263-11.7 19.901-17.533 20.394-17.776l44.754-25.26a.998.998 0 0 1 .843-.065l105.036 39.501c.268.1.479.31.581.576l60.168 155.931c.174.45 0 .961-.41 1.213l-44.059 26.965a1 1 0 0 1-.522.147zm-13.48-15.926 13.631 13.661 42.675-26.118-59.706-154.735-104.18-39.179-44.396 25.056c-.164.083-11.733 5.892-19.694 17.162-5.948 8.424-7.148 22.498-7.159 22.639l.003 42.602 11.9 4.469.355-39.371c.016-.256 1.583-19.887 21.505-29.572 18.063-8.78 34.083 1.215 34.243 1.317l47.902 25.819c17.45 11.214 32.013 24.013 46.582 50.157 19.144 34.349 17.2 49.927 16.961 51.379l-.622 34.716zm-178.827-98.22h.01z"/><path d="M409.968 37.433s7.009-3.419 18.357-3.165c7.056.158 12.683 1.749 16.774 3.798 41.435 20.758 67.413 38.929 67.413 38.929 18.345 11.793 30.778 24.734 44.693 49.703 19.757 35.451 19.597 63.319 19.597 63.319l-.885 44.529 58.376-34.721s2.065-29.562.787-45.288c-1.865-22.95-11.448-42.607-15.176-50.394-15.094-31.525-35.497-50.544-46.625-59.746-9.049-7.483-44.861-28.739-62.982-37.662-4.778-2.353-12.707-5.349-23.104-5.697-14.139-.474-19.595 3.873-19.595 3.873l-57.629 32.524z" fill="#adc4cb"/><path d="M575.916 235.545a1.003 1.003 0 0 1-1-1.02l.885-44.529c0-.262-.087-28.031-19.47-62.812-13.189-23.664-25.212-37.039-44.361-49.349-.291-.203-26.435-18.393-67.32-38.876-3.17-1.589-8.58-3.519-16.348-3.693-10.919-.244-17.829 3.032-17.896 3.065a1 1 0 0 1-.928-1.77l57.569-32.49c.729-.542 6.525-4.492 20.179-4.035 10.406.349 18.53 3.346 23.513 5.799 17.455 8.595 53.729 29.975 63.178 37.789 19.904 16.459 35.681 36.674 46.89 60.085l.199.417c3.957 8.257 13.224 27.592 15.071 50.328 1.27 15.621-.765 45.143-.785 45.439a1.002 1.002 0 0 1-.487.79l-58.376 34.721a.994.994 0 0 1-.511.141zM427.111 33.254c.406 0 .818.004 1.236.014 8.139.182 13.845 2.224 17.199 3.904 41.026 20.553 67.277 38.821 67.538 39.003 19.424 12.485 31.627 26.052 44.993 50.036 19.658 35.273 19.726 63.53 19.724 63.811l-.85 42.743 56.378-33.533c.267-4.026 1.917-30.285.752-44.616-1.817-22.367-10.972-41.468-14.881-49.625l-.2-.418c-11.082-23.147-26.68-43.135-46.36-59.407-8.69-7.187-43.897-28.235-62.785-37.536-4.807-2.367-12.646-5.258-22.696-5.595-13.508-.452-18.89 3.618-18.942 3.659-.039.03-.085.061-.128.085l-50.083 28.265a51.629 51.629 0 0 1 9.105-.791z"/><path d="M574.405 171.621c2.283 12.034 2.396 18.395 2.396 18.395l-.885 44.529 58.376-34.721s2.065-29.562.787-45.288c-.507-6.232-1.582-12.221-2.955-17.796l-57.719 34.882z"/><path d="M575.916 235.545a1.003 1.003 0 0 1-1-1.02l.885-44.529c0-.025-.142-6.401-2.379-18.189a.998.998 0 0 1 .465-1.042l57.72-34.882a1 1 0 0 1 1.488.617c1.508 6.124 2.51 12.165 2.98 17.954 1.27 15.621-.765 45.143-.785 45.439a1.002 1.002 0 0 1-.487.79l-58.376 34.721a.994.994 0 0 1-.511.141zm-.4-63.427c2.15 11.537 2.28 17.622 2.285 17.88l-.85 42.767 56.378-33.533c.267-4.026 1.917-30.285.752-44.616-.427-5.266-1.305-10.748-2.61-16.314z"/><path d="M341.526 926.258s-13.427-20.163-30.426-14.929c-17.672 5.441-20.874 27.659-11.099 53.124 19.83 51.658 76.296 87.486 76.296 87.486s28.063-50.644 22.607-99.057c-2.411-21.394-20.942-52.392-40.734-49.196-14.755 2.382-16.644 22.572-16.644 22.572z" fill="#adc4cb"/><path d="M376.297 1052.939a.998.998 0 0 1-.536-.156c-.567-.36-56.974-36.599-76.694-87.972-6.42-16.726-7.246-32.187-2.268-42.42 2.926-6.015 7.639-10.058 14.006-12.018 14.408-4.436 26.087 8.235 30.087 13.335 1.04-5.629 4.791-19.019 17.119-21.01 5.881-.951 11.91.867 17.892 5.407 13.469 10.222 22.415 30.641 23.996 44.664 5.429 48.173-22.444 99.144-22.727 99.654a1.001 1.001 0 0 1-.875.515zm-59.55-141.467c-1.736 0-3.525.25-5.354.812-5.816 1.791-10.121 5.486-12.796 10.982-4.737 9.737-3.885 24.618 2.337 40.828 18.114 47.188 67.682 81.535 74.996 86.408 3.762-7.18 26.932-53.582 21.98-97.508-1.555-13.8-10.664-33.767-23.217-43.295-5.528-4.196-11.037-5.886-16.364-5.026-13.81 2.23-15.79 21.484-15.809 21.679a.999.999 0 0 1-1.827.46c-.115-.173-10.411-15.341-23.946-15.341z"/><ellipse cx="274.971" cy="1009.512" fill="#fff" rx="68.365" ry="116.955" transform="matrix(.8660254 -.5 .5 .8660254 -467.917 272.735)"/><path d="M311.4 1117.466c-11.535 0-24.273-3.788-37.438-11.295-22.379-12.761-43.354-34.771-59.062-61.977-15.707-27.206-24.281-56.376-24.143-82.137.14-25.957 9.103-45.382 25.237-54.697s37.438-7.365 59.987 5.493c22.379 12.761 43.354 34.771 59.062 61.977 32.52 56.327 32.028 117.71-1.095 136.834-6.714 3.876-14.327 5.802-22.549 5.802zM238.549 903.56c-7.879 0-15.151 1.835-21.555 5.532-15.494 8.945-24.102 27.759-24.237 52.976-.137 25.412 8.342 54.223 23.875 81.126 15.532 26.903 36.244 48.652 58.319 61.239 21.908 12.491 42.503 14.443 57.997 5.498 32.169-18.573 32.331-78.73.362-134.102-15.532-26.903-36.244-48.652-58.319-61.239-12.854-7.329-25.258-11.03-36.442-11.03z"/><ellipse cx="275.257" cy="1009.579" fill="#dbf301" rx="62.415" ry="108.602" transform="matrix(.8660254 -.5 .5 .8660254 -467.912 272.887)"/><path d="M309.726 1109.725c-10.684 0-22.527-3.594-34.795-10.709-20.614-11.956-40.002-32.458-54.593-57.729s-22.651-52.313-22.699-76.143c-.047-24.032 8.056-41.96 22.817-50.482 30.283-17.484 79.502 10.873 109.721 63.21 14.59 25.271 22.651 52.313 22.698 76.143.048 24.032-8.056 41.96-22.817 50.482-6.05 3.493-12.912 5.228-20.332 5.228zm-68.974-198.27c-6.974 0-13.496 1.589-19.296 4.938-14.115 8.149-21.863 25.461-21.817 48.746.047 23.487 8.013 50.174 22.432 75.147 14.418 24.973 33.547 45.216 53.863 56.999 20.141 11.682 39.009 13.629 53.124 5.479 14.115-8.149 21.863-25.461 21.817-48.746-.046-23.486-8.013-50.174-22.431-75.147-23.8-41.222-59.402-67.416-87.692-67.416z"/><path d="M263.852 990.965a1 1 0 0 1-.998-.962c-.009-.217-1.026-21.682-17.155-23.529-6.105-.698-7.327 7.303-7.376 7.644a1 1 0 0 1-1.981-.281c.503-3.556 3.154-10.088 9.583-9.35 17.84 2.043 18.918 25.206 18.927 25.44a1 1 0 0 1-.961 1.037h-.039zm48.383 27.356a1 1 0 0 1-.998-.962c-.009-.217-1.025-21.682-17.156-23.529-6.07-.697-7.325 7.303-7.374 7.645a.995.995 0 0 1-1.132.848 1 1 0 0 1-.849-1.129c.501-3.556 3.155-10.088 9.583-9.35 17.84 2.043 18.917 25.206 18.926 25.44a1 1 0 0 1-.961 1.037h-.039z"/><path d="M236.122 1011.33s4.1 30.42 33.712 47.15c37.288 21.067 44.203-1.886 44.203-1.886z" fill="#fff"/><path d="M296.7 1068.394c-7.542 0-16.7-3.023-27.358-9.044-29.701-16.78-34.169-47.578-34.211-47.887a1 1 0 0 1 1.494-.998l77.914 45.264a1 1 0 0 1 .455 1.153c-.084.28-2.155 6.899-9.828 9.981-2.543 1.021-5.369 1.531-8.465 1.531zm-59.184-55.098c1.572 7.107 8.456 30.553 32.81 44.312 14.249 8.05 26.022 10.615 34.051 7.415 5.368-2.139 7.678-6.315 8.417-7.995l-75.277-43.732z"/><path d="m255.894 1022.816.272 25.52" fill="#fff"/><path d="M256.166 1049.336a1 1 0 0 1-1-.989l-.272-25.52a1 1 0 0 1 .989-1.01h.011a1 1 0 0 1 1 .989l.272 25.52a1 1 0 0 1-.989 1.01h-.011z"/><path d="M273.878 1060.654v-27.39" fill="#fff"/><path d="M273.878 1061.654a1 1 0 0 1-1-1v-27.39a1 1 0 1 1 2 0v27.39a1 1 0 0 1-1 1z"/><path d="m293.294 1067.173-.255-22.778" fill="#fff"/><path d="M293.294 1068.174a1 1 0 0 1-1-.989l-.255-22.779a1 1 0 0 1 .989-1.011h.011a1 1 0 0 1 1 .989l.255 22.779a1 1 0 0 1-.989 1.011h-.011zm363.899-638.496c4.842 13.175 2.959 25.99-4.207 28.624-7.165 2.633-16.899-5.912-21.742-19.087s-5.774-23.807 1.391-26.441c7.165-2.633 19.715 3.729 24.557 16.904z"/><path d="M650.243 459.782c-3.065 0-6.398-1.482-9.659-4.344-4.229-3.713-7.88-9.352-10.278-15.878-7.224-19.657-2.908-25.926 1.985-27.724 3.89-1.43 9.133-.452 14.025 2.615 5.317 3.334 9.513 8.619 11.814 14.882 2.398 6.526 3.269 13.187 2.45 18.755-.851 5.786-3.425 9.746-7.251 11.152a8.887 8.887 0 0 1-3.087.542zm-14.068-46.6c-1.149 0-2.226.174-3.194.53-7.313 2.688-4.47 15.164-.798 25.157 2.285 6.218 5.737 11.568 9.721 15.065 3.817 3.351 7.627 4.57 10.737 3.428 3.105-1.141 5.223-4.538 5.962-9.566.771-5.244-.063-11.556-2.349-17.774-2.149-5.849-6.057-10.778-11-13.878-3.094-1.94-6.297-2.963-9.079-2.963z"/><path d="M660.084 428.615c4.954 13.133 2.959 25.99-4.207 28.624-7.165 2.633-16.518-6.058-21.742-19.087-8.699-21.697-4.388-25.963 4.207-28.624 7.293-2.257 14.361-.477 21.742 19.087z" fill="#dbf301"/><path d="M653.247 458.7c-6.996 0-15.152-7.986-20.039-20.176-4.787-11.939-5.951-19.299-3.776-23.865 1.68-3.525 5.134-5.009 8.615-6.087 9.883-3.061 16.543 2.644 22.973 19.689 3.346 8.868 3.715 18.113.965 24.126-1.32 2.887-3.313 4.889-5.763 5.789a8.567 8.567 0 0 1-2.975.522zm-10.477-48.922c-1.402 0-2.78.287-4.132.706-4.167 1.29-6.312 2.749-7.401 5.036-1.889 3.964-.673 11.037 3.826 22.26 5.104 12.728 14.093 20.863 20.469 18.521 1.938-.712 3.539-2.352 4.633-4.743 2.537-5.546 2.147-14.202-1.017-22.589-5.789-15.346-11.251-19.191-16.378-19.191z"/><path d="m682.782 505.785-20.838 7.891c-5.472 2.072-11.587-.69-13.65-6.165l-22.759-58.832c-2.065-5.48.706-11.595 6.187-13.656l19.561-7.355c5.762-2.167 12.194.718 14.408 6.463l23.155 58.089c2.089 5.421-.632 11.507-6.065 13.564z"/><path d="M658.191 515.368c-1.621 0-3.239-.345-4.762-1.033a11.499 11.499 0 0 1-6.07-6.472l-22.756-58.823c-1.096-2.909-.993-6.061.286-8.884s3.581-4.978 6.482-6.069l19.562-7.355c6.249-2.35 13.29.807 15.691 7.039l23.151 58.078a11.409 11.409 0 0 1-.228 8.823 11.399 11.399 0 0 1-6.412 6.047l-20.838 7.891a11.59 11.59 0 0 1-4.107.757zm-2.986-87.414c-1.188 0-2.395.209-3.568.65l-19.562 7.355a9.534 9.534 0 0 0-5.364 5.023 9.53 9.53 0 0 0-.239 7.345l22.756 58.823a9.519 9.519 0 0 0 5.025 5.362 9.514 9.514 0 0 0 7.337.228l20.838-7.891a9.407 9.407 0 0 0 5.295-4.994 9.41 9.41 0 0 0 .191-7.276l-23.15-58.078c-1.561-4.05-5.452-6.547-9.559-6.547z"/><path d="m687.074 503.96-20.838 7.891c-5.472 2.072-11.587-.69-13.65-6.165l-22.759-58.832c-2.065-5.48.706-11.595 6.187-13.656l19.561-7.355c5.762-2.167 12.194.718 14.408 6.463l23.155 58.089c2.089 5.421-.632 11.507-6.065 13.564z" fill="#dbf301"/><path d="M662.483 513.544c-1.621 0-3.239-.345-4.762-1.033a11.499 11.499 0 0 1-6.07-6.472l-22.756-58.823c-1.096-2.909-.993-6.061.286-8.884s3.581-4.978 6.482-6.069l19.562-7.355c6.246-2.35 13.289.808 15.692 7.039l23.15 58.078a11.409 11.409 0 0 1-.228 8.823 11.399 11.399 0 0 1-6.412 6.047l-20.838 7.891a11.59 11.59 0 0 1-4.107.757zm-2.987-87.414c-1.188 0-2.394.209-3.567.65l-19.562 7.355a9.534 9.534 0 0 0-5.364 5.023 9.53 9.53 0 0 0-.239 7.345l22.756 58.823a9.519 9.519 0 0 0 5.025 5.362 9.514 9.514 0 0 0 7.337.228l20.838-7.891a9.409 9.409 0 0 0 5.295-4.993 9.41 9.41 0 0 0 .191-7.276l-23.149-58.078c-1.562-4.05-5.454-6.547-9.561-6.547z"/><circle cx="651.17" cy="445.068" r="8.312"/><path d="M651.17 454.38c-5.135 0-9.312-4.177-9.312-9.312s4.177-9.312 9.312-9.312 9.312 4.177 9.312 9.312-4.177 9.312-9.312 9.312zm0-16.623c-4.031 0-7.312 3.28-7.312 7.312s3.28 7.312 7.312 7.312 7.312-3.28 7.312-7.312-3.28-7.312-7.312-7.312z"/><path d="m654.881 443.964-7.445 2.736s-.62-5.252-3.217-13.985c-3.054-10.27-6.531-12.538-6.531-12.538l7.445-2.736s4.666 3.56 7.542 12.953c1.658 5.417 2.206 13.57 2.206 13.57z" fill="#dbf301"/><path d="M647.435 447.701a.998.998 0 0 1-.993-.883c-.006-.052-.645-5.286-3.182-13.818-2.868-9.644-6.099-11.971-6.131-11.994a1.011 1.011 0 0 1-.429-.952 1 1 0 0 1 .642-.816l7.445-2.736a.997.997 0 0 1 .951.144c.201.153 4.956 3.865 7.892 13.456 1.673 5.464 2.225 13.458 2.248 13.796.029.443-.236.853-.653 1.006l-7.445 2.736a1 1 0 0 1-.345.061zm-7.918-27.131c1.376 1.602 3.633 5.043 5.661 11.861 1.89 6.356 2.738 10.853 3.068 12.906l5.577-2.05c-.179-2.118-.788-8.297-2.105-12.6-2.25-7.351-5.647-11.02-6.799-12.103z"/></svg></g><g transform="translate(1693.2 1992.0) rotate(0.0 285.6 212.39999999999986) scale(1.1977278398332576 1.1991971476723202)"><svg width="476.903" height="354.237" viewBox="0 0 476.903 354.237"><path d="m408.013 141.526 48.101 132.571L1 204.282l277.703-63.11z" fill="#fff"/><path d="M456.114 275.097a.96.96 0 0 1-.151-.012L.848 205.27a1 1 0 0 1-.071-1.964l277.703-63.11c.074-.017.176-.022.225-.025l129.311.354a1 1 0 0 1 .938.659l48.101 132.57a1 1 0 0 1-.94 1.341zM6.351 204.091l448.247 68.761-47.287-130.328-128.498-.352z"/><path d="M1 204.282 475.903 1l-67.89 140.526z" fill="#fff"/><path d="M.999 205.282a1 1 0 0 1-.393-1.919L475.509.081a1 1 0 0 1 1.294 1.355l-67.89 140.526a1.002 1.002 0 0 1-.748.553L1.152 205.27a1.005 1.005 0 0 1-.153.012zM473.841 2.971 8.666 202.088l398.676-61.47zM373.45 212.639l82.664 61.458-124.924-19.164z"/><path d="M456.115 275.097a.964.964 0 0 1-.152-.012l-124.924-19.163a1 1 0 0 1-.556-1.695l42.26-42.294a1.001 1.001 0 0 1 1.304-.096l82.664 61.458a1 1 0 0 1-.596 1.803zm-122.822-20.853 118.995 18.254-78.741-58.541z"/><path d="m1 204.282 372.45 8.357-68.326 140.598z" fill="#fff"/><path d="M305.125 354.237a.989.989 0 0 1-.439-.102L.56 205.18a1 1 0 0 1-.532-1.135.985.985 0 0 1 .994-.763l372.45 8.357a1 1 0 0 1 .877 1.437l-68.325 140.598a1 1 0 0 1-.899.563zM5.522 205.383l299.142 146.514 67.205-138.294z"/></svg></g><g transform="translate(267.59999999999997 1534.8) rotate(0.0 504.0 331.19999999999993) scale(1.2429529009632885 1.2470137747581367)"><svg width="810.972" height="531.189" viewBox="0 0 810.972 531.189"><path d="M809.972 259.773 500.057 78.675 28.432 271.216s-13.926 10.455-13.926 37.365c0 29.994 13.871 40.31 13.871 40.31L339.41 530.189z"/><path d="M339.41 531.189a.993.993 0 0 1-.503-.136L27.874 349.755a1.156 1.156 0 0 1-.093-.062c-.583-.434-14.274-10.962-14.274-41.112 0-27.099 13.741-37.726 14.326-38.165a.983.983 0 0 1 .223-.126L499.679 77.749c.287-.117.614-.094.883.062L810.477 258.91a1 1 0 0 1-.007 1.731L339.908 531.057a.993.993 0 0 1-.498.132zM28.938 348.06l310.476 180.975 468.564-269.269-308-179.979L28.942 272.088c-1.19.972-13.437 11.602-13.437 36.493.001 28.286 12.639 38.846 13.433 39.479z"/><path d="m784.542 261.623-2.168-64.096L486.957 85.891 113.061 287.874l-73.536-10.168s-13.049 2.475-15.311 26.853c-1.933 20.83 4.218 29.648 4.218 29.648l312.089 183.636z" fill="#fff"/><path d="M340.521 518.843a1 1 0 0 1-.507-.138L27.925 335.069a1.008 1.008 0 0 1-.313-.29c-.26-.372-6.338-9.359-4.394-30.313 2.305-24.842 15.557-27.636 16.12-27.742a.948.948 0 0 1 .323-.008l73.212 10.123L486.481 85.011c.254-.138.557-.158.829-.056l295.417 111.636c.378.143.632.499.646.902l2.168 64.096a1 1 0 0 1-.499.9l-444.021 256.22a1.005 1.005 0 0 1-.5.134zM29.146 333.467l311.379 183.219 442.997-255.628-2.125-62.831L487.03 86.988 113.536 288.754a.979.979 0 0 1-.612.11l-73.348-10.142c-1.352.368-12.334 4.032-14.366 25.929-1.728 18.608 3.142 27.507 3.936 28.816z"/><path d="M808.448 182.48 500.112 1 28.432 271.216 339.387 453.15z" fill="#dbf301"/><path d="M339.387 454.15c-.174 0-.349-.046-.505-.137L27.927 272.079a1 1 0 0 1 .008-1.731L499.615.132a.996.996 0 0 1 1.004.006l308.336 181.48a.999.999 0 0 1-.007 1.728l-469.061 270.67a1.003 1.003 0 0 1-.5.134zM30.428 271.225l308.963 180.77 467.071-269.523L500.105 2.156z"/></svg></g><g transform="translate(327.59999999999997 1528.8) rotate(0.0 378.6 240.60000000000002) scale(1.2423318167872301 1.2372215480181832)"><svg width="609.499" height="388.936" viewBox="0 0 609.499 388.936"><path d="m604.609 222.095-5.269 7.71-272.73 158.131L1 199.226 282.584 37.194z"/><path d="M326.61 388.936a.994.994 0 0 1-.501-.135L.498 200.091a1 1 0 0 1 .003-1.732L282.085 36.327a.997.997 0 0 1 .997 0l322.025 184.901c.241.139.414.372.477.644s.009.557-.149.787l-5.27 7.71a1 1 0 0 1-.323.301L327.113 388.801a1 1 0 0 1-.502.135zM3 199.229 326.61 386.78l272.032-157.726 4.531-6.63L282.585 38.347z"/><path d="M326.61 323.209 21.008 150.217l.15 49.009L326.61 373.102z" fill="#adc4cb"/><path d="M326.61 374.102c-.171 0-.341-.044-.495-.131L20.662 200.095a.998.998 0 0 1-.505-.866l-.149-49.01a.998.998 0 0 1 1.492-.873l305.603 172.992c.314.177.508.51.508.87v49.893a1 1 0 0 1-1 1zM22.155 198.643 325.61 371.382v-47.59L22.013 151.935l.143 46.708z"/><path d="m326.61 387.936 271.068-157.167c7.796-3.717 9.866-10.757 10.554-18.254 2.064-22.509-8.468-25.874-8.468-25.874s-5.783-2.672-12.766 1.373L326.622 338.833l-.011 49.102z"/><path d="M326.61 388.936a.998.998 0 0 1-1-1.001l.011-49.102c0-.357.19-.686.499-.865l260.376-150.819c7.069-4.095 12.969-1.73 13.633-1.44.984.346 11.153 4.487 9.099 26.898-.615 6.701-2.434 14.924-11.119 19.065L327.113 388.801a1 1 0 0 1-.502.135zm1.011-49.526-.011 46.79 269.565-156.296c7.802-3.723 9.459-10.923 10.06-17.48 1.968-21.461-7.679-24.8-7.776-24.831a1.125 1.125 0 0 1-.114-.045c-.216-.097-5.43-2.385-11.847 1.331z"/><path d="m326.61 372.893 266.546-150.828a11.207 11.207 0 0 0 5.688-9.754v-11.105c0-6.232-5.052-11.284-11.284-11.284h-12.237L326.609 323.209v49.684z" fill="#adc4cb"/><path d="M326.61 373.893a.996.996 0 0 1-1-1v-49.684a1 1 0 0 1 .527-.881L574.85 189.041c.146-.078.308-.119.473-.119h12.237c6.773 0 12.283 5.51 12.283 12.283v11.105c0 4.391-2.374 8.461-6.195 10.624L327.102 373.762a1 1 0 0 1-.492.13zm1-50.085v47.37l265.054-149.983a10.224 10.224 0 0 0 5.18-8.883v-11.105c0-5.67-4.613-10.283-10.283-10.283h-11.986L327.611 323.809z"/><path d="M186.125 168.37 66.969 98.974l43.671-23.29 117.303 68.317z" fill="#dbf301"/><path d="M186.125 169.37a.993.993 0 0 1-.503-.136L66.466 99.838a1.002 1.002 0 0 1 .032-1.747l43.671-23.29a1 1 0 0 1 .974.018l117.304 68.317a.999.999 0 0 1 .001 1.728l-41.818 24.369a.999.999 0 0 1-.504.136zM69.021 99.012l117.104 68.201 39.832-23.212-115.339-67.172-41.597 22.184z"/><path d="m239.021 72.486-66.726-38.862 24.455-13.042 65.689 38.257z" fill="#87c159"/><path d="M239.021 73.486a.993.993 0 0 1-.503-.136l-66.727-38.861a1 1 0 0 1 .032-1.747L196.278 19.7a1 1 0 0 1 .974.018l65.688 38.257a.999.999 0 0 1 .001 1.728l-23.417 13.646a.999.999 0 0 1-.504.136zm-64.674-39.823 64.674 37.666 21.431-12.489-63.724-37.113z"/><path d="M600.382 186.66 281.597 1 6.301 152.503l325.882 184.708z" fill="#fff"/><path d="M332.184 338.211a.996.996 0 0 1-.493-.13L5.809 153.373a1 1 0 0 1 .011-1.746L281.114.124a.997.997 0 0 1 .985.012l318.785 185.66a.998.998 0 0 1-.014 1.736L332.672 338.083a.998.998 0 0 1-.489.128zM8.352 152.516l323.833 183.547 266.182-149.419L281.583 2.149z"/><path d="M165.357 186.322a9.431 9.431 0 0 1-4.646-1.217l-71.12-40.31a5.808 5.808 0 0 1-2.978-5.149 5.804 5.804 0 0 1 3.042-5.11l176.576-97.175a9.482 9.482 0 0 1 9.188.058l69.866 39.6a5.528 5.528 0 0 1 2.835 4.877 5.53 5.53 0 0 1-2.855 4.865l-175.297 98.365a9.43 9.43 0 0 1-4.61 1.197zm-74.779-43.267 71.12 40.31a7.465 7.465 0 0 0 7.291.016l175.297-98.365a3.55 3.55 0 0 0 1.834-3.125 3.555 3.555 0 0 0-1.821-3.133l-69.866-39.6a7.466 7.466 0 0 0-7.236-.045L90.621 136.288a3.83 3.83 0 0 0-2.007 3.371 3.826 3.826 0 0 0 1.964 3.396zm460.685 42.311-10.89 6.113-36.511-20.939 10.956-6.151z"/><path d="M540.373 192.479a.988.988 0 0 1-.497-.133l-36.511-20.939a.998.998 0 0 1 .008-1.739l10.956-6.15a1 1 0 0 1 .988.005l36.444 20.977a.998.998 0 0 1-.01 1.739l-10.89 6.113a.998.998 0 0 1-.489.128zm-34.484-21.93 34.489 19.78 8.861-4.974-34.427-19.816-8.924 5.01zm23.441 27.129-36.46-20.968 3.25-1.824 36.248 21.087z"/><path d="M529.33 198.678a.998.998 0 0 1-.499-.133l-36.46-20.968a.998.998 0 0 1 .01-1.739l3.25-1.824a.998.998 0 0 1 .992.008l36.248 21.087a.997.997 0 0 1-.014 1.736l-3.038 1.705a1 1 0 0 1-.489.128zm-34.436-21.958 34.441 19.807 1.017-.571-34.241-19.92-1.217.683zm23.782 26.938-36.627-20.874 3.264-1.832 36.49 20.951z"/><path d="M518.677 204.658c-.171 0-.342-.044-.495-.131l-36.628-20.874a1 1 0 0 1 .006-1.741l3.265-1.833a.998.998 0 0 1 .987.005l36.489 20.951a1 1 0 0 1-.009 1.739l-3.126 1.755a.998.998 0 0 1-.489.128zm-34.597-21.867 34.601 19.718 1.097-.616-34.47-19.792-1.228.689zm19.684 29.238-35.926-21.268 6.92-3.884 36.234 21.095z"/><path d="M503.765 213.029c-.177 0-.353-.047-.51-.139l-35.926-21.268a1 1 0 0 1 .021-1.733l6.92-3.885a1 1 0 0 1 .992.008l36.232 21.095a.998.998 0 0 1-.014 1.736l-7.227 4.057a.998.998 0 0 1-.489.128zm-33.924-22.245 33.938 20.091 5.198-2.919-34.227-19.927-4.909 2.756zm22.602 27.6-36.234-21.094 3.667-2.059 36.244 21.089z"/><path d="M492.442 219.384a.993.993 0 0 1-.503-.136l-36.233-21.095a.998.998 0 0 1 .014-1.736l3.668-2.059a.998.998 0 0 1 .992.008l36.243 21.09a.997.997 0 0 1-.014 1.736l-3.678 2.064a1 1 0 0 1-.489.128zm-34.219-22.079 34.228 19.927 1.653-.928-34.236-19.922zm-13.276 6.306 4.344-2.438 36.203 21.112-4.53 2.542z"/><path d="M480.965 225.828c-.176 0-.351-.046-.508-.138l-36.018-21.216a1 1 0 0 1 .019-1.734l4.344-2.439a1 1 0 0 1 .993.008l36.203 21.112a1 1 0 0 1-.015 1.736l-4.529 2.543a.998.998 0 0 1-.489.128zm-34.012-22.196 34.023 20.042 2.504-1.406-34.199-19.944-2.328 1.307zm25.365 26.049-8.996 5.05-36.417-21.082 8.002-4.42z"/><path d="M463.322 235.731a.997.997 0 0 1-.501-.135l-36.418-21.082a1 1 0 0 1 .018-1.74l8.003-4.419a.999.999 0 0 1 .963-.002l37.411 20.451a1 1 0 0 1 .01 1.75l-8.996 5.05a.998.998 0 0 1-.489.128zm-34.387-22.062 34.395 19.91 6.925-3.887-35.346-19.322z"/></svg></g><g transform="translate(578.4 1435.2) rotate(0.0 150.0 162.0) scale(1.3045066355904196 1.30647795318454)"><svg width="229.972" height="247.995" viewBox="0 0 229.972 247.995"><path d="M50.319 34.842C33.881 44.071 15.313 58.617 5.302 89.336c-13.751 42.195 8.894 79.805 19.902 98.09 8.676 14.411 22.694 37.693 52.125 50.703 6.691 2.958 31.197 13.383 61.128 6.634 40.688-9.175 61.123-43.26 68.711-55.916 7.268-12.122 35.005-58.387 14.216-106.145-17.772-40.827-58.491-55.183-68.711-57.811-49.755-12.795-86.319.948-102.354 9.951z" fill="#87c159"/><path d="M118.177 248.01c-13.805 0-27.781-3.014-41.252-8.968-29.722-13.139-44.029-36.903-52.577-51.102-11-18.269-33.889-56.285-19.997-98.915C14.788 57 34.139 42.779 49.83 33.969c13.428-7.539 50.353-23.61 103.092-10.047 2.021.52 49.732 13.25 69.379 58.381 8.915 20.48 10.079 43.055 3.461 67.1-5.28 19.183-14.009 33.741-17.736 39.958-7.726 12.885-28.245 47.109-69.349 56.377a93.162 93.162 0 0 1-20.5 2.273zm-5.54-227.35c-30.765 0-52.304 9.706-61.828 15.053-15.375 8.632-34.333 22.562-44.556 53.932-13.609 41.762 8.961 79.249 19.808 97.264 8.427 13.996 22.529 37.421 51.673 50.304 19.813 8.758 40.734 11.031 60.504 6.573 40.268-9.08 60.468-42.77 68.072-55.453 23.053-38.452 27.815-73.857 14.157-105.233-19.261-44.246-66.061-56.732-68.043-57.242-14.54-3.739-27.857-5.199-39.787-5.199zM50.32 34.841h.01z"/><ellipse cx="110.598" cy="61.977" rx="22.284" ry="12.425"/><path d="M110.599 75.402c-13.057 0-23.285-5.897-23.285-13.425s10.229-13.425 23.285-13.425 23.284 5.897 23.284 13.425-10.228 13.425-23.284 13.425zm0-24.85c-11.736 0-21.285 5.125-21.285 11.425s9.549 11.425 21.285 11.425 21.284-5.125 21.284-11.425-9.548-11.425-21.284-11.425z"/><path d="M110.118 63.86c-2.229-.367-3.421-1.486-3.289-3.363.474-6.725 2.38-22.012 10.045-36.207 9.403-17.414 15.681-20.787 18.234-22.132 2.818-1.484 5.993-1.903 8.756.945 2.057 2.12 2.165 4.567 1.863 5.416-2.538 7.135-13.033 7.355-18.796 16.354-7.072 11.044-11.018 29.326-11.946 36.341-.201 1.518-2.362 3.059-4.868 2.646z" fill="#dbf301"/><path d="M110.947 64.928c-.329 0-.661-.027-.992-.081-2.786-.459-4.289-2.071-4.122-4.42.433-6.151 2.29-22.034 10.162-36.611 9.599-17.776 16.173-21.238 18.648-22.542 3.829-2.016 7.267-1.624 9.939 1.133 2.335 2.406 2.52 5.232 2.088 6.447-1.392 3.913-4.902 5.899-8.619 8.002-3.699 2.093-7.524 4.258-10.277 8.556-7.244 11.314-11.039 30.206-11.797 35.933-.121.922-.691 1.803-1.605 2.48-.97.719-2.18 1.102-3.425 1.102zm-.666-2.055c1.028.17 2.118-.074 2.899-.654.461-.342.766-.767.814-1.136.829-6.263 4.618-25.072 12.096-36.749 3.02-4.717 7.246-7.108 10.976-9.219 3.53-1.997 6.578-3.722 7.72-6.932.18-.505.125-2.566-1.639-4.384-2.049-2.112-4.524-2.361-7.572-.756-2.327 1.226-8.511 4.482-17.82 21.723-7.687 14.235-9.503 29.779-9.928 35.802-.036.514-.133 1.88 2.454 2.306z"/></svg></g></svg>