<svg xmlns="http://www.w3.org/2000/svg" viewBox="0 0 1000 1000" width="1000" height="1000"><g transform="translate(75.0 85.0) rotate(0.0 412.5 375.0) scale(1.0036496350364963 1.0040160642570282)"><svg width="822" height="747" viewBox="0 0 822 747"><path d="M815.26 369.95c1.15 12.46 1.74 25.09 1.74 37.85l1.36 2.51-1.36.94V742H23.25l-5.31 5H0V407.8c0-31.92 3.67-62.99 10.61-92.8.11-.49 4.23-.97 4.34-1.46 1.05-4.41 2.16-8.81 3.35-13.17.13-.45-3.62-.9-3.62-1.35V299C48.66 175.92 138.9 76.18 256 29.2c.01-.01.03-.01.04-.01.46 0 .93 3.62 1.4 3.43 4.1-1.63 8.23-3.19 12.4-4.68.72-.26 1.44-4.52 2.16-4.77C314.48 8.16 360.19 0 407.8 0h6.4C474.79 0 532.3 13.22 584 36.93c.427.195.854 5.392 1.28 5.588a397.809 397.809 0 0 1 13.225 6.41c.499.253.997-4.493 1.495-4.238C700.43 96.18 776.71 188.12 807.32 299v.01c0 .38-4.79.74-4.69 1.12 1.2 4.36 2.31 8.74 3.36 13.15.13.58 5.27 1.15 5.4 1.72 4.03 17.3 6.96 35.03 8.7 53.11.06.61-4.88 1.22-4.83 1.84z" fill="#006"/><path d="M817 415.2v213.254l5 5.106V747H607.975l-1.763-5h-20.715L584 747H279.975l-2.45-5h-18.68L256 747H17.94V415.2C17.94 214.54 166.1 48.49 359 20.48c18.88-2.75 38.19-4.17 57.84-4.17h6.26c34.03 0 67.06 4.26 98.6 12.29.44.11.87 5.22 1.3 5.33C694.96 78.26 817 229.4 817 415.2z" fill="#36f"/><path d="M822 415.2v34.03l-5 3.021v62l5 3.87v115.44l-156.02-60L555.97 537V333.23c0-22.16-13.94-41.59-34.27-49.02V28.6c.44.11.87.22 1.3.33 157.299 40.551 277.731 174.659 297 339.446.093.796-5.535 1.593-5.447 2.391a402.734 402.734 0 0 1 2.388 37.522c.011.673 5.021 1.347 5.029 2.021.02 1.628.03 3.258.03 4.89z" fill="#fff"/><g fill="#006"><path d="M607.975 747H600l-1.208-4h-6.817V49.962l16 3zm-328 0H272l-2.102-4h-5.923V30.962l16-4z"/><path d="M813.5 326.962H20.975v-16h789z"/></g><path d="M600 44.69V747h-16V36.93c5.4 2.47 10.73 5.06 16 7.76zM272 23.17V747h-16V29.2a370.07 370.07 0 0 1 16-6.03z" fill="#fff"/><path d="M811.39 315H10.61c1.25-5.36 2.6-10.7 4.07-15.98V299h792.64c1.47 5.29 2.82 10.63 4.07 16z" fill="#fff"/><path d="M822 449.23v68.89H716.44l64.4-68.89zm0-41.43v2.51H694.11l50.5-42.2h75.48c1.26 13.06 1.91 26.3 1.91 39.69zm-110.008 27.323h11.528V468h-11.528z" fill="#36f"/><path d="M716.421 440.459h11.528v32.877h-11.528z" fill="#fff"/><path d="M784.795 600.575h-19.531V554.64a9.766 9.766 0 0 1 9.766-9.766 9.766 9.766 0 0 1 9.766 9.766v45.935z" fill="#36f"/><path d="M791.306 605.639h-19.531v-45.935a9.766 9.766 0 0 1 9.766-9.766 9.766 9.766 0 0 1 9.766 9.766v45.935z" fill="#fff"/><path d="m756.503 346.677 6.454-5.249h4.271v48.862h-10.725z" fill="#36f"/><path d="M752.202 341.428h10.726v48.861h-10.726z" fill="#fff"/></svg></g><g transform="translate(74.0 834.0) rotate(0.0 413.0 24.5) scale(1.3111027866489737 1.2894736842105263)"><svg width="630.004" height="38" viewBox="0 0 630.004 38"><path d="M0 0h630.004v38H0z" fill="#006"/></svg></g><g transform="translate(74.0 868.0) rotate(0.0 413.0 24.5) scale(1.3111027866489737 1.2894736842105263)"><svg width="630.004" height="38" viewBox="0 0 630.004 38"><path d="M0 0h630.004v38H0z" fill="#006"/></svg></g><g transform="translate(75.0 284.0) rotate(0.0 447.0 296.5) scale(1.0029235108156438 1.0051426692385663)"><svg width="891.394" height="589.966" viewBox="0 0 891.394 589.966"><path d="M549.516 530.109c7.58 25.962 53.694 7.257 82.13 1.56 17.07-3.344 41.248 8.969 60.507 9.559 17.36.54 30.011-7.508 32.79-19.298 2.003-8.423-26.086-3.016-38.398-7.128-20.954-6.975-44.868-19.19-62.375-28.176-22.033-11.154-39.985-37.268-54.066-53.188-3.313-3.813-6.488-7.514-9.565-11.478-5.267 6.247-10.948 12.16-16.919 17.725-7.586 7.001-18.128 14.697-27.046 18.683 10.862 9.445 21.426 20.817 28.297 33.089 9.636 18.037-1.143 18.813 4.645 38.652z" fill="#006"/><path d="M704.527 551.58c22.347-5.279 42.875-10.801 57.635-14.965 14.398-4.086 24.579 9.893 31.724 12.027 20.633 6.193 30.201 6.673 40.56-17.501 8.011-18.623.295-32.877 12.253-49.567 5.064-7.014 16.967-18.644 22.875-24.071 7.15-6.702 18.582-22.901 19.741-30.469 1.869-12.515 4.741-28.021-3.207-28.595-8.482-.712-5.645-2.202-18.441 18.833-1.113 1.879-2.614 3.714-4.339 5.092-10.884 8.131-33.998 28.719-41.276 33.051-9.968 5.916-41.648 21.267-65.693 26.278-2.813.58-5.634 4.124-8.461 4.633-14.306 2.574-28.789 4.248-43.35 5.146 2.668 7.76 4.249 12.752 4.865 20.95.744 10.569.046 23.844-2.943 34.074-.269 1.698-1.046 3.378-1.943 5.084z" fill="#006"/><path d="M759.929 477.852c-13.888 5.627-27.109 7.783-40.497 9.387-5.702.431-12.307 1.041-14.643 1.181-18.043 1.205-36.654 1.521-56.334 1.561-26.723.156-54.22-1.541-80.865-2.789-30.98-1.458-61.92 1.997-89.446-9.286-17.986-7.39-33.464-13.674-52.262-18.366-30.916-7.656-59.928-14.078-90.81-20.984-26.245-5.877-49.502-20.218-76.379-22.553 4.491.934-23.507-.152-21.527 3.211-29.298 25.317-62.508 19.919-78.273 60.14-14.132 35.455 20.381 81.214 55.971 87.115 59.56 9.992 137.056-5.935 197.583-12.683 22.19-2.469 44.138-4.887 66.441-8.012 28.573-4.003 58.041 8.745 77.896 16.885 2.571 1.054 5.776 2.226 9.22 3.363 38.744 18.666 82.324 21.451 125.925 23.831 24.998 1.365 68.093-9.907 68.093-9.907s6.37-85.943-.093-102.094z" fill="#fff"/><path d="M537.887 384.278c-11.273-17.152-21.493-34.742-32.031-53.802-13.615-24.616-25.2-49.972-46.587-66.186-.182-.26-.344-.521-.536-.781-11.12-8.335-20.344-12.893-40.526-8.556-19.224 4.274-40.339 26.597-55.984 37.308-48.882 33.893-88.554 74.233-131.008 116.139-19.74 19.534-43.294 31.138-25.729 56.167 18.016 25.629 58.304 45.275 84.72 62.805 20.095 13.287 28.13 18.551 42.52-.886 11.104-15.07 41.098-54.346 48.154-70.41 13.967-31.736 35.082-69.925 52.435-103.806 5.199 38.424 22.582 74.105 40.27 109.634 11.157 22.412 44.323 60.906 44.323 60.906s77.879-36.897 88.732-50.493c-22.433-20.709-45.149-56.084-68.753-88.039z" fill="#fff"/><path d="M331.125 307.241c.085-.028 5.466 11.397 4.936 14.569-.71 4.25-14.54 9.182-18.002 10.394-6.962-2.719-12.126-6.925-13.752-11.568-.036-3.603 5.884-7.775 8.256-11.076 4.375-6.087 6.41-2.945 13.081-2.572.479-.626 3.901.78 5.481.253zM134.315 95.488l-5.768 37.366c18.072 10.519 41.25 4.395 51.769-13.677l8.812-15.14c10.675-18.343 4.461-41.865-13.881-52.542l-12.454-7.249c-24.412-14.208-55.718-5.937-69.927 18.475z" fill="#006"/><path d="m160.231 112.237-82.22-31.89 5.21-44.256c14.013-15.093 36.613-18.462 54.419-8.111l7.515 4.369c25.47 14.714 34.188 47.288 19.474 72.758z" fill="#006"/><path d="m47.537 192.026 7.707 7.867c10.151 10.361 29.457 2.781 40.281-15.814l14.452-24.83 19.625-33.717-49.816-28.995-15.398 29.893-3.428 2.454-12.451 21.392c-9.038 15.526-9.446 33.1-.972 41.75z" fill="#fff"/><path d="M166.966 57.191c20.063 17.474 21.696 32.411 3.579 54.891-4.382 5.438-6.531 5.575-5.585 12.668 1.636 6.689 2.245 12.867-.215 14.722-1.626 1.139-2.888-.221-4.187 1.15-7.297 7.756-6.744 10.791-13.56 22.487-5.738 9.833-9.595 15.303-16.192 13.854-6.78-1.488-15.998-11.529-22.62-19.812a25.937 25.937 0 0 1-4.494-23.895l5.189-16.708L59.457 65.38s44.119-55.146 79.969-26.302c1.332-.035 21.932 8.247 27.54 18.113z" fill="#36f"/><path d="M112.634 139.649c3.181-14.433 14.594-19.921 26.138-26.062 7.331-3.899 10.474-19.421 19.768-21.012 8.041-1.378 11.581 14.832 18.96 10.282-1.927 5.542-9.04 8.116-12.105 13.964-.101.194 1.799 2.389 1.703 2.585-.233.472-.451.953-.653 1.444-.331 4.927.425 9.827 2.74 16.381.684 3.177-3.366 5.135-7.779 5.835-2.467.455-5.007 7.566-4.858 8.416-.609 1.215-1.516 1.642-2.444 1.992-.14.275-.26.54-.347.785-.323.917-1.198 4.026-1.533 5.424-.754 1.757-3.085 1.685-3.085 1.685s-13.685 33.606-30.803 3.707c-3.322-5.803-5.38-15.217-5.435-15.389-1.438-4.523-.547-8.765-.267-10.037z" fill="#fff"/><path d="M149.058 161.166c-.268.018-.617.148-.744.186-.707.213-1.158.453-1.761.843-.109-.077-.295-.045-.513-.2-1.43-.523-2.737-1.448-3.889-2.593-.359-.418-1.838-1.794-1.561-2.415 2.536 1.962 5.563 3.43 8.468 4.179zm1.324-12.456c.776.059 1.585.305 2.27.954 0 0 1.216 1.517 1.434 1.671.576.572 2.463.16 2.463.16-.35 1.88-3.879 2.763-4.855 3.218-.149-.001-.327-.006-.444-.069-.484-.261-.798-.485-.972-.935 0 0-.2-.401-.281-.527-.227-.351-.872-.618-1.385-.818l-8.112-2.639c-1.103-.291-2.006-1.095-2.492-2.256l-.204-.636zm6.925-9.307c.899-.345 1.471-.921 1.408-1.294-.095-.558-1.462-.709-2.918-.269-.636.204-1.271.408-1.875.799z" fill="#006"/><path d="m123.69 121.258 11.54-5.134a31.068 31.068 0 0 1 26.496.588l5.403 2.709 11.565-16.936-32.924-19.162z" fill="#36f"/><g fill="#006"><path d="m137.891 147.324-2.653-4.954 8.087 6.73-1.146.236a3.963 3.963 0 0 1-4.288-2.012z"/><ellipse cx="152.972" cy="112.474" rx="4.922" ry="3.153" transform="matrix(.4909 -.8712 .8712 .4909 -20.1131 190.5271)"/><path d="m161.232 116.436-.192-.681c-1.953-6.038-6.932-9.838-12.605-9.53l-5.232.265-3.479-.421.941 2.369c.806 1.958 2.788 2.858 4.566 2.048 1.906-.914 4.026-1.272 6.001-.886l.935.183c2.912.567 5.606 2.251 7.61 4.698zm-69.85-72.475c9.289-15.96 29.828-21.256 45.675-11.777l37.491 22.422c13.59 7.909 18.195 25.339 10.284 38.928l-11.901 20.447-90.894-53.965z"/></g><path d="m127.326 97.755 18.436-28.343-6 33.891-8.805-2.934z" fill="#36f"/><path d="m94.214 15.057-4.255-4.127a38.756 38.756 0 0 0-42.806-7.549l-9.809 4.39c-7.84 3.509-11.651 12.466-8.744 20.548a16.42 16.42 0 0 0 18.029 10.659l3.537-.563a34.908 34.908 0 0 0 12.863-4.777l13.668-8.448a6.78 6.78 0 0 1 8.22 10.694L74.402 45.82s29.236 12.704 29.713 9.729c.478-2.975 17.078-32.728 17.078-32.728l-12.407-.032a17.68 17.68 0 0 1-14.572-7.732zm2.563 188.073-68.411-15.242 15.857-48.51a3.745 3.745 0 0 1 5.118-2.242l58.105 26.576a3.746 3.746 0 0 1 1.962 4.687z" fill="#006"/><path d="m292.097 405.239 45.477 48.244L426.28 283.49l-45.478-48.244z" fill="#36f"/><path d="M336.87 457.866a4.442 4.442 0 0 0 4.639-2.329l88.706-169.993a4.438 4.438 0 0 0-.706-5.099l-45.479-48.244a4.447 4.447 0 0 0-3.838-1.352 4.442 4.442 0 0 0-3.327 2.343l-88.706 169.993a4.438 4.438 0 0 0 .706 5.099l45.477 48.244a4.451 4.451 0 0 0 2.528 1.338zm84.014-173.629-84.36 161.661-39.032-41.405 84.359-161.661z" fill="#006"/><path d="M187.996 371.465c1.878-.432 23.704-16.94 23.941-17.079 9.255-5.191 17.87-26.357 27.266-31.79 7.589-4.421 16.07-4.065 24.863-5.435 10.161-1.618 8.635.716 17.43 5.796 10.608 6.23 17.335-3.691 25.514 5.93 1.378 1.574-6.492-21.313 11.702-16.495 11.013 2.919 21.003 3.233 32.162 6.428 7.229 2.071 16.726 5.379 19.964 1.435 2.403-2.915.69-3.43-7.291-5.47-11.648-2.983-31.447-8.438-39.755-12.845-5.764-3.088-10.689-7.849-16.627-8.36-6.886-.587-28.917-5.528-39.702-6.564-4.594-.447-16.521-.582-31.341 3.588-.978.257-1.987 3.591-3.024 3.992-16.098 6.227-39.046 25.682-57.738 29.785-2.047.393 9.508 47.821 12.636 47.084z" fill="#fff"/><path d="M61.021 128.919c21.128-1.39 30.65-8.468 46.617 11.254.248-9.176 4.403-19.594 8.337-27.692-15.578.291-34.628.472-49.592-4.859 1.37 8.165-.824 11.481-5.362 21.297z" fill="#36f"/><path d="m107.813 115.643-9.928 2.839a78.347 78.347 0 0 1-18.074 2.943l-14.987.664-21.323-12.046c-12.332-6.967-10.034-19.935-4.824-30.868 3.252-6.824 6.592-13.275 11.752-18.574 3.013-3.093 5.99-5.859 9.599-8.182 3.821-2.46 7.728-4.785 11.669-7.046 1.64-.942 3.973-1.759 5.388-3.027a28.592 28.592 0 0 0 9.35-18.33l.264-2.537 44.239 47.531z" fill="#006"/><path d="M151.068 60.039 136.99 84.584a26.707 26.707 0 0 1-28.914 12.795l13.247-42.116z" fill="#006"/><path d="M100.116 101.44c.019.686 2.051 1.377 2.096 2.071.264 4.126 1.98 8.305 3.244 11.577 1.378 3.577 1.568 4.715 3.671 5.77.142.068.268.134.395.201 4.686-10.278 12.703-24.766 12.703-24.766s-1.5-10.325-7.108-13.118c-5.548-2.783-11.996.026-13.909 6.051-.824 2.569-1.267 7.228-1.092 12.214z" fill="#36f"/><path d="M100.116 101.44c.135 4.766.863 9.826 2.339 13.648 1.378 3.577 4.568 4.715 6.671 5.77 2.861-4.423 5.347-13.634 2.756-17.544-2.785-4.215-7.259-3.714-11.766-1.874zM83.027 32.572c.481.077.988.016 1.461-.208l19.891-9.401a2.496 2.496 0 0 0 1.19-3.324 2.495 2.495 0 0 0-3.324-1.191l-19.891 9.401a2.496 2.496 0 0 0 .673 4.723z" fill="#fff"/><path d="M80.409 29.769a2.483 2.483 0 0 0 2.028-.576L97.06 16.564a2.496 2.496 0 1 0-3.263-3.779L79.175 25.414a2.496 2.496 0 0 0 1.234 4.355z" fill="#fff"/><path d="m41.1 273.175 14.333 17.908 82.118 102.555c13.243 16.528 37.459 19.349 53.948 6.068 7.749-6.262-2.152-24.039-6.337-27.044-10.943-7.86-66.753-84.71-66.753-84.71L84.553 241.98a26.569 26.569 0 0 0-10.872-9.634c-8.406-4.081-18.714-3.646-26.958 2.094-12.74 8.85-15.322 26.637-5.623 38.735z" fill="#006"/><path d="m41.1 273.175 14.333 17.908c-5.908-24.489-10.581-52.777 18.248-58.736-8.406-4.081-18.714-3.646-26.958 2.094-12.74 8.849-15.322 26.636-5.623 38.734z" fill="#006"/><path d="m54.319 156.636-27.307 23.709C7.23 197.521-.395 219.911.016 249.351l6.546 59.285a145.41 145.41 0 0 0 22.532 63.165l21.597 33.303a213.19 213.19 0 0 0 41.902 47.372l27.496 21.239 5.038.119 36.108-31.708 32.813-33.204 56.155-23.267-70.125-45.261-3.928-36.561a37.274 37.274 0 0 0-12.76-24.284l-39.449-33.927-29.275-50.469z" fill="#006"/><path d="M271.846 297.643c6.53-3.069 11.694-6.777 20.141-5.546 4.463.65 8.479 2.555 12.439 4.818 4.234 2.421 22.177 10.499 21.618 12.675-.071.279-1.262 3.867-3.84 3-2.451-.825-16.378-4.411-13.354 4.984.371 1.152 2.831 3.171 2.831 3.171s7.96 2.979 12.941 3.551c9.295 1.069 16.348 5.636 10.796 10.06-1.57 1.251-7.432-1.195-15.207-1.88-4.554-.401-11.048-.237-14.152-.123a10.55 10.55 0 0 1-3.593-.49c-3.244-1.028-10.346-3.337-17.066-5.922-.842-.197-6.511-4.205-12.214-9.561-5.574-5.233-9.009-15.133-1.34-18.737zM119.974 473.865c23.89 21.764 40.069 36.082 55.776 63.732 31.934-21.43 76.881-90.788 95.859-126.92-30.644-11.199-44.199-24.577-71.681-12.711-29.501 12.738-35 23.886-57.341 46.144-5.793 5.773-15.075 15.869-22.613 29.755zm193.605-77.238c2.03-2.001 21.132-8.26 23.333-9.356 3.282-1.635 16.572 1.493 23.713-.149 3.39-.78 6.887-.782 10.291-1.267 2.663-.38 7.918-2.672 10.591-1.42 4.069 1.905 1.058 8.03-1.754 10.63-2.96 2.736-5.488 2.195-6.692 6.494-.776 2.77.193 5.427-1.146 8.167-1.864 3.814-6.57 3.039-8.293 6.05-1.332 2.327.344 6.209-1.208 8.969-1.766 3.14-4.226 4.994-6.008 8.406-1.694 3.244-1.362 3.341-4.731 3.167-3.067-.159-5.523-.968-8.649-.773-3.463.216-8.778-4.578-12.096-4.692-6.951-.238-11.356.053-18.104-1.32-.249-6.071.02-12.16-.039-18.229-.04-4.083 1.046-8.709-.009-12.556.536-.296.364-1.691.801-2.121z" fill="#fff"/><path d="m169.101 356.815 50.529 9.406 94.199 28.804 1.234 34.673-32.153-2.31-76.108-10.733a97.737 97.737 0 0 1-22.284-5.889l-30.77-12.174c-4.027-13.609.439-27.512 15.353-41.777zm67.17-66.476 16.467 28.672-45.945 46.413-45.542-17.301 3.066-18.582c27.532-15.635 62.316-36.521 71.954-39.202z" fill="#006"/></svg></g></svg>